<svg width="1920" height="625" viewBox="0 0 1920 625" fill="none" xmlns="http://www.w3.org/2000/svg">
<path d="M1781.88 249.174C1781.92 250.658 1891.92 251.185 1892.24 255.175C1892.47 258.055 1835.45 259.812 1834.04 267.393C1833.09 272.531 1858.38 276.654 1856.46 280.251C1854.4 284.101 1823.57 283.067 1822.84 283.042C1771.36 281.31 1719.46 285.066 1668.08 282.826C1640.13 281.608 1583.63 282.014 1470.63 282.826C1419.77 283.194 1368.9 281.881 1318.02 281.754C1297.4 281.704 1278.6 281.691 1278.37 280.467C1278.02 278.608 1320.19 272.829 1367.6 272.322C1395.81 272.023 1413.51 273.723 1450.8 271.249C1463.57 270.406 1483.29 268.763 1483.13 267.824C1483.1 267.627 1465.58 269.949 1446.06 267.177C1444.62 266.974 1435.91 265.743 1436.15 264.823C1436.19 264.652 1436.54 264.506 1437.12 264.373C1413.68 264.938 1375.41 265.705 1350.79 266.111C1324.4 266.536 1297.29 268.04 1296.9 266.752C1296.59 265.686 1314.81 264.1 1314.58 263.111C1314.09 261.049 1235.62 265.813 1150.33 266.536C1119.85 266.796 1049.17 267.393 961.084 262.464C901.159 259.108 860.58 254.731 820.978 257.319C817.945 257.522 793.659 259.146 761.488 258.391C759.607 258.347 727.034 257.554 727 256.247C726.946 254.388 793.017 253.614 889.525 249.605C1001.89 244.943 1001.58 242.285 1086.96 239.963C1136.3 238.618 1154.68 239.005 1202.49 236.531C1232.8 234.964 1255.07 233.271 1277.8 231.184C1277.87 231.264 1277.9 231.361 1277.91 231.463C1278.03 232.992 1270.84 234.704 1270.95 235.764C1271.2 238.111 1306.89 232.744 1307.01 234.038C1307.08 234.819 1294.32 237.559 1294.36 237.914C1294.39 238.162 1300.87 236.633 1305.11 236.189C1324.76 234.133 1343.41 238.124 1343.38 240.496C1343.36 241.911 1336.67 243.04 1330.65 243.782C1331.98 243.706 1332.92 243.719 1332.95 243.934C1333 244.435 1328.15 245.666 1328.2 246.085C1328.28 246.713 1339.18 244.531 1339.27 245.222C1339.32 245.622 1335.77 246.396 1335.79 246.947C1335.89 249.307 1401.86 245.901 1401.89 246.947C1401.92 247.721 1365.2 249.498 1365.2 251.68C1365.21 253.526 1391.62 256.78 1421.19 253.83C1444.19 251.534 1448.98 247.487 1474.32 242.215C1524.79 231.717 1565.11 235.415 1565.09 234.038C1565.09 233.455 1557.78 233.099 1550.55 232.751C1530.55 231.78 1525.59 233.017 1514.49 231.888C1499.55 230.372 1500.3 227.295 1487.29 225.868C1472.91 224.295 1466.16 227.409 1450.91 229.737C1422.47 234.089 1396.02 230.873 1395.88 228.018C1395.72 224.612 1459.43 218.604 1459.33 217.59C1459.28 217.158 1426.05 218.243 1419.92 218.985C1419.92 218.985 1408.39 220.381 1382.92 221.567C1378.08 221.789 1372.9 221.922 1367.45 221.992C1386.99 219.67 1399.29 217.577 1399.07 215.528C1398.67 211.766 1343.86 211.665 1343.89 209.527C1343.92 207.694 1384.05 206.691 1383.98 205.879C1383.89 204.75 1305.22 205.949 1305.09 204.814C1304.99 203.856 1360.46 202.79 1444.33 197.741C1463.49 196.586 1479.76 195.489 1504.69 194.74C1542.7 193.598 1570.88 194.163 1579.27 194.309C1684.46 196.098 1846.6 184.743 1848.7 190.877C1850.3 195.558 1757.88 207.859 1688.77 214.671C1647.26 218.763 1632.94 219.918 1628.71 220.197C1629.06 220.203 1629.34 220.241 1629.35 220.324C1629.48 221.148 1629.6 220.184 1740.93 223.242C1782.28 224.377 1805.16 224.942 1805.16 225.817C1805.16 227.657 1703.39 227.384 1702.99 230.962C1702.62 234.298 1779.83 239.652 1841.37 242.101C1888.87 243.991 1924.99 243.37 1925 244.036C1925.04 245.355 1781.83 247.487 1781.88 249.174Z" fill="#E6F4FF" fill-opacity="0.8"/>
<path d="M-4 344.135C368.901 346.568 564.731 343.442 674.299 340.032C742.717 337.902 794.308 335.138 794.259 333.876C794.188 332.085 690.335 333.591 690.176 330.456C690.07 328.365 736.146 326.061 736.043 324.3C735.841 320.844 558.212 325.594 557.868 320.88C557.726 318.931 587.988 316.75 587.858 315.408C587.499 311.694 355.126 322.985 354.996 321.564C354.808 319.516 836.859 292.594 836.597 289.417C836.547 288.808 641.983 298.664 641.663 295.572C641.529 294.279 675.416 291.283 675.181 288.733C675.001 286.777 654.897 286.715 654.894 285.997C654.886 284.007 738.689 283.261 738.689 283.261C878.054 279.925 1043.73 272.817 1043 266.576C1041.95 257.595 692.87 262.288 691.94 253.165C691.493 248.776 774.471 241.404 773.971 237.434C773.069 230.274 502.198 246.122 501.417 239.486C501.071 236.551 553.818 231.662 553.458 228.542C552.73 222.245 336.942 233.667 336.473 229.226C336.119 225.876 458.498 216.001 458.196 213.494C457.858 210.691 304.496 221.302 303.837 216.914C303.017 211.457 541.967 203.924 541.109 197.329C540.43 192.105 388.436 183.062 239.447 195.027C136.562 203.289 52.3985 183.431 -4 190.655V246.979C195.052 249.759 319.703 252.941 319.714 256.585C319.724 260.122 202.333 262.576 202.401 266.161C202.483 270.543 377.877 270.846 377.929 274.369C377.993 278.725 109.863 281.963 109.785 289.417C109.725 295.173 269.58 298.988 269.437 302.412C269.357 304.309 197.643 303.449 54.2155 301.728C52.4989 301.708 25.1315 301.359 25.1078 300.36C25.068 298.686 101.882 296.792 101.846 294.888C101.814 293.136 36.7597 293.71 36.5745 290.784C36.3363 287.024 143.479 281.417 143.303 278.472C143.174 276.323 85.9442 276.381 -4 277.788V344.135Z" fill="#E6F4FF" fill-opacity="0.8"/>
<g clip-path="url(#clip0_782_146)">
<path d="M1192.87 122.194C1244.31 122.659 1297.69 118.655 1297.8 120.341C1297.88 121.561 1269.98 124.169 1270.1 125.744C1270.19 127.064 1289.89 126.487 1289.91 126.979C1289.93 127.67 1251.05 129.037 1251.06 129.757C1251.08 130.79 1330.99 129.513 1331.07 131.919C1331.11 132.857 1318.97 133.567 1319 134.234C1319.11 136.828 1503.03 132.37 1503.02 127.751C1503.02 126.157 1481.14 125.957 1481.06 123.566C1480.85 117.475 1622.56 108.516 1622.35 104.596C1622.24 102.441 1579.34 103.864 1579.14 100.949C1578.9 97.341 1644.35 91.1998 1644.17 88.8505C1643.9 85.2727 1491.67 93.8477 1491.42 90.2398C1491.31 88.7256 1518.04 85.9898 1517.88 83.2933C1517.75 81.0056 1498.38 80.8563 1498.38 80.0517C1498.37 77.7982 1650.2 75.9552 1650.21 73.5683C1650.22 72.269 1605.23 71.9257 1605.17 69.4004C1605.08 65.7299 1699.97 60.9588 1699.89 59.2123C1699.82 57.6742 1626.19 60.7896 1626.07 58.7492C1626.01 57.8195 1671.62 54.7318 1734.25 47.6349C1749.88 45.8631 1757.02 44.9246 1757 43.9301C1756.89 39.1398 1627.01 34.2783 1626.53 39.7622C1626.46 40.5631 1639.39 41.6513 1639.38 43.9301C1639.37 44.9295 1636.88 45.7751 1635.2 46.0912C1630.06 47.0536 1625.54 44.3757 1624.21 43.6213C1617.27 39.7075 1608.71 39.9104 1600.99 37.9097C1584.05 33.5161 1553.08 37.3197 1538.31 38.3728C1487.67 41.9823 1479.83 23.788 1439.65 30.5002C1417.45 34.2076 1400.58 42.9757 1390.66 49.0241C1402.63 50.1153 1407.16 50.8488 1407.14 51.3395C1407.08 52.8997 1361.01 51.8432 1360.94 53.4235C1360.88 55.076 1411.17 58.2698 1411.09 61.0646C1411.02 63.6003 1369.6 61.9065 1368.14 70.095C1367.01 76.439 1390.99 82.4375 1390.2 87.9242C1388.5 99.6112 1276.52 94.4253 1276.44 89.3136C1276.39 86.0476 1322.04 83.8978 1321.94 79.357C1321.86 75.3933 1287.02 74.2059 1287.02 71.1126C1287.03 66.8321 1353.76 64.7187 1353.75 61.5278C1353.73 58.2923 1285.12 57.4201 1285.03 53.6551C1284.94 49.5502 1366.44 47.8974 1366.52 42.7723C1366.62 36.0104 1224.79 35.3549 1176.38 35.1312C1155.57 35.035 1116.13 35.0158 1114.86 43.0038C1113.42 52.1207 1163 63.4583 1161.76 72.6421C1160.27 83.6105 1074.83 75.3314 1074 81.9042C1073.25 87.8965 1143.35 99.212 1142.72 104.596C1141.94 111.208 1035.29 102.002 1035 105.059C1034.77 107.545 1104.56 121.395 1192.87 122.194Z" fill="#E6F4FF" fill-opacity="0.8"/>
</g>
<g clip-path="url(#clip1_782_146)">
<path d="M647.182 109.319C647.054 119.188 749.905 125.013 749.777 132.344C749.678 138.16 563.135 124.132 559.517 146.334C558.815 150.624 565.492 152.835 564.836 156.981C561.15 180.273 341.64 165.94 341.746 162.307C341.803 160.336 406.326 161.913 406.355 160.025C406.387 157.92 326.311 151.758 233.813 153.941C185.016 155.088 138.612 158.42 138.42 156.222C138.209 153.803 194.156 148.118 193.906 144.812C193.653 141.434 135.003 143.203 135 142.912C134.997 142.674 174.151 142.13 200.24 141.265C288.344 138.342 365.641 127.185 365.436 124.532C365.231 121.889 288.053 127.211 287.906 125.038C287.797 123.44 329.241 116.163 379.119 117.432C404.911 118.089 430.619 120.972 430.804 119.46C430.993 117.948 405.292 114.625 405.468 112.363C405.807 108.008 501.597 112.488 501.748 109.828C501.831 108.351 472.319 106.489 472.357 104.25C472.437 99.4752 606.597 98.844 606.642 94.6144C606.661 92.7944 581.76 91.58 581.811 90.0516C581.91 87.1806 669.912 88.4303 669.983 85.9951C670.027 84.5404 638.52 82.9415 638.565 81.4323C638.632 79.2214 706.45 79.404 706.469 77.882C706.482 76.8438 674.828 76.4433 674.671 73.3192C674.568 71.2781 688.005 70.0285 687.973 68.7564C687.877 65.0587 573.709 63.9725 492.618 65.8758C473.84 66.3148 456.836 66.9172 443.434 67.683C424.986 68.7372 413.361 70.1054 413.323 71.7972C413.259 74.6554 446.23 77.8788 446.009 79.9103C445.74 82.3583 397.888 78.4139 397.36 82.448C397.087 84.534 409.756 86.8378 409.522 89.0391C409.003 93.9191 345.886 90.3368 345.675 93.0956C345.54 94.8131 370.076 96.8125 370.047 99.1388C369.971 105.252 200.352 107.021 200.24 114.138C200.202 116.608 220.645 117.444 220.764 121.235C220.994 128.477 146.714 136.385 146.528 135.18C146.403 134.379 178.983 129.768 178.705 125.798C178.445 122.116 150.105 121.799 150.073 118.954C150.048 116.461 171.801 115.314 171.865 112.488C171.945 108.883 136.598 107.165 136.518 103.743C136.383 97.8219 241.883 92.7624 241.793 88.1515C241.716 84.1142 160.83 82.5986 160.842 82.0667C160.858 81.3939 191.943 77.1482 231.12 79.1156C231.35 79.1284 231.581 79.1381 231.811 79.1509C245.475 79.8224 259.088 81.3043 272.576 83.5887C280.678 84.9858 302.934 89.1833 304.122 85.4888C304.734 83.5823 299.508 80.3204 298.041 79.404C279.263 67.6798 256.808 76.6676 232.007 75.3955C231.773 75.3827 231.542 75.3699 231.309 75.3571C224.094 74.9309 216.687 73.6172 209.11 70.6565C199.869 67.0454 186.064 59.2944 187.066 53.546C189.179 41.4244 256.155 43.7475 278.28 44.4172C287.573 44.6992 297.015 44.9341 306.607 45.1221C308.407 34.5706 350.184 35.032 350.219 31.3184C350.261 26.7812 287.96 23.9839 287.89 20.6707C287.794 16.2008 401.391 13.7304 401.398 9.51685C401.404 6.96309 359.813 5.57247 359.845 3.93832C359.915 0.519423 541.712 1.21153 541.763 -2.14648C541.786 -3.49866 512.354 -4.78676 512.373 -7.21556C512.395 -9.82699 546.368 -11.1664 546.323 -13.3004C546.295 -14.6878 531.9 -14.864 531.881 -15.8349C531.846 -18.0234 604.57 -21.9293 604.851 -18.8789C605.063 -16.6296 565.684 -12.4673 565.918 -8.87855C566.184 -4.79638 617.456 -5.58782 617.52 -3.15903C617.584 -0.832767 570.446 0.79178 570.395 3.93832C570.312 9.0106 692.834 13.3587 692.77 16.8673C692.696 21.02 521.003 21.177 520.987 23.7115C520.974 26.0122 662.159 26.685 662.368 33.8529C662.438 36.2657 636.416 37.9927 636.522 39.9377C636.653 42.3505 676.624 38.6592 688.066 40.7003C729.417 40.0434 755.08 40.335 755.115 42.8984C755.163 46.407 706.991 48.0828 706.761 55.7185C706.463 65.4305 784.109 71.3646 784 80.926C783.853 93.5955 647.327 97.9596 647.182 109.319Z" fill="#E6F4FF" fill-opacity="0.8"/>
</g>
<defs>
<clipPath id="clip0_782_146">
<rect width="722" height="100.192" fill="white" transform="translate(1035 46.3151)"/>
</clipPath>
<clipPath id="clip1_782_146">
<rect width="649" height="179.589" fill="white" transform="translate(135)"/>
</clipPath>
</defs>
</svg>
