<svg width="1920" height="435" viewBox="0 0 1920 435" fill="none" xmlns="http://www.w3.org/2000/svg">
<path d="M-539.846 234.443C-539.846 234.443 -470.859 221.935 -419.276 220.394C-367.693 218.853 -298.679 220.394 -298.679 220.394C-298.679 220.394 -250.459 211.147 -211.772 195.734C-173.084 180.322 -100.4 167.993 -100.4 167.993C-100.4 167.993 -92.1936 152.581 -68.7468 147.957C-54.0587 145.131 -39.1533 143.584 -24.198 143.333C-24.198 143.333 -26.5427 139.48 -0.751221 136.398C25.0403 133.315 52.004 129.462 66.0721 125.609C80.1402 121.756 107.104 120.986 107.104 120.986L134.068 124.068C134.068 124.068 165.721 110.197 178.617 107.115C191.512 104.032 216.131 87.8494 216.131 87.8494L221.993 86.3082C221.993 86.3082 239.578 88.6201 244.268 87.0788C248.957 85.5375 266.542 73.9788 270.059 73.2079C273.576 72.437 322.814 87.8494 333.365 96.3261C343.916 104.803 350.95 104.803 353.295 105.574C356.095 106.716 358.834 108.002 361.502 109.426C361.502 109.426 370.88 109.426 373.225 110.968C375.57 112.509 385.966 123.459 393 125C400.034 126.541 413.085 132.839 418.946 134.38C424.808 135.921 431.842 135.921 436.531 138.233C441.221 140.545 444.738 144.398 452.944 146.71C461.15 149.021 476.391 154.416 476.391 154.416C476.391 154.416 589.761 157.204 600.312 157.975C610.863 158.746 629.62 163.369 634.31 164.14C638.276 164.93 642.191 165.959 646.033 167.222L651.895 170.305L660.101 168.764C660.101 168.764 722.582 145.645 736.65 138.71C744.898 134.643 748.714 130.577 750.459 127.908C751.086 126.944 751.93 126.139 752.923 125.557C753.916 124.976 755.03 124.633 756.179 124.557L763.614 124.068C763.614 124.068 768.303 116.362 783.544 109.427V100.916L790.578 94.0144C790.578 94.0144 872.641 42.3836 930.086 24.6596H964.973C964.973 24.6596 965.256 23.889 971.118 23.1184C976.979 22.3478 984.013 24.6596 986.358 23.889C988.702 23.1184 991.047 20.8065 1002.77 21.5772C1014.49 22.3479 1027.39 17.7241 1032.08 17.7241C1036.77 17.7241 1052.34 16.9535 1054.52 17.7241C1056.7 18.4947 1071.94 17.7241 1071.94 17.7241C1071.94 17.7241 1095.39 10.7886 1102.42 5.3941C1109.45 -0.00039959 1114.14 0 1114.14 0H1120.61L1236 46C1236 46 1258.34 40.0717 1263.03 39.3011C1267.72 38.5305 1285.3 40.0717 1289.99 38.5305L1301.72 34.6774C1301.72 34.6774 1301.72 35.448 1309.92 34.6774C1318.13 33.9068 1335.71 26.9713 1335.71 26.9713C1335.71 26.9713 1379.09 43.1541 1390.81 44.6953C1397.16 45.4488 1403.44 46.7378 1409.57 48.5484C1409.57 48.5484 1410.74 51.6308 1413.09 51.6308C1415.43 51.6308 1428.33 53.172 1428.33 53.172L1429.5 54.7132C1429.5 54.7132 1438.88 56.2545 1440.05 57.7957C1441.23 59.3369 1448.26 70.8957 1448.26 74.7491C1448.26 74.7491 1470.87 69.1346 1476.56 68.8591C1482.26 68.5836 1493.98 71.6664 1501.01 72.437C1508.05 73.2076 1517.43 77.0606 1517.43 77.0606C1522.13 76.6441 1526.87 76.9036 1531.5 77.8312L1542.05 84.7667C1542.05 84.7667 1543.22 87.8491 1544.39 88.6198C1545.56 89.3905 1593.63 91.7022 1597.15 93.2434C1600.66 94.7846 1622.94 94.014 1626.45 92.4728C1629.97 90.9316 1638.18 89.3904 1638.18 89.3904C1638.18 89.3904 1648.73 77.8312 1663.97 75.5194C1679.21 73.2076 1686.24 72.437 1686.24 72.437L1696.79 73.2076L1731.96 71.6664L1761.27 74.7488L1767.14 77.8312C1767.14 77.8312 1799.96 75.5194 1828.1 87.8491C1856.23 100.179 1855.06 107.114 1855.06 107.114C1855.06 107.114 1872.65 114.05 1882.02 120.214C1891.4 126.379 1919.54 132.544 1919.54 132.544L1924.23 135.627C1924.23 135.627 1937.12 137.168 1939.47 137.168C1941.81 137.168 1951.19 141.021 1951.19 141.021H1958.23L1962.92 137.939C1962.92 137.939 1991.05 144.104 1995.74 148.727L2005.12 149.498C2005.12 149.498 2026.22 163.369 2037.94 164.91C2049.67 166.451 2064.91 167.222 2064.91 167.222L2077.8 169.534C2077.8 169.534 2149.32 164.91 2164.56 155.663C2164.56 155.663 2191.52 154.121 2202.07 156.433C2212.62 158.745 2238.41 157.204 2238.41 157.204C2238.41 157.204 2247.79 151.039 2257.17 151.81C2263.82 152.199 2270.5 151.941 2277.1 151.039L2298.2 141.792L2312.27 141.021C2312.27 141.021 2343.93 127.15 2345.1 127.15L2357.99 130.232C2357.99 130.232 2375.58 127.15 2375.58 126.38C2376.24 124.029 2377.02 121.715 2377.92 119.444C2377.92 119.444 2397.85 117.903 2406.06 114.82C2414.27 111.738 2430.68 109.426 2430.68 108.656C2430.68 107.885 2444.75 103.261 2449.44 103.261C2453.02 103.428 2456.57 104.04 2460 105.082V435H-540L-539.846 234.443Z" fill="#7FB9D3"/>
</svg>
