<svg width="1920" height="294" viewBox="0 0 1920 294" fill="none" xmlns="http://www.w3.org/2000/svg">
<path d="M-540 147.419C-457 136.53 -330 146.581 -278 136.53C-206.536 122.716 -196.684 133.61 -165.031 115.519C-133.377 97.4285 -148 90.3072 -91.1732 81.4258C32.4468 62.1058 -36.0732 59.8566 81.1612 50.8114C198.396 41.7662 110.47 56.3776 223.015 37.5914C335.559 18.8052 298.045 6.977 409.417 22.2842C520.79 37.5914 494.998 46.6366 536.03 52.2029C577.062 57.7692 628.645 78.6429 628.645 78.6429L643.449 75.7142C647.704 74.8724 651.195 72.6476 652.474 69.7054C654.193 65.751 663.77 59.8477 702.503 56.3778C764.637 50.8116 891.443 13.2699 959.929 6.2968C1028.41 -0.6763 1047.17 0.0195024 1047.17 0.0195024C1047.17 0.0195024 1116.34 12.5435 1157.37 14.6309C1198.4 16.7183 1252.33 24.3718 1252.33 24.3718C1252.33 24.3718 1240.61 25.7634 1305.09 31.3297C1369.57 36.896 1364.88 43.8538 1395.36 43.8538C1395.36 43.8538 1436.39 50.8116 1441.08 57.0738L1443.99 58.2265C1445.76 58.9245 1447 61.1457 1448 62.8209C1448.85 64.2403 1447.65 65.7349 1456.32 68.9021C1471.56 74.4684 1524.31 79.3389 1563 86.9921C1601.69 94.6453 1675.55 93.2541 1687.27 91.8621C1698.99 90.4701 1817.4 54.29 1822.09 54.29C1826.78 54.29 1868.86 62.4129 1904.15 66.8141C1931 70.1614 1936.98 70.293 1936.98 70.293C1936.98 70.293 1945.42 76.162 1976.96 77.7501C2008.49 79.3382 2014.35 75.1635 2014.35 75.1635C2014.35 75.1635 2022.31 71.1963 2027 71.1963C2031.69 71.1963 2041.32 70.7318 2041.32 70.7318C2041.32 70.7318 2053.79 66.0418 2062 69.5211C2070.21 73.0004 2160.49 65.4749 2232 66.1706C2292.85 66.7627 2322.83 62.3069 2329.24 58.4143C2330.52 57.6701 2331.97 57.246 2333.45 57.178L2377.78 54.547C2377.78 54.547 2402.4 47.5891 2403.57 42.7187C2403.57 42.7187 2428.19 35.0651 2430.54 35.0651C2432.88 35.0651 2451.78 30.5457 2460 35.1792C2459.99 40.9825 2460 294 2460 294H-540V147.419Z" fill="#4F91B3"/>
<path d="M-540 147.419C-457 136.53 -330 146.581 -278 136.53C-206.536 122.716 -196.684 133.61 -165.031 115.519C-133.377 97.4285 -148 90.3072 -91.1732 81.4258C32.4468 62.1058 -36.0732 59.8566 81.1612 50.8114C198.396 41.7662 110.47 56.3776 223.015 37.5914C335.559 18.8052 298.045 6.977 409.417 22.2842C520.79 37.5914 494.998 46.6366 536.03 52.2029C577.062 57.7692 628.645 78.6429 628.645 78.6429L643.449 75.7142C647.704 74.8724 651.195 72.6476 652.474 69.7054C654.193 65.751 663.77 59.8477 702.503 56.3778C764.637 50.8116 891.443 13.2699 959.929 6.2968C1028.41 -0.6763 1047.17 0.0195024 1047.17 0.0195024C1047.17 0.0195024 1116.34 12.5435 1157.37 14.6309C1198.4 16.7183 1252.33 24.3718 1252.33 24.3718C1252.33 24.3718 1240.61 25.7634 1305.09 31.3297C1369.57 36.896 1364.88 43.8538 1395.36 43.8538C1395.36 43.8538 1436.39 50.8116 1441.08 57.0738L1443.99 58.2265C1445.76 58.9245 1447 61.1457 1448 62.8209C1448.85 64.2403 1447.65 65.7349 1456.32 68.9021C1471.56 74.4684 1524.31 79.3389 1563 86.9921C1601.69 94.6453 1675.55 93.2541 1687.27 91.8621C1698.99 90.4701 1817.4 54.29 1822.09 54.29C1826.78 54.29 1868.86 62.4129 1904.15 66.8141C1931 70.1614 1936.98 70.293 1936.98 70.293C1936.98 70.293 1945.42 76.162 1976.96 77.7501C2008.49 79.3382 2014.35 75.1635 2014.35 75.1635C2014.35 75.1635 2022.31 71.1963 2027 71.1963C2031.69 71.1963 2041.32 70.7318 2041.32 70.7318C2041.32 70.7318 2053.79 66.0418 2062 69.5211C2070.21 73.0004 2160.49 65.4749 2232 66.1706C2292.85 66.7627 2322.83 62.3069 2329.24 58.4143C2330.52 57.6701 2331.97 57.246 2333.45 57.178L2377.78 54.547C2377.78 54.547 2402.4 47.5891 2403.57 42.7187C2403.57 42.7187 2428.19 35.0651 2430.54 35.0651C2432.88 35.0651 2451.78 30.5457 2460 35.1792C2459.99 40.9825 2460 294 2460 294H-540V147.419Z" fill="#4F91B3"/>
</svg>
