<?xml version="1.0" encoding="utf-8"?>
<!-- Generator: Adobe Illustrator 25.4.1, SVG Export Plug-In . SVG Version: 6.00 Build 0)  -->
<svg version="1.1" id="Layer_1" xmlns="http://www.w3.org/2000/svg" xmlns:xlink="http://www.w3.org/1999/xlink" x="0px" y="0px"
	 viewBox="0 0 1000 1000" style="enable-background:new 0 0 1000 1000;" xml:space="preserve">
<style type="text/css">
	.st0{display:none;}
	.st1{display:inline;}
	.st2{fill:#242424;}
</style>
<g id="Layer_2_00000067933529031254337550000011204970546061787058_" class="st0">
	<rect y="0" class="st1" width="1000" height="1000"/>
</g>
<g id="Layer_1_00000141447207235912296650000011644906684533079435_" class="st0">
</g>
<g id="Layer_3">
</g>
<g id="Layer_4">
	<path class="st2" d="M617.4,520.6c1.2,171.9,124.8,296.7,124.8,296.7l-368.5,51.8c0,0-12.2-65.1-15.3-78.5
		c-2.5-10.6-16.5-12.9-25.5-13.9c-1-0.1-2-0.2-2.9,0c-1.9,0.3-3.7,2.1-5.3,3c-2,1.2-4.1,2.4-6.2,3.5c-16.1,8.4-35.5,13.6-53.6,9.1
		c-10.4-2.6-22.3-9.9-21.9-22c-0.1,1.9-3.6,4.6-4.9,5.6c-2.5,1.9-5.4,3.4-8.4,4.6c-7.7,3.2-16.7,5.4-25,5.9c-4.6,0.3-9-0.5-13.5-1.4
		c-14.3-2.9-28.3-8.3-39.8-17.4c-11-8.6-19.2-20.1-24.6-32.8c-3-7.1-5.2-14.6-6.7-22.1c-1.7-8.2-3.2-17.2-3-25.5
		c0.3-12.1,1.4-24.3,4.2-36.1c3.1-12.7,8.4-24.8,16-35.5c9.3-13.1,21.7-23.7,35.1-32.3c8.6-5.6,17.7-10.3,27-14.6
		c4.9-2.2,9.8-4.5,15.1-6c5.3-1.4,10.7-2.4,16-3.6c19.2-4.6,37.8-11.4,55.2-20.7c8.8-4.7,17.3-10.1,25.3-16c4.1-3,8.1-6.2,12-9.5
		c0.1-0.1,0.1-0.1,0.2-0.2c2-1.8,3.9-3.7,5.8-5.6c1.1-1,2.2-2.1,3.4-3.1c0.6-0.5,1.2-1.1,1.9-1.5c-0.6-0.5-1.4-0.8-2.1-1.1
		c-0.7-0.4-1.4-0.7-2.1-1.1c-1.1-0.6-2.2-1.1-3.2-1.7c-1.3-0.7-2.7-1.4-4-2.1c-1.6-0.8-3.2-1.6-4.8-2.4c-1.8-0.9-3.6-1.8-5.4-2.8
		c-2-1-4-2.1-6-3.1c-2.2-1.1-4.4-2.2-6.6-3.4c-2.4-1.2-4.7-2.4-7.1-3.6c-2.5-1.3-5-2.6-7.5-3.9c-2.6-1.3-5.2-2.7-7.9-4l-8.2-4.2
		c-2.8-1.4-5.6-2.9-8.4-4.3c-2.9-1.5-5.7-2.9-8.6-4.4c-2.9-1.5-5.8-3-8.7-4.5s-5.9-3-8.8-4.5c-2.9-1.5-5.9-3-8.8-4.5
		c-2.9-1.5-5.8-3-8.7-4.5s-5.7-2.9-8.6-4.4c-2.8-1.4-5.6-2.9-8.4-4.3c-2.7-1.4-5.5-2.8-8.2-4.2c-2.6-1.4-5.3-2.7-7.9-4
		c-2.5-1.3-5-2.6-7.5-3.9c-2.4-1.2-4.7-2.4-7.1-3.6c-2.2-1.1-4.4-2.3-6.6-3.4c-2-1-4-2.1-6.1-3.1c-1.8-0.9-3.6-1.9-5.4-2.8
		c-1.6-0.8-3.2-1.6-4.8-2.5c-1.4-0.7-2.7-1.4-4-2.1c-1.1-0.6-2.2-1.1-3.3-1.7c-0.8-0.4-1.6-0.8-2.4-1.2c-0.5-0.3-1-0.5-1.5-0.8
		c-0.2-0.1-0.3-0.2-0.5-0.3c-36.3-26.9-50.6-102.6-42.5-228.6c1.2-18.7,15.7-33.9,34.3-36.1c23.2-2.7,44,14.7,45.3,38.1l5.9,106.2
		c0.8,10,8.1,18.3,17.9,20.5l2.3,0.5c6,1.3,11.9-3,12.4-9.1l7-82.2c1.3-14.8,13.7-26.2,28.5-26.2c17.1,0,31.1,13.5,31.8,30.6
		c1.3,31.5,3.2,79.2,4.1,101.2c0.3,6.9,5.5,12.5,12.4,13.3h0.2c3.9,0.5,7.4-2.4,7.6-6.4l3.6-63.8c0.7-12.8,11.8-23.6,24.7-24h1.5
		c13.7-0.4,24.4,10.5,23.8,24.2c-3.4,81,5.6,134.5,70.7,158.8c1.2,0.4,4.3-0.6,5.6-0.8c2.2-0.3,4.3-0.6,6.5-0.9
		c4.9-0.7,9.8-1.4,14.7-2.1c11.2-1.6,22.6-3.9,34-4.2c16.5-0.4,33.5,2.9,48.8,9.2c7.8,3.2,16.5,3.3,24.3,0.1
		c82.5-34.7,83.6-83.9,79.7-163.4c-0.6-11.6,7.7-21.8,19.2-23.7h0.1c15.3-2.4,29.7,7.7,32.5,22.9c0,0,1.7,42.4,2.4,61.1
		c0.2,4.7,4.3,8.2,9,7.7h0.2c6-0.7,10.7-5.7,10.9-11.8l4.3-101c0.3-6.6,2.9-12.6,7-17.3c4.2-4.6,9.9-7.9,16.4-8.9
		c0.6-0.1,1.2-0.2,1.8-0.2c19.1-1.9,35.4,13.7,35.5,32.8c0.3,61.2,7.1,92.5,22.7,82.8c19-2.8,22.9-53.9,20.3-119.4
		c-1-24.5,16.1-47.2,40.6-49h1.5c17.7,0,34.3,14.4,36.9,31.9C948.7,476.8,782.2,406.5,617.4,520.6z"/>
</g>
</svg>
