<svg width="70" height="63" viewBox="0 0 70 63" fill="none" xmlns="http://www.w3.org/2000/svg">
<path d="M44.8667 33.0422C44.9676 47.6211 55.3564 58.2055 55.3564 58.2055L24.3832 62.5986C24.3832 62.5986 23.3578 57.0775 23.0972 55.941C22.8871 55.042 21.7103 54.847 20.9539 54.7622C20.8698 54.7537 20.7858 54.7452 20.7101 54.7622C20.5504 54.7876 20.3991 54.9403 20.2646 55.0166C20.0965 55.1184 19.92 55.2201 19.7435 55.3134C18.3903 56.0258 16.7597 56.4668 15.2383 56.0852C14.3642 55.8647 13.364 55.2456 13.3976 54.2194C13.3892 54.3805 13.095 54.6095 12.9857 54.6943C12.7756 54.8554 12.5318 54.9827 12.2797 55.0844C11.6325 55.3558 10.876 55.5424 10.1784 55.5848C9.79174 55.6103 9.42191 55.5424 9.04368 55.4661C7.84173 55.2201 6.665 54.7622 5.6984 53.9904C4.77382 53.261 4.0846 52.2857 3.63072 51.2086C3.37856 50.6064 3.19364 49.9704 3.06757 49.3343C2.92468 48.6388 2.7986 47.8755 2.81541 47.1716C2.84063 46.1454 2.93308 45.1107 3.16843 44.11C3.42899 43.0329 3.87447 42.0067 4.51326 41.0992C5.29495 39.9882 6.3372 39.0892 7.46349 38.3598C8.18634 37.8849 8.95122 37.4863 9.7329 37.1216C10.1448 36.935 10.5566 36.7399 11.0021 36.6127C11.4476 36.494 11.9015 36.4092 12.3469 36.3074C13.9607 35.9173 15.5241 35.3405 16.9866 34.5518C17.7263 34.1532 18.4407 33.6952 19.1131 33.1948C19.4577 32.9404 19.7939 32.669 20.1218 32.3891C20.1302 32.3807 20.1302 32.3807 20.1386 32.3722C20.3067 32.2195 20.4664 32.0584 20.6261 31.8972C20.7185 31.8124 20.811 31.7191 20.9118 31.6343C20.9623 31.5919 21.0127 31.541 21.0715 31.5071C21.0211 31.4647 20.9539 31.4393 20.895 31.4138C20.8362 31.3799 20.7774 31.3545 20.7185 31.3205C20.6261 31.2696 20.5336 31.2272 20.4496 31.1763C20.3403 31.117 20.2226 31.0576 20.1133 30.9982C19.9789 30.9304 19.8444 30.8626 19.7099 30.7947C19.5586 30.7184 19.4073 30.642 19.256 30.5572C19.0879 30.4724 18.9198 30.3791 18.7517 30.2943C18.5668 30.201 18.3819 30.1077 18.197 30.006C17.9952 29.9042 17.8019 29.8024 17.6002 29.7006C17.3901 29.5904 17.1799 29.4801 16.9698 29.3699C16.7513 29.2596 16.5327 29.1409 16.3058 29.0306L15.6166 28.6744C15.3812 28.5557 15.1459 28.4285 14.9105 28.3098C14.6668 28.1825 14.4314 28.0638 14.1877 27.9366C13.9439 27.8094 13.7002 27.6822 13.4564 27.5549C13.2127 27.4277 12.9605 27.3005 12.7168 27.1733C12.473 27.0461 12.2208 26.9189 11.9771 26.7916C11.7333 26.6644 11.4896 26.5372 11.2458 26.41C11.0021 26.2828 10.7667 26.164 10.523 26.0368C10.2876 25.9181 10.0523 25.7909 9.81695 25.6721C9.59001 25.5534 9.35467 25.4347 9.12773 25.3159C8.90919 25.1972 8.68225 25.087 8.46372 24.9767C8.25359 24.8664 8.04346 24.7562 7.83332 24.6459C7.6316 24.5442 7.43828 24.4424 7.23655 24.3406C7.05164 24.2473 6.86672 24.1456 6.68181 24.0523C6.51371 23.9675 6.3456 23.8742 6.16909 23.7894C6.0178 23.713 5.8665 23.6282 5.71521 23.5519C5.58073 23.484 5.44624 23.4162 5.31176 23.3399C5.19409 23.2805 5.08482 23.2211 4.97555 23.1618C4.88309 23.1109 4.79064 23.0685 4.69818 23.0176C4.63094 22.9837 4.5637 22.9497 4.49645 22.9158C4.45443 22.8904 4.4124 22.8734 4.37038 22.848C4.35356 22.8395 4.34516 22.831 4.32835 22.8225C1.27726 20.5411 0.0753083 14.121 0.756131 3.43483C0.856994 1.84887 2.07575 0.559749 3.63912 0.373166C5.58913 0.144177 7.33742 1.61988 7.44668 3.60445L7.94259 12.6113C8.00983 13.4594 8.62341 14.1634 9.44713 14.3499L9.64045 14.3923C10.1448 14.5026 10.6407 14.1379 10.6827 13.6206L11.2711 6.64914C11.3803 5.39395 12.4226 4.42711 13.6665 4.42711C15.1038 4.42711 16.2806 5.57205 16.3394 7.02231C16.4487 9.69384 16.6084 13.7393 16.684 15.6051C16.7092 16.1903 17.1463 16.6653 17.7263 16.7331H17.7431C18.0709 16.7755 18.3651 16.5296 18.3819 16.1903L18.6845 10.7794C18.7433 9.69384 19.6763 8.77789 20.7605 8.74397H20.8866C22.0381 8.71004 22.9375 9.63447 22.8871 10.7964C22.6013 17.666 23.3578 22.2034 28.8296 24.2643C28.9304 24.2982 29.191 24.2134 29.3003 24.1964C29.4852 24.171 29.6617 24.1456 29.8466 24.1201C30.2584 24.0607 30.6703 24.0014 31.0822 23.942C32.0235 23.8063 32.9817 23.6113 33.9399 23.5858C35.3268 23.5519 36.7557 23.8318 38.0417 24.3661C38.6973 24.6375 39.4285 24.6459 40.0841 24.3745C47.0184 21.4316 47.1109 17.2589 46.7831 10.5165C46.7327 9.5327 47.4303 8.66764 48.3969 8.5065H48.4053C49.6913 8.30295 50.9017 9.15954 51.137 10.4487C51.137 10.4487 51.2799 14.0446 51.3387 15.6306C51.3555 16.0292 51.7002 16.326 52.0952 16.2836H52.112C52.6163 16.2243 53.0114 15.8002 53.0282 15.2829L53.3896 6.71699C53.4148 6.15724 53.6334 5.64838 53.978 5.24977C54.331 4.85964 54.8101 4.57977 55.3564 4.49496C55.4069 4.48648 55.4573 4.478 55.5077 4.478C57.1131 4.31686 58.4832 5.6399 58.4916 7.25978C58.5168 12.4502 59.0883 15.1048 60.3996 14.2821C61.9965 14.0446 62.3244 9.71081 62.1058 4.15572C62.0218 2.07786 63.459 0.152659 65.5183 0H65.6444C67.1321 0 68.5274 1.22127 68.7459 2.70546C72.7132 29.3275 58.7185 23.3653 44.8667 33.0422Z" fill="#4582C3"/>
</svg>
