<svg xmlns="http://www.w3.org/2000/svg" viewBox="0 0 3000 404.06"><defs><style>.cls-1{fill:#171c28;}</style></defs><g id="Layer_2" data-name="Layer 2"><g id="Layer_4" data-name="Layer 4"><path class="cls-1" d="M0,76.91s180,78.92,240,58.83S342-.57,430,21s72.5,111.2,98,117.65,59-67.43,120-37.3,64.5,94,116,97.57,167,61.69,310,155,247-81.79,283-58.83c87,47.35,150-17.22,261,45.91s254-96.13,343-96.13,166,104.74,245,68.87-2-123.39,99-188,118,80.35,231-15.78,85-136.31,139-91.83,86,146.35,115,117.65,126,8.61,210-40.17V404.06H0Z"/></g></g></svg>