<svg xmlns="http://www.w3.org/2000/svg" viewBox="0 0 3001 444.72"><defs><style>.cls-1{fill:#182e47;}</style></defs><g id="Layer_2" data-name="Layer 2"><g id="Layer_4" data-name="Layer 4"><path class="cls-1" d="M0,26.72s44-101.4,198,90.86S378,11.41,519,15.71s66,113.35,148,123.4S751,1.36,823,90.32s78,5.74,232,119.09,95,1.44,133,111.92c0,0,27-2.87,79,24.39s118-20.09,145-15.78,132,23,159-18.66,138-83.22,163-68.87,134,38.74,153,24.4,83-41.61,160-24.4,46-127.7,135-27.26,34-132,208-122,82-192.27,204-15.78,209,24.39,209,24.39,162,23.1,197-83.08l1,426H0Z"/></g></g></svg>