<svg xmlns="http://www.w3.org/2000/svg" viewBox="0 0 3000 528.73"><defs><style>.cls-1{fill:#2a5776;}</style></defs><g id="Layer_2" data-name="Layer 2"><g id="Layer_4" data-name="Layer 4"><path class="cls-1" d="M0,11.66C3,5.6,30.93,143.19,84.07,96.1c17.21-15.25,35.79-19,53.31-15.35,1.62,40.9,30,12.11,42.1,24-15.48,32.47,31.24,42.7,32.77,64.52,4.18,59.46,75-2.81,104.75-75.95,20.67-50.84,21.68-13,37-35,0,0,8-6.66,11-15s4,15,4,15,19,1.66,13,10,9,8.6,10,8.33S396,60,420,35s15-23.6,26-25c10.65-1.34,8-10,10-10s17.65,23.56,26,35c5.75,7.87,38-14.42,39-15s7,13.32,13,5,22,21.65,22,21.65,44,48.3,61,30L622,75s8,31.64,12,25c0,0,13,18.32,12,21.65s3,3.34,6,0,9,16.66,16,18.33,17-6.67,22-16.66,4,1.67,9-8.33,18,15,18,15,13-13.32,11-20,32-40,34-53.3,15,18.33,15,10,15,35,27,23.32,33,65,41,26.65,37-10,31-63.3c0,0,17-1.66,18-16.66s18,70,18,70,2,38.31,11,16.66,60,138.25,106,90c8-15,12,6.66,22,15s54,78.28,58,65,43-8.33,43-31.65,64,134.92,48,144.91,45-15,56-51.63,17-5,27-26.65,16,46.64,16,46.64a127,127,0,0,1,12,13.32c5,6.66,14-5,19-15s21,13.33,26,16.66,22,23.32,22,18.32,50-16.66,53-30,41-10,41-10,12,43.31,6,45,66-33.32,63-55,23-1.67,30-25,12,6.67,14-13.32,28,38.31,27-6.66,59,11.66,61,3.33,1-36.65,6-40,9-15.27,15-20,93,58.3,91,80,34-38.31,57-51.64,26-16.66,36-26.65,11.2,8.56,16,15c5,6.71,19.81,8.57,23,15,4.61,9.3,21.33,22.57,24,23.32,4.37,1.23,92-8.33,108-41.64s-3-16.66,30-28.32,20-28.31,30-45c3-7.32,3-3.33,10-3.33s68,71.62,103,30S2326,88.28,2372,98.27s39.78,26.07,60.39,19.7S2448,65,2466,83.28,2531-5,2558,11.66s35,35,55,23.32-6.42,41.82,5.79,50.06S2708,153.24,2729,121.59s34,50,56,28.32,38-41.64,46-35,9-11.66,18-10-5-13.33,19-1.67,22,26.65,33,15,23-3.33,26-11.66,4-25,31-20,27-60,42-66.62V528.73H0Z"/></g></g></svg>