<?xml version="1.0" encoding="utf-8"?>
<!-- Generator: Adobe Illustrator 24.2.1, SVG Export Plug-In . SVG Version: 6.00 Build 0)  -->
<svg version="1.1" id="Layer_1" xmlns="http://www.w3.org/2000/svg" xmlns:xlink="http://www.w3.org/1999/xlink" x="0px" y="0px"
	 viewBox="0 0 1728 468" style="enable-background:new 0 0 1728 468;" xml:space="preserve">
<style type="text/css">
	.st0{fill:url(#SVGID_1_);}
	.st1{fill:url(#SVGID_2_);}
	.st2{fill:#FAFAFA;}
	.st3{fill:#5568E5;}
</style>
<linearGradient id="SVGID_1_" gradientUnits="userSpaceOnUse" x1="415.2309" y1="436.0394" x2="113.4682" y2="176.2199" gradientTransform="matrix(1 0 0 -1 0 507.8936)">
	<stop  offset="0" style="stop-color:#7284DD"/>
	<stop  offset="0.5991" style="stop-color:#5568E5"/>
	<stop  offset="0.7284" style="stop-color:#5366E2"/>
	<stop  offset="0.8083" style="stop-color:#4D61DA"/>
	<stop  offset="0.8747" style="stop-color:#4259CB"/>
	<stop  offset="0.9335" style="stop-color:#334DB7"/>
	<stop  offset="0.9622" style="stop-color:#2945AA"/>
</linearGradient>
<path class="st0" d="M466.5,199.1c0,110-89.1,199.1-199.1,199.1c-41.9,0-80.8-13-112.9-35.1c-26.1-18-47.7-42.1-62.8-70.2
	c-15-27.9-23.4-59.9-23.4-93.8C68.3,89.1,157.5,0,267.4,0S466.5,89.1,466.5,199.1z"/>
<linearGradient id="SVGID_2_" gradientUnits="userSpaceOnUse" x1="30.6302" y1="77.4074" x2="142.396" y2="182.8492" gradientTransform="matrix(1 0 0 -1 0 507.8936)">
	<stop  offset="0.2396" style="stop-color:#5568E5"/>
	<stop  offset="0.538" style="stop-color:#5467E3"/>
	<stop  offset="0.6455" style="stop-color:#4F63DC"/>
	<stop  offset="0.7221" style="stop-color:#465CD1"/>
	<stop  offset="0.7836" style="stop-color:#3952C0"/>
	<stop  offset="0.8364" style="stop-color:#2945AA"/>
</linearGradient>
<path class="st1" d="M141.2,418.9L141.2,418.9L141.2,418.9c-2.3-1.5-4.9-2.6-7.6-3.3c-7.7-3.6-16.5-8.3-25.6-14.7
	c-10.6-7.4-18.9-15.1-25.1-21.8c0,0,0,0-0.1-0.1c-6.2-6.7-13.8-16.1-20.4-28.6c-4.8-9.1-7.7-17.3-10-24.4c-0.3-1-0.6-2-0.9-2.9
	c0,0,0,0,0-0.1l0,0C47.7,313,38,305.8,26.6,305.8C11.9,305.8,0,317.7,0,332.4c0,3.3,0.6,6.5,1.7,9.4l0,0c3.1,10.4,8,23.1,15.6,36.8
	c8.6,15.5,18.1,27.5,26.1,36.2c0,0,0,0,0,0l0,0c7.9,9,19.1,20.1,34.2,30.5c14,9.7,27.2,16,37.8,20.1c0,0,0-0.1,0.1-0.1
	c3.5,1.7,7.4,2.6,11.5,2.6c14.7,0,26.6-11.9,26.6-26.6C153.7,431.9,148.7,423.7,141.2,418.9z"/>
<path class="st2" d="M379.5,210.8L379.5,210.8L379.5,210.8c-0.7-2.7-1.1-5.4-0.9-8.3c-1.2-8.5-3.2-18.2-6.7-28.8
	c-4.1-12.2-9.1-22.4-13.6-30.3c0,0,0-0.1-0.1-0.1c-4.6-7.9-11.5-17.8-21.5-27.8c-7.3-7.2-14.3-12.4-20.5-16.6
	c-0.9-0.5-1.7-1.1-2.5-1.7c0,0,0,0,0,0l0,0c-8.5-6.5-12.6-17.9-9.3-28.8c4.2-14.1,19-22,33.1-17.8c3.2,0.9,6,2.4,8.5,4.4l0,0
	c9.1,6,19.8,14.3,30.8,25.6c12.4,12.7,21.1,25.3,27.1,35.4c0,0,0,0,0,0l0,0c6.4,10.1,13.7,24.1,19.4,41.5c5.2,16.2,7.5,30.6,8.4,42
	c0,0-0.1,0-0.2,0c0.6,3.8,0.4,7.9-0.8,11.8c-4.2,14.1-19,22-33.1,17.8C388.4,226.4,381.9,219.3,379.5,210.8z"/>
<g>
	<path class="st3" d="M717.4,176.6v122.4c0,14-1.5,26-4.5,36.1c-3,10.1-7.8,18.4-14.3,25c-6.6,6.6-15.2,11.5-25.9,14.7
		c-10.7,3.2-23.9,4.8-39.7,4.8c-14.5,0-27.5-2-38.9-6.1c-11.4-4.1-20.2-9.3-26.4-15.7c-6.2-6.4-9.3-13-9.3-19.8
		c0-5.2,1.8-9.3,5.2-12.6c3.5-3.2,7.7-4.9,12.7-4.9c6.2,0,11.6,2.7,16.2,8.2c2.3,2.8,4.6,5.6,7,8.4c2.4,2.8,5.1,5.2,8,7.3
		s6.4,3.5,10.6,4.5c4.1,1,8.9,1.5,14.2,1.5c10.9,0,19.4-1.5,25.4-4.6c6-3,10.2-7.3,12.7-12.7c2.4-5.5,3.8-11.3,4.3-17.5
		c0.4-6.2,0.7-16.2,0.9-30c-6.5,9.1-14,15.9-22.5,20.7c-8.5,4.7-18.6,7.1-30.3,7.1c-14.1,0-26.4-3.6-37-10.8s-18.6-17.3-24.3-30.2
		c-5.7-13-8.5-27.9-8.5-44.9c0-12.7,1.7-24.1,5.2-34.3s8.4-18.8,14.7-25.8c6.4-7,13.7-12.3,22.1-15.8s17.5-5.3,27.5-5.3
		c11.9,0,22.3,2.3,31,6.9c8.7,4.6,16.9,11.8,24.4,21.5v-5.7c0-7.3,1.8-13,5.4-17c3.6-4,8.2-6,13.9-6c8.1,0,13.5,2.7,16.2,7.9
		C716,158.9,717.4,166.6,717.4,176.6z M595.3,230c0,17.1,3.7,30,11.2,38.7c7.5,8.7,17.1,13.1,28.9,13.1c7,0,13.6-1.9,19.8-5.6
		c6.2-3.8,11.3-9.4,15.2-17c3.9-7.6,5.9-16.8,5.9-27.5c0-17.2-3.8-30.6-11.3-40.1c-7.6-9.6-17.5-14.3-29.9-14.3
		c-12,0-21.7,4.6-28.9,13.7C598.9,200.1,595.3,213.1,595.3,230z"/>
	<path class="st3" d="M755.8,291.4V108.7c0-8.4,1.9-14.8,5.6-19.1c3.8-4.3,8.8-6.5,15.2-6.5c6.4,0,11.5,2.1,15.4,6.4
		c3.9,4.3,5.9,10.7,5.9,19.2v182.7c0,8.5-2,15-5.9,19.2c-4,4.3-9.1,6.4-15.4,6.4c-6.2,0-11.2-2.2-15-6.6
		C757.7,305.9,755.8,299.6,755.8,291.4z"/>
	<path class="st3" d="M862.8,126.1c-5.9,0-10.9-1.8-15-5.4c-4.2-3.6-6.3-8.7-6.3-15.3c0-6,2.1-10.9,6.4-14.7
		c4.3-3.9,9.2-5.8,14.9-5.8c5.5,0,10.3,1.8,14.5,5.2c4.2,3.5,6.3,8.6,6.3,15.3c0,6.5-2.1,11.6-6.2,15.2
		C873.3,124.3,868.4,126.1,862.8,126.1z M883.6,169.6v121.8c0,8.4-2,14.8-6,19.1c-4,4.3-9.1,6.5-15.3,6.5c-6.2,0-11.2-2.2-15-6.6
		c-3.9-4.4-5.8-10.7-5.8-19V170.8c0-8.3,1.9-14.6,5.8-18.8c3.9-4.2,8.9-6.3,15-6.3s11.3,2.1,15.3,6.3
		C881.6,156.2,883.6,162.1,883.6,169.6z"/>
	<path class="st3" d="M1067.3,234.4v56c0,8.9-2,15.5-6,19.9c-4,4.4-9.3,6.6-15.9,6.6c-6.4,0-11.6-2.2-15.5-6.6
		c-4-4.4-5.9-11.1-5.9-19.9v-67.1c0-10.6-0.4-18.8-1.1-24.7c-0.7-5.9-2.7-10.7-5.9-14.4s-8.2-5.6-15.1-5.6
		c-13.8,0-22.9,4.7-27.2,14.2c-4.4,9.5-6.6,23-6.6,40.7v57c0,8.7-2,15.4-5.9,19.8c-4,4.5-9.2,6.7-15.7,6.7c-6.4,0-11.6-2.2-15.7-6.7
		c-4.1-4.5-6.1-11.1-6.1-19.8V169.9c0-7.9,1.8-13.9,5.5-18.1c3.7-4.1,8.5-6.2,14.4-6.2c5.8,0,10.6,1.9,14.4,5.8
		c3.9,3.9,5.8,9.2,5.8,16v4c7.3-8.7,15.1-15.2,23.5-19.3c8.3-4.1,17.6-6.2,27.8-6.2c10.6,0,19.7,2.1,27.3,6.3
		c7.6,4.2,13.9,10.6,18.8,19.1c7.1-8.6,14.7-15,22.8-19.2c8.1-4.2,17.1-6.3,27-6.3c11.5,0,21.4,2.3,29.8,6.8
		c8.3,4.5,14.6,11,18.7,19.4c3.6,7.6,5.4,19.6,5.4,36v82.3c0,8.9-2,15.5-6,19.9c-4,4.4-9.3,6.6-15.9,6.6c-6.4,0-11.6-2.2-15.7-6.7
		c-4.1-4.5-6.1-11.1-6.1-19.8v-70.8c0-9.1-0.4-16.3-1.2-21.8c-0.8-5.5-2.9-10-6.3-13.7c-3.4-3.7-8.5-5.6-15.4-5.6
		c-5.6,0-10.8,1.6-15.8,4.9c-5,3.3-8.9,7.7-11.6,13.3C1068.8,203.9,1067.3,216.4,1067.3,234.4z"/>
	<path class="st3" d="M1245.7,169.3v5.1c7.9-9.8,16.2-17,24.7-21.5c8.5-4.6,18.2-6.9,29-6.9c13,0,24.9,3.4,35.8,10
		c10.9,6.7,19.5,16.5,25.9,29.3c6.3,12.9,9.5,28.1,9.5,45.7c0,13-1.8,24.9-5.5,35.7s-8.7,20-15,27.3c-6.4,7.4-13.9,13-22.6,17
		c-8.7,4-18,5.9-28,5.9c-12,0-22.1-2.4-30.3-7.3c-8.2-4.8-16-11.9-23.4-21.3v63.3c0,18.5-6.7,27.8-20.2,27.8
		c-7.9,0-13.2-2.4-15.7-7.2c-2.6-4.8-3.9-11.8-3.9-20.9V169.6c0-8,1.8-14,5.2-18c3.5-4,8.3-5.9,14.3-5.9c6,0,10.8,2,14.6,6.1
		C1243.8,155.9,1245.7,161.7,1245.7,169.3z M1328.2,230.6c0-11.1-1.7-20.7-5.1-28.6c-3.4-8-8.1-14.1-14.1-18.4
		c-6-4.3-12.7-6.4-20-6.4c-11.6,0-21.4,4.6-29.4,13.7c-8,9.2-12,22.6-12,40.4c0,16.8,4,29.8,11.9,39.1c7.9,9.3,17.7,14,29.5,14
		c7,0,13.5-2,19.4-6.1c6-4.1,10.7-10.2,14.3-18.3C1326.4,251.9,1328.2,242.1,1328.2,230.6z"/>
	<path class="st3" d="M1540,261.9c0,11.6-2.8,21.6-8.5,29.9c-5.7,8.3-14,14.6-25.1,18.8c-11.1,4.3-24.5,6.4-40.4,6.4
		c-15.1,0-28.1-2.3-38.9-6.9s-18.8-10.4-23.9-17.4c-5.2-6.9-7.7-13.9-7.7-20.9c0-4.6,1.6-8.6,4.9-11.9c3.3-3.3,7.5-4.9,12.5-4.9
		c4.4,0,7.8,1.1,10.2,3.2c2.4,2.2,4.6,5.2,6.8,9.1c4.3,7.5,9.5,13.1,15.5,16.8c6,3.7,14.2,5.6,24.6,5.6c8.4,0,15.4-1.9,20.8-5.6
		c5.4-3.8,8.1-8,8.1-12.9c0-7.4-2.8-12.8-8.4-16.2c-5.6-3.4-14.8-6.6-27.7-9.7c-14.5-3.6-26.3-7.4-35.4-11.3
		c-9.1-4-16.4-9.2-21.8-15.7c-5.5-6.5-8.2-14.5-8.2-23.9c0-8.4,2.5-16.4,7.6-23.9c5-7.5,12.5-13.5,22.3-18
		c9.8-4.5,21.7-6.7,35.6-6.7c10.9,0,20.7,1.1,29.4,3.4c8.7,2.3,15.9,5.3,21.8,9.1c5.8,3.8,10.2,8,13.3,12.7s4.6,9.2,4.6,13.6
		c0,4.8-1.6,8.8-4.9,11.9c-3.2,3.1-7.8,4.6-13.8,4.6c-4.3,0-8-1.2-11-3.7c-3-2.5-6.5-6.2-10.4-11.1c-3.2-4.1-6.9-7.4-11.3-9.9
		c-4.3-2.5-10.2-3.7-17.6-3.7c-7.6,0-13.9,1.6-19,4.9c-5,3.2-7.6,7.3-7.6,12.1c0,4.4,1.8,8,5.6,10.9c3.7,2.8,8.7,5.2,15,7
		s14.9,4.1,25.9,6.8c13.1,3.2,23.7,7,32,11.4s14.6,9.6,18.8,15.7C1537.8,247.3,1540,254.2,1540,261.9z"/>
	<path class="st3" d="M1693.2,241.7h-82.4c0.1,9.6,2,18,5.8,25.3c3.8,7.3,8.7,12.8,15,16.5c6.2,3.7,13.1,5.6,20.6,5.6
		c5,0,9.6-0.6,13.8-1.8c4.2-1.2,8.2-3,12.1-5.6c3.9-2.5,7.5-5.2,10.8-8.1c3.3-2.9,7.6-6.8,12.8-11.7c2.2-1.8,5.2-2.8,9.3-2.8
		c4.3,0,7.8,1.2,10.5,3.6c2.7,2.4,4,5.7,4,10c0,3.8-1.5,8.2-4.5,13.4c-3,5.1-7.5,10-13.5,14.7c-6,4.7-13.6,8.6-22.7,11.6
		s-19.6,4.6-31.4,4.6c-27.1,0-48.1-7.7-63.1-23.2c-15-15.4-22.5-36.4-22.5-62.8c0-12.5,1.8-24,5.6-34.6c3.7-10.6,9.1-19.8,16.2-27.4
		c7.1-7.6,15.9-13.4,26.2-17.5c10.4-4.1,21.9-6.1,34.6-6.1c16.5,0,30.6,3.5,42.4,10.4c11.8,6.9,20.6,15.9,26.5,26.9
		c5.9,11,8.8,22.2,8.8,33.6c0,10.6-3,17.5-9.1,20.6C1712.8,240.1,1704.2,241.7,1693.2,241.7z M1610.8,217.8h76.4
		c-1-14.4-4.9-25.2-11.6-32.3c-6.7-7.1-15.6-10.7-26.6-10.7c-10.5,0-19.1,3.6-25.9,10.9C1616.3,192.8,1612.3,203.6,1610.8,217.8z"/>
</g>
</svg>
