<?xml version="1.0" encoding="utf-8"?>
<!-- Generator: Adobe Illustrator 24.1.0, SVG Export Plug-In . SVG Version: 6.00 Build 0)  -->
<svg version="1.1" id="Layer_1" xmlns="http://www.w3.org/2000/svg" xmlns:xlink="http://www.w3.org/1999/xlink" x="0px" y="0px"
	 viewBox="0 0 1296 1728" style="enable-background:new 0 0 1296 1728;" xml:space="preserve">
<style type="text/css">
	.st0{fill:url(#SVGID_1_);}
	.st1{fill:url(#SVGID_2_);}
	.st2{fill:#FAFAFA;}
	.st3{fill:#5568E5;}
</style>
<linearGradient id="SVGID_1_" gradientUnits="userSpaceOnUse" x1="333.8457" y1="659.1512" x2="142.9013" y2="823.5555">
	<stop  offset="0" style="stop-color:#7284DD"/>
	<stop  offset="0.5991" style="stop-color:#5568E5"/>
	<stop  offset="0.7284" style="stop-color:#5366E2"/>
	<stop  offset="0.8083" style="stop-color:#4D61DA"/>
	<stop  offset="0.8747" style="stop-color:#4259CB"/>
	<stop  offset="0.9335" style="stop-color:#334DB7"/>
	<stop  offset="0.9622" style="stop-color:#2945AA"/>
</linearGradient>
<path class="st0" d="M366.31,739.67c0,69.58-56.4,125.98-125.98,125.98c-26.53,0-51.14-8.2-71.44-22.2
	c-16.53-11.4-30.2-26.64-39.72-44.44c-9.46-17.68-14.83-37.89-14.83-59.35c0-69.58,56.4-125.98,125.98-125.98
	S366.31,670.09,366.31,739.67z"/>
<linearGradient id="SVGID_2_" gradientUnits="userSpaceOnUse" x1="90.4855" y1="886.0788" x2="161.2065" y2="819.3594">
	<stop  offset="0.2396" style="stop-color:#5568E5"/>
	<stop  offset="0.538" style="stop-color:#5467E3"/>
	<stop  offset="0.6455" style="stop-color:#4F63DC"/>
	<stop  offset="0.7221" style="stop-color:#465CD1"/>
	<stop  offset="0.7836" style="stop-color:#3952C0"/>
	<stop  offset="0.8364" style="stop-color:#2945AA"/>
</linearGradient>
<path class="st1" d="M160.47,878.77L160.47,878.77C160.47,878.77,160.47,878.77,160.47,878.77c-1.47-0.93-3.1-1.64-4.84-2.08
	c-4.9-2.26-10.45-5.27-16.21-9.32c-6.69-4.7-11.93-9.56-15.9-13.78c-0.02-0.02-0.03-0.03-0.05-0.05
	c-3.93-4.21-8.72-10.19-12.92-18.1c-3.06-5.75-4.88-10.92-6.31-15.47c-0.16-0.63-0.35-1.25-0.57-1.86c0-0.01-0.01-0.02-0.01-0.04
	c0,0,0,0,0,0c-2.4-6.36-8.54-10.88-15.74-10.88c-9.29,0-16.82,7.53-16.82,16.82c0,2.1,0.39,4.1,1.09,5.96c0,0,0,0,0,0
	c1.98,6.59,5.09,14.64,9.89,23.31c5.44,9.82,11.46,17.4,16.52,22.89c0.01,0.01,0.01,0.01,0.02,0.02c0,0,0,0,0,0
	c4.99,5.7,12.08,12.69,21.62,19.3c8.83,6.11,17.2,10.11,23.91,12.75c0.02-0.03,0.03-0.06,0.05-0.09c2.21,1.07,4.68,1.66,7.3,1.66
	c9.29,0,16.82-7.53,16.82-16.82C168.33,887,165.19,881.75,160.47,878.77z"/>
<path class="st2" d="M311.22,747.05L311.22,747.05C311.22,747.05,311.22,747.05,311.22,747.05c-0.47-1.68-0.68-3.44-0.6-5.23
	c-0.75-5.35-2.04-11.52-4.26-18.2c-2.57-7.75-5.73-14.18-8.63-19.19c-0.01-0.02-0.02-0.04-0.04-0.06
	c-2.9-4.97-7.25-11.28-13.62-17.58c-4.63-4.58-9.06-7.82-13-10.5c-0.56-0.33-1.1-0.69-1.61-1.08c-0.01-0.01-0.02-0.01-0.03-0.02
	c0,0,0,0,0,0c-5.4-4.13-7.97-11.31-5.89-18.2c2.67-8.9,12.05-13.94,20.95-11.27c2.01,0.6,3.82,1.55,5.39,2.76c0,0,0,0,0,0
	c5.75,3.79,12.56,9.08,19.48,16.17c7.84,8.04,13.37,15.98,17.17,22.41c0,0.01,0.01,0.01,0.01,0.02c0,0,0,0,0,0
	c4.02,6.42,8.68,15.22,12.26,26.26c3.31,10.22,4.74,19.38,5.33,26.57c-0.03,0.01-0.07,0.01-0.1,0.02c0.39,2.42,0.25,4.97-0.51,7.47
	c-2.67,8.9-12.05,13.94-20.95,11.27C316.85,756.94,312.72,752.43,311.22,747.05z"/>
<g>
	<path class="st3" d="M525.03,725.4v77.44c0,8.85-0.94,16.47-2.83,22.85c-1.89,6.38-4.92,11.65-9.08,15.82
		c-4.17,4.17-9.62,7.26-16.36,9.28c-6.74,2.02-15.12,3.03-25.15,3.03c-9.18,0-17.38-1.29-24.61-3.86
		c-7.23-2.57-12.79-5.89-16.7-9.96c-3.91-4.07-5.86-8.25-5.86-12.55c0-3.26,1.11-5.91,3.32-7.96c2.21-2.05,4.88-3.08,8.01-3.08
		c3.91,0,7.32,1.72,10.25,5.18c1.43,1.76,2.91,3.53,4.44,5.32c1.53,1.79,3.22,3.32,5.08,4.59s4.08,2.21,6.69,2.83
		c2.6,0.62,5.6,0.93,8.98,0.93c6.9,0,12.26-0.96,16.06-2.88c3.81-1.92,6.48-4.61,8.01-8.06c1.53-3.45,2.42-7.15,2.69-11.08
		c0.26-3.94,0.45-10.27,0.59-18.99c-4.1,5.73-8.84,10.09-14.21,13.09c-5.37,3-11.77,4.49-19.19,4.49c-8.92,0-16.72-2.28-23.39-6.84
		c-6.67-4.56-11.8-10.94-15.38-19.14c-3.58-8.2-5.37-17.68-5.37-28.42c0-8.01,1.09-15.23,3.27-21.68
		c2.18-6.45,5.29-11.88,9.33-16.31c4.04-4.43,8.69-7.76,13.96-10.01s11.07-3.37,17.38-3.37c7.55,0,14.09,1.45,19.63,4.35
		c5.53,2.9,10.68,7.44,15.43,13.62v-3.61c0-4.62,1.14-8.2,3.42-10.74c2.28-2.54,5.21-3.81,8.79-3.81c5.14,0,8.56,1.68,10.25,5.03
		C524.18,714.25,525.03,719.08,525.03,725.4z M447.78,759.19c0,10.81,2.36,18.98,7.08,24.51c4.72,5.53,10.82,8.3,18.31,8.3
		c4.43,0,8.61-1.19,12.55-3.56c3.94-2.38,7.14-5.96,9.62-10.74c2.47-4.79,3.71-10.6,3.71-17.43c0-10.87-2.39-19.34-7.18-25.39
		s-11.08-9.08-18.9-9.08c-7.62,0-13.72,2.9-18.31,8.69C450.08,740.28,447.78,748.51,447.78,759.19z"/>
	<path class="st3" d="M549.35,798.06V682.43c0-5.34,1.19-9.38,3.56-12.11c2.38-2.73,5.58-4.1,9.62-4.1c4.04,0,7.29,1.35,9.77,4.05
		c2.47,2.7,3.71,6.75,3.71,12.16v115.62c0,5.4-1.25,9.46-3.76,12.16c-2.51,2.7-5.75,4.05-9.72,4.05c-3.91,0-7.08-1.4-9.52-4.2
		S549.35,803.26,549.35,798.06z"/>
	<path class="st3" d="M617.02,693.47c-3.71,0-6.88-1.14-9.52-3.42c-2.64-2.28-3.96-5.5-3.96-9.67c0-3.77,1.35-6.88,4.05-9.33
		c2.7-2.44,5.84-3.66,9.42-3.66c3.45,0,6.51,1.11,9.18,3.32c2.67,2.21,4,5.44,4,9.67c0,4.1-1.3,7.31-3.91,9.62
		C623.69,692.31,620.6,693.47,617.02,693.47z M630.21,721v77.05c0,5.34-1.27,9.38-3.81,12.11s-5.76,4.1-9.67,4.1s-7.08-1.4-9.52-4.2
		s-3.66-6.8-3.66-12.01v-76.27c0-5.27,1.22-9.24,3.66-11.91c2.44-2.67,5.62-4,9.52-4s7.13,1.33,9.67,4
		C628.94,712.54,630.21,716.25,630.21,721z"/>
	<path class="st3" d="M746.42,762.02v35.45c0,5.6-1.27,9.8-3.81,12.6s-5.89,4.2-10.06,4.2c-4.04,0-7.31-1.4-9.81-4.2
		c-2.51-2.8-3.76-7-3.76-12.6v-42.48c0-6.7-0.23-11.91-0.68-15.62c-0.46-3.71-1.69-6.75-3.71-9.13c-2.02-2.38-5.21-3.56-9.57-3.56
		c-8.72,0-14.47,3-17.24,8.98c-2.77,5.99-4.15,14.58-4.15,25.78v36.04c0,5.53-1.25,9.72-3.76,12.55c-2.51,2.83-5.81,4.25-9.91,4.25
		c-4.04,0-7.34-1.42-9.91-4.25c-2.57-2.83-3.86-7.01-3.86-12.55V721.2c0-5.01,1.16-8.82,3.47-11.43c2.31-2.6,5.35-3.91,9.13-3.91
		c3.65,0,6.69,1.22,9.13,3.66s3.66,5.81,3.66,10.11v2.54c4.62-5.53,9.57-9.6,14.84-12.21c5.27-2.6,11.13-3.91,17.58-3.91
		c6.71,0,12.47,1.33,17.29,4c4.82,2.67,8.79,6.71,11.91,12.11c4.49-5.47,9.31-9.52,14.45-12.16c5.14-2.64,10.84-3.96,17.09-3.96
		c7.29,0,13.57,1.43,18.85,4.3c5.27,2.87,9.21,6.97,11.82,12.3c2.28,4.82,3.42,12.4,3.42,22.75v52.05c0,5.6-1.27,9.8-3.81,12.6
		s-5.89,4.2-10.06,4.2c-4.04,0-7.34-1.42-9.91-4.25c-2.57-2.83-3.86-7.01-3.86-12.55v-44.82c0-5.73-0.24-10.32-0.73-13.77
		c-0.49-3.45-1.81-6.35-3.96-8.69s-5.4-3.52-9.77-3.52c-3.52,0-6.85,1.04-10.01,3.12c-3.16,2.08-5.62,4.88-7.37,8.4
		C747.39,742.68,746.42,750.63,746.42,762.02z"/>
	<path class="st3" d="M859.31,720.81v3.22c5.01-6.18,10.22-10.73,15.62-13.62c5.4-2.9,11.52-4.35,18.36-4.35
		c8.2,0,15.75,2.12,22.66,6.35c6.9,4.23,12.35,10.42,16.36,18.55c4,8.14,6.01,17.77,6.01,28.91c0,8.2-1.16,15.74-3.47,22.61
		c-2.31,6.87-5.49,12.63-9.52,17.29c-4.04,4.66-8.81,8.24-14.31,10.74c-5.5,2.51-11.41,3.76-17.72,3.76
		c-7.62,0-14.01-1.53-19.19-4.59s-10.11-7.55-14.79-13.48v40.04c0,11.72-4.26,17.58-12.79,17.58c-5.01,0-8.33-1.51-9.96-4.54
		c-1.63-3.03-2.44-7.44-2.44-13.23V721c0-5.08,1.11-8.87,3.32-11.38c2.21-2.51,5.24-3.76,9.08-3.76c3.78,0,6.85,1.29,9.23,3.86
		C858.12,712.3,859.31,715.99,859.31,720.81z M911.55,759.58c0-7.03-1.07-13.07-3.22-18.12c-2.15-5.04-5.13-8.92-8.94-11.62
		c-3.81-2.7-8.02-4.05-12.65-4.05c-7.36,0-13.56,2.9-18.6,8.69c-5.05,5.8-7.57,14.32-7.57,25.59c0,10.61,2.51,18.86,7.52,24.76
		c5.01,5.89,11.23,8.84,18.65,8.84c4.43,0,8.53-1.28,12.3-3.86c3.78-2.57,6.8-6.43,9.08-11.57
		C910.41,773.09,911.55,766.87,911.55,759.58z"/>
	<path class="st3" d="M1045.54,779.4c0,7.36-1.79,13.66-5.37,18.9c-3.58,5.24-8.87,9.21-15.87,11.91c-7,2.7-15.51,4.05-25.54,4.05
		c-9.57,0-17.77-1.46-24.61-4.39s-11.88-6.59-15.14-10.99c-3.26-4.39-4.88-8.8-4.88-13.23c0-2.93,1.04-5.44,3.12-7.52
		c2.08-2.08,4.72-3.12,7.91-3.12c2.8,0,4.95,0.68,6.45,2.05c1.5,1.37,2.93,3.29,4.3,5.76c2.73,4.75,6.01,8.3,9.81,10.64
		s9,3.52,15.58,3.52c5.34,0,9.72-1.19,13.13-3.56c3.42-2.38,5.13-5.09,5.13-8.15c0-4.69-1.77-8.11-5.32-10.25
		c-3.55-2.15-9.39-4.2-17.53-6.15c-9.18-2.28-16.65-4.67-22.41-7.18c-5.76-2.51-10.37-5.81-13.82-9.91
		c-3.45-4.1-5.18-9.15-5.18-15.14c0-5.34,1.59-10.38,4.79-15.14c3.19-4.75,7.89-8.54,14.11-11.38c6.22-2.83,13.72-4.25,22.51-4.25
		c6.9,0,13.1,0.72,18.6,2.15c5.5,1.43,10.09,3.35,13.77,5.76c3.68,2.41,6.48,5.08,8.4,8.01c1.92,2.93,2.88,5.8,2.88,8.59
		c0,3.06-1.03,5.57-3.08,7.52s-4.96,2.93-8.74,2.93c-2.73,0-5.06-0.78-6.98-2.34c-1.92-1.56-4.12-3.91-6.59-7.03
		c-2.02-2.6-4.39-4.69-7.13-6.25s-6.45-2.34-11.13-2.34c-4.82,0-8.82,1.03-12.01,3.08c-3.19,2.05-4.79,4.61-4.79,7.67
		c0,2.8,1.17,5.09,3.52,6.88c2.34,1.79,5.5,3.27,9.47,4.44c3.97,1.17,9.44,2.6,16.41,4.3c8.27,2.02,15.02,4.43,20.26,7.23
		c5.24,2.8,9.21,6.1,11.91,9.91C1044.19,770.17,1045.54,774.52,1045.54,779.4z"/>
	<path class="st3" d="M1142.51,766.61h-52.15c0.06,6.05,1.29,11.39,3.66,16.02c2.38,4.62,5.53,8.11,9.47,10.45
		c3.94,2.34,8.28,3.52,13.04,3.52c3.19,0,6.1-0.37,8.74-1.12c2.64-0.75,5.19-1.92,7.67-3.52c2.47-1.59,4.75-3.3,6.84-5.13
		c2.08-1.82,4.79-4.3,8.11-7.42c1.37-1.17,3.32-1.76,5.86-1.76c2.73,0,4.95,0.75,6.64,2.25c1.69,1.5,2.54,3.61,2.54,6.35
		c0,2.41-0.94,5.22-2.83,8.45c-1.89,3.22-4.74,6.32-8.54,9.28c-3.81,2.96-8.59,5.42-14.36,7.37s-12.39,2.93-19.87,2.93
		c-17.12,0-30.44-4.88-39.94-14.65c-9.51-9.77-14.26-23.01-14.26-39.75c0-7.88,1.17-15.19,3.52-21.92s5.76-12.52,10.25-17.33
		c4.49-4.82,10.03-8.51,16.6-11.08c6.58-2.57,13.87-3.86,21.88-3.86c10.42,0,19.35,2.2,26.81,6.59
		c7.45,4.39,13.04,10.08,16.75,17.04c3.71,6.97,5.57,14.06,5.57,21.29c0,6.71-1.92,11.05-5.76,13.04
		C1154.88,765.62,1149.48,766.61,1142.51,766.61z M1090.36,751.47h48.34c-0.65-9.11-3.11-15.93-7.37-20.46
		c-4.26-4.52-9.88-6.79-16.85-6.79c-6.64,0-12.09,2.29-16.36,6.88C1093.86,735.7,1091.27,742.49,1090.36,751.47z"/>
</g>
</svg>
