<svg id="Google_Cloud_logo" data-name="Google Cloud logo" xmlns="http://www.w3.org/2000/svg" viewBox="0 0 206.08 36"><g id="_111x36px" data-name="111x36px"><path d="M133.63,27.94A12.58,12.58,0,0,1,120.79,15a12.45,12.45,0,0,1,3.66-9.18,12.35,12.35,0,0,1,9.18-3.72,11.42,11.42,0,0,1,9.07,4l-2.28,2.2a8.41,8.41,0,0,0-6.79-3.2,9.33,9.33,0,0,0-6.87,2.76A9.57,9.57,0,0,0,124,15a9.61,9.61,0,0,0,2.72,7.11,9.33,9.33,0,0,0,6.87,2.76,9.67,9.67,0,0,0,7.48-3.62l2.32,2.24a12,12,0,0,1-4.32,3.26A13.14,13.14,0,0,1,133.63,27.94Z" transform="translate(0)" style="fill:#5f6368"/><path d="M149.05,2.68v24.7h-3.17V2.68Z" transform="translate(0)" style="fill:#5f6368"/><path d="M151.68,18.93a8.91,8.91,0,0,1,2.45-6.45,8.33,8.33,0,0,1,6.24-2.55,8.23,8.23,0,0,1,6.21,2.55,8.85,8.85,0,0,1,2.49,6.45,8.79,8.79,0,0,1-2.49,6.45,8.24,8.24,0,0,1-6.21,2.56,8.34,8.34,0,0,1-6.24-2.56A8.91,8.91,0,0,1,151.68,18.93Zm3.17,0a6.19,6.19,0,0,0,1.59,4.42,5.41,5.41,0,0,0,7.86,0,6.19,6.19,0,0,0,1.59-4.42,6.14,6.14,0,0,0-1.59-4.38,5.33,5.33,0,0,0-7.86,0A6.14,6.14,0,0,0,154.85,18.93Z" transform="translate(0)" style="fill:#5f6368"/><path d="M186.5,27.38h-3V25h-.13a5.68,5.68,0,0,1-2.23,2.07,6.4,6.4,0,0,1-3.12.83,6.28,6.28,0,0,1-4.78-1.78,7.09,7.09,0,0,1-1.67-5.06V10.48h3.17V20.9q.11,4.14,4.18,4.14a4,4,0,0,0,3.17-1.54,5.56,5.56,0,0,0,1.28-3.67V10.48h3.17Z" transform="translate(0)" style="fill:#5f6368"/><path d="M197.14,27.94a7.43,7.43,0,0,1-5.69-2.63,9.29,9.29,0,0,1-2.35-6.38,9.29,9.29,0,0,1,2.35-6.38,7.42,7.42,0,0,1,5.69-2.62,7.31,7.31,0,0,1,3.4.79,6,6,0,0,1,2.36,2.1H203l-.14-2.34V2.68h3.18v24.7h-3V25h-.14a6,6,0,0,1-2.36,2.1A7.31,7.31,0,0,1,197.14,27.94Zm.52-2.9a4.89,4.89,0,0,0,3.83-1.69A6.3,6.3,0,0,0,203,18.93a6.32,6.32,0,0,0-1.55-4.38,4.89,4.89,0,0,0-3.83-1.73,4.94,4.94,0,0,0-3.83,1.73,6.28,6.28,0,0,0-1.55,4.38,6.17,6.17,0,0,0,1.55,4.38A4.94,4.94,0,0,0,197.66,25Z" transform="translate(0)" style="fill:#5f6368"/><path d="M26.87,12.43a16.58,16.58,0,0,1,.21,2.66A12.57,12.57,0,0,1,23.84,24a12.68,12.68,0,0,1-9.71,3.92A14.14,14.14,0,0,1,0,14,14.14,14.14,0,0,1,14.13,0a13.24,13.24,0,0,1,9.54,3.85L21,6.54a9.7,9.7,0,0,0-6.86-2.73A10,10,0,0,0,4.14,14a10,10,0,0,0,10,10.15,9.31,9.31,0,0,0,7-2.79,8.13,8.13,0,0,0,2.1-5.07H14.15V12.43Z" transform="translate(0)" style="fill:#4285f4"/><path d="M46.7,18.94a9,9,0,1,1-17.92,0,9,9,0,1,1,17.92,0Zm-3.92,0a5.06,5.06,0,1,0-10.08,0,5.06,5.06,0,1,0,10.08,0Z" transform="translate(0)" style="fill:#ea4335"/><path d="M66.52,18.94a9,9,0,1,1-17.93,0,9,9,0,1,1,17.93,0Zm-3.93,0a5.06,5.06,0,1,0-10.08,0,5.06,5.06,0,1,0,10.08,0Z" transform="translate(0)" style="fill:#fbbc04"/><path d="M85.51,10.49V26.63c0,6.65-3.9,9.37-8.52,9.37A8.54,8.54,0,0,1,69,30.69l3.43-1.43A5,5,0,0,0,77,32.46c3,0,4.79-1.84,4.79-5.28v-1.3h-.14a6.1,6.1,0,0,1-4.72,2.05,8.84,8.84,0,0,1-8.52-9,8.87,8.87,0,0,1,8.52-9,6.21,6.21,0,0,1,4.72,2h.14V10.49ZM82.05,19c0-3.17-2.11-5.48-4.79-5.48S72.34,15.8,72.34,19a5.1,5.1,0,0,0,4.92,5.42C79.94,24.39,82.05,22.1,82.05,19Z" transform="translate(0)" style="fill:#4285f4"/><path d="M92.46,1V27.38H88.52V1Z" transform="translate(0)" style="fill:#34a853"/><path d="M107.77,21.9l3.06,2a8.89,8.89,0,0,1-7.47,4,8.78,8.78,0,0,1-8.9-9c0-5.35,3.84-9,8.46-9s6.93,3.71,7.67,5.72l.41,1-12,5a4.56,4.56,0,0,0,4.35,2.73A5.1,5.1,0,0,0,107.77,21.9Zm-9.4-3.24,8-3.33a3.46,3.46,0,0,0-3.33-1.91A4.92,4.92,0,0,0,98.37,18.66Z" transform="translate(0)" style="fill:#ea4335"/></g></svg>