<svg height="215.602354" viewBox="0 0 1472.3 685.25" width="463.816829" xmlns="http://www.w3.org/2000/svg"><g transform="translate(-223.9 -197.35)"><path d="m1159.4 808.9a34.28 34.28 0 0 0 22.7-32.4v-11.2a34.61 34.61 0 0 0 -34.6-34.6h-106.5a10.93 10.93 0 0 0 -10.9 10.9v106.5a10.93 10.93 0 0 0 10.9 10.9h4.2a10.93 10.93 0 0 0 10.9-10.9v-32a4.48 4.48 0 0 1 4.5-4.5h65.3a6.84 6.84 0 0 1 5.9 3.4l22.7 39.6a11 11 0 0 0 9.4 5.5 10.3 10.3 0 0 0 5.8-1.7l.6-.6a11.19 11.19 0 0 0 5-6.7 11.34 11.34 0 0 0 -1.3-8.4l-16.6-28.5a3.91 3.91 0 0 1 -.3-3 4 4 0 0 1 2.3-2.3zm-3.7-30.3c0 7.4-6 10.8-11.9 10.8h-83.3a4 4 0 0 1 -4-4v-27.9a4 4 0 0 1 4-4h82.8a12.4 12.4 0 0 1 12.4 12.4z"/><path d="m1500.6 730.7h-114.4a8.8 8.8 0 0 0 -8.6 8.6v111.2a8.8 8.8 0 0 0 8.6 8.6h114.4a34.61 34.61 0 0 0 34.6-34.6v-59.1a34.7 34.7 0 0 0 -34.6-34.7zm8.7 34.6v59.1a12.4 12.4 0 0 1 -12.4 12.4h-89.8a3.54 3.54 0 0 1 -3.5-3.5v-76.8a3.54 3.54 0 0 1 3.5-3.5h89.8a12.38 12.38 0 0 1 12.4 12.3z"/><path d="m1363.5 843.5-3.6-5.7h.2l-67.6-100.3c-3.9-5.8-9.2-9-14.8-9h-.4c-5.7 0-11 3.2-14.9 9l-65.9 97.8-1.6 2.5h.1l-3.6 5.7a9.33 9.33 0 0 0 -1.4 7.9 9.71 9.71 0 0 0 5.2 6.2l2.6 1.3a12.75 12.75 0 0 0 15.6-4.1l20.5-30.9h87.3l20.5 30.9a12.53 12.53 0 0 0 10.4 5.3 11.67 11.67 0 0 0 5.2-1.2l2.6-1.3a9.71 9.71 0 0 0 5.2-6.2 10.19 10.19 0 0 0 -1.6-7.9zm-60.9-43.5a3.92 3.92 0 0 1 -3.5 2.1h-43.4a3.92 3.92 0 0 1 -3.5-2.1 3.84 3.84 0 0 1 .2-4l22.6-33.6.7-1.1a1.51 1.51 0 0 1 1.4-.7h.3a1.68 1.68 0 0 1 1.5.7l23.3 34.6a3.66 3.66 0 0 1 .4 4.1z"/><path d="m1591 753.2h96.6a8.6 8.6 0 0 0 8.6-8.6v-4.8a8.6 8.6 0 0 0 -8.6-8.6h-100.3a34.78 34.78 0 0 0 -34.7 34.7v58.5a34.78 34.78 0 0 0 34.7 34.7h100.3a8.49 8.49 0 0 0 8.5-8.5v-4.8a8.6 8.6 0 0 0 -8.6-8.6h-96.5a12.72 12.72 0 0 1 -12.7-12.7v-19.7a3.8 3.8 0 0 1 3.8-3.8h91.1a8.6 8.6 0 0 0 8.6-8.6v-4.8a8.6 8.6 0 0 0 -8.6-8.6h-91.1a3.8 3.8 0 0 1 -3.8-3.8v-9.6a12.79 12.79 0 0 1 12.7-12.4z"/><path d="m1004.1 731.3h-123.2c-6.2 0-9.7 3.4-9.7 9.6v2.5c0 6.4 3.3 9.7 9.7 9.7h42.2a6.23 6.23 0 0 1 6.2 6.2v90c0 6.2 3.4 9.6 9.6 9.6h6.8c6.2 0 9.6-3.4 9.6-9.6v-90a6.23 6.23 0 0 1 6.2-6.2h42.6c6.2 0 9.6-3.5 9.6-9.7v-2.5c0-6.2-3.4-9.6-9.6-9.6z"/><g fill="#3da542"><path d="m546.8 731.2h-3.7a11.18 11.18 0 0 0 -11.2 11.2v77.8a17.16 17.16 0 0 1 -17.1 17.1h-71a17.16 17.16 0 0 1 -17.1-17.1v-1.2c0-1.3.1-10.2.1-76.7a11 11 0 0 0 -11-11h-3.8a11.18 11.18 0 0 0 -11.2 11.2v82.1a34.78 34.78 0 0 0 34.7 34.7h87.7a34.57 34.57 0 0 0 34.5-34.5s.1-6.6.1-7.1v-75.2a11 11 0 0 0 -11-11.3z"/><path d="m615.9 753.2h96.6a8.6 8.6 0 0 0 8.6-8.6v-4.8a8.6 8.6 0 0 0 -8.6-8.6h-100.3a34.78 34.78 0 0 0 -34.7 34.7v58.5a34.78 34.78 0 0 0 34.7 34.7h100.3a8.49 8.49 0 0 0 8.5-8.5v-4.8a8.6 8.6 0 0 0 -8.6-8.6h-96.5a12.72 12.72 0 0 1 -12.7-12.7v-19.7a3.8 3.8 0 0 1 3.8-3.8h91.1a8.6 8.6 0 0 0 8.6-8.6v-4.8a8.6 8.6 0 0 0 -8.6-8.6h-91.1a3.8 3.8 0 0 1 -3.8-3.8v-9.6a12.79 12.79 0 0 1 12.7-12.4z"/><path d="m845.5 779.1h-71.5a12.72 12.72 0 0 1 -12.7-12.7v-.6a12.72 12.72 0 0 1 12.7-12.7h72a8.6 8.6 0 0 0 8.6-8.6v-4.8a8.6 8.6 0 0 0 -8.6-8.6h-75.9a34.78 34.78 0 0 0 -34.7 34.7v.5a34.78 34.78 0 0 0 34.7 34.7h1.4v.1l1.7-.1h68.5a12.57 12.57 0 0 1 12.5 12.5v11.1a12.72 12.72 0 0 1 -12.7 12.7h-12.6a3.33 3.33 0 0 0 -1 0h-83.9a8.6 8.6 0 0 0 -8.6 8.6v4.7a8.6 8.6 0 0 0 8.6 8.6h27.5v.1h73.8a34.78 34.78 0 0 0 34.7-34.7v-11a34.57 34.57 0 0 0 -34.5-34.5z"/><path d="m381.3 824.5v-58.6a34.78 34.78 0 0 0 -34.7-34.7h-88a34.78 34.78 0 0 0 -34.7 34.7v58.5a34.78 34.78 0 0 0 34.7 34.7h82.8a3.74 3.74 0 0 1 3.3 1.9c2.9 5.2 9.2 16.1 9.2 16.1a11 11 0 0 0 9.6 5.5 10.84 10.84 0 0 0 5.5-1.5l3.4-2a11.05 11.05 0 0 0 4-15l-6.7-11.6a2.14 2.14 0 0 1 .4-2.6 34.61 34.61 0 0 0 11.2-25.4zm-25.9-55.4v52.1a15.94 15.94 0 0 1 -15.9 15.9h-73.8a15.88 15.88 0 0 1 -15.9-15.9v-52.1a15.88 15.88 0 0 1 15.9-15.9h73.8a15.81 15.81 0 0 1 15.9 15.9z"/></g><path d="m876.2 427.5c39.1-72 90.6-126.5 137.4-151.8l-47-74c-3.7-5.8-9.6-5.8-13.1 0l-257.2 405.4c-3.7 5.8-.6 7.5 6.1 7.5h122.7c-1.9-52.4 13.8-118.8 51.1-187.1" fill="#3ea448"/><path d="m1029.6 321.8c-25.2-13.8-79.6 37.3-121.5 114.2s-55.3 150.3-30.1 164.2c18.3 9.9 49.1-16.2 82-59.1v-98.2c0-10.2 6.4-15.8 11.2-6.9l27.4 51.8c.4-.6.6-1.1 1-1.7 41.9-76.9 55.3-150.4 30-164.3" fill="#3ea448"/><path d="m1224 607.1-103.8-163.7a487.68 487.68 0 0 1 -39.9 95.7 537.18 537.18 0 0 1 -29.3 47.5l19.6 28h147.3c6.7 0 9.8-1.7 6.1-7.5" fill="#3ea448"/></g></svg>