<?xml version="1.0" encoding="utf-8"?>
<!-- Generator: Adobe Illustrator 24.2.1, SVG Export Plug-In . SVG Version: 6.00 Build 0)  -->
<svg version="1.1" id="Layer_1" xmlns="http://www.w3.org/2000/svg" xmlns:xlink="http://www.w3.org/1999/xlink" x="0px" y="0px"
	 viewBox="0 0 1462 1088" style="enable-background:new 0 0 1462 1088;" xml:space="preserve">
<style type="text/css">
	.st0{fill:#5396F8;}
	.st1{fill:#6F7985;}
	.st2{fill:#565757;}
	.st3{fill:#030303;}
	.st4{fill:#FFFFFF;}
</style>
<path class="st0" d="M591.2,349.8c3.9,16.5-5.3,41.6,2,56.5c2.4,4.8,12.6,2.9,16.9,2.9H657c4.2,0,13.4,1.7,16.4-2
	c2.9-3.7,1.3-12.5,1.3-16.9c0-13.1-1.8-27.7,1.3-40.5l-1.3-21.5v-50.6l-58.2,1.2l-22.7,0.9l-1.3,16.9l0,36.7L591.2,349.8z"/>
<path class="st1" d="M710.1,338.4h1.3v-59.4h78.4c-15.4-6.5-42.7-1.3-59.4-1.3c-4.6,0-15.7-2-18.9,2c-2.8,3.5-1.3,11.5-1.3,15.7
	V338.4z"/>
<path class="st2" d="M789.8,277.7l1.3,1.3L789.8,277.7z"/>
<path class="st1" d="M791.5,278.5l0.4,0.8L791.5,278.5z"/>
<path class="st0" d="M826.5,277.7v134.1h56.9c5.5,0,17.5,2.3,22-1.3c5.5-4.4,2-26.2,2-32.9v-99.9H826.5z"/>
<path class="st2" d="M711.4,278.9v59.4h1.3C712.6,321.6,717.8,294.3,711.4,278.9z"/>
<path class="st3" d="M712.6,278.9v43c0,4.4,1.4,12.1-2,15.5c-6,5.9-26.7,2.2-34.7,2.2l-1.3,10.1l35,1.3l2.9,15.1v43H791v-59.4h34.2
	l1.3-10.1l-32.5-1.3l-2.9-15.1v-44.3H712.6z"/>
<path class="st2" d="M791,280.2v58.2h1.3C792.3,321.9,797.4,295.3,791,280.2z"/>
<path class="st4" d="M837.8,289.1v49.3h56.9v-49.3H837.8z"/>
<path class="st1" d="M835.3,290.3l1.3,1.3L835.3,290.3 M550.7,338.4l1.3,1.3L550.7,338.4z"/>
<path class="st2" d="M552,338.4l-1.3,3.8h1.3V338.4z"/>
<path class="st3" d="M553.2,338.4l-1.3,11.4h40.5v-10.1L553.2,338.4z"/>
<path class="st2" d="M554.5,338.4v1.3h37.9L554.5,338.4 M674.7,338.4v5.1h1.3v-3.8h34.2L674.7,338.4 M792.3,338.4v1.3h34.2
	L792.3,338.4z"/>
<path class="st1" d="M836.6,338.4l1.3,1.3L836.6,338.4z"/>
<path class="st2" d="M836.6,343.5h1.3v-3.8h56.9v10.1c7.4-17.6-34.2-11.4-44.3-11.4C844.7,338.4,838.7,337.1,836.6,343.5z"/>
<path class="st1" d="M894.8,338.4l1.3,1.3L894.8,338.4 M906.1,338.4l1.3,1.3L906.1,338.4z"/>
<path class="st2" d="M906.1,349.8h1.3v-10.1h36.7C932.1,334.6,906.2,334.4,906.1,349.8z"/>
<path class="st1" d="M944.1,338.4v11.4h-36.7v1.3C917.8,351,951.9,357.1,944.1,338.4 M592.5,339.7v8.9h1.3L592.5,339.7 M673.4,339.7
	v5.1h1.3L673.4,339.7z"/>
<path class="st3" d="M837.8,339.7v10.1h56.9v-10.1H837.8 M907.4,339.7v10.1h36.7v-10.1H907.4z"/>
<path class="st2" d="M591.2,340.9v7.6h1.3L591.2,340.9z"/>
<path class="st1" d="M550.7,342.2l1.3,1.3L550.7,342.2z"/>
<path class="st2" d="M825.2,342.2v7.6h1.3L825.2,342.2 M550.7,343.5l1.3,1.3L550.7,343.5z"/>
<path class="st1" d="M836.6,343.5l1.3,1.3L836.6,343.5 M550.7,344.7l1.3,1.3L550.7,344.7z"/>
<path class="st2" d="M674.7,344.7v3.8h1.3L674.7,344.7 M836.6,344.7l1.3,1.3L836.6,344.7 M550.7,346v3.8h1.3L550.7,346z"/>
<path class="st1" d="M673.4,346v3.8h1.3L673.4,346 M836.6,346l1.3,1.3L836.6,346z"/>
<path class="st2" d="M837,348.1l0.4,0.8L837,348.1 M592.5,348.5l1.3,1.3L592.5,348.5z"/>
<path class="st1" d="M552,349.8v1.3h39.2L552,349.8 M675.9,349.8v1.3l35.4,1.3C705.9,346,684.1,349.8,675.9,349.8z"/>
<path class="st2" d="M791,349.8v59.4h-78.4V351h-1.3v41.7c0,4.2-1.5,12.2,1.3,15.7c4.7,6,30.6,2,37.9,2c8.8,0,32.7,4.2,39.7-1.3
	c3.4-2.7,2-10.1,2-13.9C792.3,382.2,796.1,361.9,791,349.8z"/>
<path class="st1" d="M792.3,349.8v1.3h32.9L792.3,349.8 M837.8,349.8v1.3h3.8L837.8,349.8z"/>
<path class="st0" d="M841.6,349.8l1.3,1.3L841.6,349.8z"/>
<path class="st1" d="M842.9,349.8v1.3h51.9C881.2,345.3,857.7,349.8,842.9,349.8z"/>
<path class="st4" d="M837.8,351v49.3h56.9V351H837.8z"/>
<path class="st0" d="M710.1,352.3l1.3,1.3L710.1,352.3z"/>
<path class="st1" d="M710.1,353.6v55.7h1.3C711.4,393.4,716.2,368.1,710.1,353.6z"/>
<path class="st0" d="M792.3,408l1.3,1.3L792.3,408z"/>
<path class="st1" d="M1375.4,408v1.3h26.6L1375.4,408 M711.4,409.2l1.3,1.3L711.4,409.2 M791,409.2l1.3,1.3L791,409.2 M904.9,409.2
	l1.3,1.3L904.9,409.2z"/>
<path class="st2" d="M1375.4,409.2v72.1c-5.8,0-18.6-2.4-23.3,1.3c-2.5,2-2,6-2,8.8c-0.1,16.5,12.1,12.6,25.3,12.6v151.8h1.3V544.6
	c0-8.8,4.2-32.7-1.3-39.7c-3.7-4.6-18.6-2-24-2v-20.2c5.8,0,18.6,2.4,23.3-1.3c3.9-3.1,2-13.3,2-17.7
	C1376.7,448.2,1381.4,423.4,1375.4,409.2z"/>
<path class="st3" d="M1376.7,409.2v51.9l-2,19.5l-23.3,2v20.2c5.9,0,18.8-2.4,23.3,2c4.1,4.1,2,15.4,2,20.7v56.9
	c0,29.4-3.1,60.8,1.8,89.8c2.5,14.6,9.8,29.7,23.5,36.7c15.5,8,35,5.1,51.9,5.1v-20.2c-13.5-4-27.3,2.2-39.1-8.2
	c-15.3-13.4-14-37.8-14-56.3c0-40.9,4.5-84.7,0-125.2c15.7-3.7,33.9,2.9,49.1-1.7c5.6-1.7,6.1-16.6,1-19.1c-11.9-5.9-38.4,7-48-2.8
	c-3.9-4-2.2-13.2-2.2-18.2c0-16.6-2.6-35.7,1.3-51.9L1376.7,409.2z"/>
<path class="st2" d="M1400.7,409.2l1.3,1.3L1400.7,409.2z"/>
<path class="st1" d="M712.6,410.5v1.3h72.1l-22.8-1.3H712.6z"/>
<path class="st0" d="M784.7,410.5l1.3,1.3L784.7,410.5z"/>
<path class="st1" d="M786,410.5v1.3h3.8L786,410.5z"/>
<path class="st0" d="M789.8,410.5l1.3,1.3L789.8,410.5z"/>
<path class="st2" d="M1400.7,411.8v68.3h1.3v-45.5L1400.7,411.8z"/>
<path class="st0" d="M344.5,477.5l1.3,1.3L344.5,477.5z"/>
<path class="st1" d="M345.8,477.5v1.3h22.8L345.8,477.5z"/>
<path class="st0" d="M617.3,478l0.8,0.4L617.3,478z"/>
<path class="st1" d="M619,477.5v1.3h15.2L619,477.5z"/>
<path class="st0" d="M634.2,477.5l1.3,1.3L634.2,477.5 M1197.1,477.5l1.3,1.3L1197.1,477.5z"/>
<path class="st1" d="M1198.3,477.5v1.3h21.5L1198.3,477.5z"/>
<path class="st0" d="M1219.8,477.5l1.3,1.3L1219.8,477.5 M331.9,478.8l1.3,1.3L331.9,478.8z"/>
<path class="st1" d="M333.2,478.8v1.3h5.1L333.2,478.8z"/>
<path class="st2" d="M338.2,478.8v1.3h11.4L338.2,478.8z"/>
<path class="st3" d="M425.5,686.2v27.8h24V585c0-29.2,0.8-58.2-20.7-81c-28.4-30.2-82-30.1-118.5-17.6c-8.9,3-36.4,13.7-36.4,25.2
	c0,5.4,11.3,12.3,16.2,11.6c10.8-1.4,22.8-13.8,34.2-17.1c43-12.6,99.8,2.8,101.2,56.1c0.6,22.1-23.9,15.2-40.5,15.2
	c-37.2,0-85.7-7.6-112.1,25.3c-31,38.7-7.9,95,36.2,109.1c29.8,9.5,68.8,6.7,96.1-8.6C413.3,698.8,418.4,691.7,425.5,686.2z"/>
<path class="st2" d="M364.8,478.8v1.3h10.1L364.8,478.8z"/>
<path class="st1" d="M374.9,478.8v1.3h5.1L374.9,478.8z"/>
<path class="st0" d="M380,478.8l1.3,1.3L380,478.8z"/>
<path class="st1" d="M606.4,478.8v1.3h5.1L606.4,478.8z"/>
<path class="st2" d="M611.4,478.8v1.3h8.9L611.4,478.8z"/>
<path class="st3" d="M549.4,515.5v-32.9h-25.3v231.5h25.3V591.4c0-28.2-0.6-54.3,22.8-74.2c19.5-16.6,49.8-18.2,73.4-11.4
	c6.8,2,15.8,10.4,22.5,10.2c5.1-0.2,12-11.5,13.7-15.6c5-12.2-29.6-19.3-37.5-20c-25.5-2.6-51.6-0.4-73.4,14.5
	C562.4,500.5,557.3,509.1,549.4,515.5z"/>
<path class="st2" d="M631.7,478.8v1.3h12.6L631.7,478.8z"/>
<path class="st1" d="M644.3,478.8v1.3h3.8L644.3,478.8z"/>
<path class="st0" d="M1037.7,609.1c0-31.5,1.2-64.7-16.6-92.3c-5.3-8.3-14.8-21.8-25.2-22.8c-7.2-12.6-33.8-15.2-46.8-15.2
	c-43.2,0-83,14-99,58.2c-16.1,44.4-16.9,121,20.7,155.2c30.2,27.5,81.8,33.1,118.8,17.3c11.1-4.7,26.5-11.8,32.2-23.3
	c2.9-5.8-6.5-19.8-13.1-19.1c-4.8,0.5-10.2,7.6-14,10.3c-8.2,5.9-17.9,10.8-27.8,13.2c-39,9.3-85.7-8.4-96.3-50
	c-1.9-7.5-6.2-20.1-2.9-27.6c3.6-8.3,33.1-4,41-4H1037.7z"/>
<path class="st1" d="M1186.9,478.8v1.3h3.8L1186.9,478.8z"/>
<path class="st2" d="M1190.7,478.8v1.3h11.4L1190.7,478.8z"/>
<path class="st3" d="M1130,514.2v-31.6h-24v231.5h24V599c0-20.1-2.4-43.4,6.7-62c22.7-46.6,98.9-46.2,125.5-3.8
	c10.4,16.7,9.6,35.6,9.6,54.4V666v32.9c0,3.7-1.2,10.1,1.3,13.2c3.7,4.6,18.6,2,24,2V588.8c0-30.1-1.2-62.6-23-86
	c-15.4-16.5-35.4-20.7-56.7-23.5c-12.8-1.7-28,0.3-40.5,3.3c-11.9,2.9-23.8,8.5-32.8,16.8C1138.9,504,1136,510.9,1130,514.2z"/>
<path class="st2" d="M1217.3,478.8v1.3h8.9L1217.3,478.8z"/>
<path class="st1" d="M1226.2,478.8v1.3h3.8L1226.2,478.8z"/>
<path class="st0" d="M1230,478.8l1.3,1.3L1230,478.8 M326.8,480.1l1.3,1.3L326.8,480.1z"/>
<path class="st1" d="M328.9,480.5l0.8,0.4L328.9,480.5z"/>
<path class="st2" d="M330.6,480.1v1.3h3.8L330.6,480.1 M379.5,480.5l0.8,0.4L379.5,480.5z"/>
<path class="st1" d="M381.2,480.1v1.3h5.1L381.2,480.1 M601.3,480.1v1.3h3.8L601.3,480.1z"/>
<path class="st2" d="M605.9,480.5l0.8,0.4L605.9,480.5 M647.7,480.5l0.8,0.4L647.7,480.5z"/>
<path class="st1" d="M649.4,480.1v1.3h3.8L649.4,480.1 M1180.6,480.1v1.3h3.8L1180.6,480.1z"/>
<path class="st2" d="M1184.4,480.1v1.3h3.8L1184.4,480.1 M1229.5,480.5l0.8,0.4L1229.5,480.5z"/>
<path class="st1" d="M1231.2,480.1v1.3h3.8L1231.2,480.1z"/>
<path class="st0" d="M1235,480.1l1.3,1.3L1235,480.1z"/>
<path class="st1" d="M1402,480.1l1.3,1.3L1402,480.1 M6.8,481.3v1.3c8.7,0,24-3.3,29.1,5.1C37.3,477.7,13.2,481.3,6.8,481.3
	 M195.3,481.3v1.3h27.8L195.3,481.3z"/>
<path class="st0" d="M321.8,481.3l1.3,1.3L321.8,481.3z"/>
<path class="st1" d="M323,481.3l1.3,1.3L323,481.3z"/>
<path class="st2" d="M324.3,481.3l1.3,1.3L324.3,481.3 M387.5,481.3l1.3,1.3L387.5,481.3z"/>
<path class="st1" d="M388.8,481.3l1.3,1.3L388.8,481.3z"/>
<path class="st0" d="M390.1,481.3l1.3,1.3L390.1,481.3z"/>
<path class="st2" d="M524.1,481.3v1.3h25.3L524.1,481.3z"/>
<path class="st1" d="M549.4,481.3v3.8h1.3L549.4,481.3 M597.5,481.3l1.3,1.3L597.5,481.3z"/>
<path class="st2" d="M598.8,481.3l1.3,1.3L598.8,481.3 M654,481.7l0.8,0.4L654,481.7z"/>
<path class="st1" d="M656.5,481.7l0.8,0.4L656.5,481.7 M735.4,481.3l1.3,1.3L735.4,481.3z"/>
<path class="st2" d="M735.4,714.1h1.3V482.6h24v231.5c6.2-14.8,1.3-40.8,1.3-56.9V525.6V494c0-3.3,0.9-9-2-11.3
	c-3.1-2.5-9.5-1.3-13.2-1.3c-2.6,0-6-0.4-8.5,0.8c-4.5,2.2-2.9,10.4-2.9,14.4v41.7V714.1z"/>
<path class="st1" d="M760.7,481.3l1.3,1.3L760.7,481.3 M1104.7,481.3l1.3,1.3L1104.7,481.3z"/>
<path class="st2" d="M1106,481.3v1.3h24v31.6c2.2-5.2,4.1-27.7-0.8-31.6C1124.6,478.9,1111.8,481.3,1106,481.3z"/>
<path class="st1" d="M1130,481.3l1.3,1.3L1130,481.3z"/>
<path class="st0" d="M1175.6,481.3l1.3,1.3L1175.6,481.3z"/>
<path class="st1" d="M1176.8,481.3l1.3,1.3L1176.8,481.3z"/>
<path class="st2" d="M1178.9,481.7l0.8,0.4L1178.9,481.7 M1236.3,481.3l1.3,1.3L1236.3,481.3z"/>
<path class="st1" d="M1238.4,481.7l0.8,0.4L1238.4,481.7 M1350.1,481.3l1.3,1.3L1350.1,481.3z"/>
<path class="st2" d="M1402,481.3v1.3l51.9,1.3C1443.5,476,1414.9,481.3,1402,481.3z"/>
<path class="st1" d="M1452.6,481.3l1.3,1.3L1452.6,481.3z"/>
<path class="st2" d="M6.8,482.6l1.3,1.3L6.8,482.6z"/>
<path class="st3" d="M8.1,482.6c6.4,23.4,18.7,45.9,28,68.3c15.7,37.9,30.7,76.4,47.6,113.8c8,17.7,13.3,56.4,39.3,48.9
	c5.4-1.6,7.2-10.2,9.1-14.8c5.7-14,11.9-27.8,17.7-41.7c24.1-58.3,49.4-116.2,73.3-174.6l-26.9,2l-7.8,16.9L171.9,542l-56.4,137.9
	l-33.2-79.7L34.6,482.6H8.1z"/>
<path class="st2" d="M195.3,482.6l1.3,1.3L195.3,482.6z"/>
<path class="st1" d="M316.7,482.6l1.3,1.3L316.7,482.6z"/>
<path class="st2" d="M318.8,483l0.8,0.4L318.8,483 M392.6,482.6l1.3,1.3L392.6,482.6z"/>
<path class="st1" d="M393.9,482.6l1.3,1.3L393.9,482.6z"/>
<path class="st0" d="M395.1,482.6l1.3,1.3L395.1,482.6 M522.9,482.6v231.5h1.3V550.9v-45.5L522.9,482.6z"/>
<path class="st1" d="M592,483l0.8,0.4L592,483z"/>
<path class="st2" d="M593.7,482.6l1.3,1.3L593.7,482.6 M659.5,482.6l1.3,1.3L659.5,482.6z"/>
<path class="st1" d="M660.8,482.6l1.3,1.3L660.8,482.6z"/>
<path class="st3" d="M736.6,482.6v231.5h24V482.6H736.6z"/>
<path class="st2" d="M1104.7,482.6v231.5h1.3V552.2v-46.8L1104.7,482.6z"/>
<path class="st1" d="M1171.8,482.6l1.3,1.3L1171.8,482.6z"/>
<path class="st2" d="M1173,482.6l1.3,1.3L1173,482.6 M1241.3,482.6l1.3,1.3L1241.3,482.6z"/>
<path class="st1" d="M1242.6,482.6l1.3,1.3L1242.6,482.6z"/>
<path class="st0" d="M1348.8,482.6l1.3,1.3L1348.8,482.6z"/>
<path class="st1" d="M1453.8,482.6l-1.3,21.5h1.3V482.6 M6.8,483.9l1.3,1.3L6.8,483.9z"/>
<path class="st0" d="M194,483.9l1.3,1.3L194,483.9z"/>
<path class="st2" d="M221.8,483.9l1.3,1.3L221.8,483.9z"/>
<path class="st0" d="M311.6,483.9l1.3,1.3L311.6,483.9z"/>
<path class="st1" d="M312.9,483.9l1.3,1.3L312.9,483.9z"/>
<path class="st2" d="M315,484.3l0.8,0.4L315,484.3 M396,484.3l0.8,0.4L396,484.3z"/>
<path class="st1" d="M397.7,483.9v1.3l5.1,1.3v-1.3L397.7,483.9 M588.7,483.9l1.3,1.3L588.7,483.9z"/>
<path class="st2" d="M590.8,484.3l0.8,0.4L590.8,484.3 M662.9,484.3l0.8,0.4L662.9,484.3z"/>
<path class="st1" d="M664.5,483.9l1.3,1.3L664.5,483.9 M1168,483.9l1.3,1.3L1168,483.9z"/>
<path class="st2" d="M1170.1,484.3l0.8,0.4L1170.1,484.3 M1244.7,484.3l0.8,0.4L1244.7,484.3z"/>
<path class="st1" d="M1246.4,483.9l1.3,1.3L1246.4,483.9 M1348.8,483.9v3.8h1.3L1348.8,483.9z"/>
<path class="st2" d="M8.1,485.1l1.3,1.3L8.1,485.1 M34.6,485.1l1.3,1.3L34.6,485.1z"/>
<path class="st1" d="M194,485.1l1.3,1.3L194,485.1z"/>
<path class="st0" d="M221.8,485.1l1.3,1.3L221.8,485.1z"/>
<path class="st1" d="M310,485.5l0.8,0.4L310,485.5z"/>
<path class="st2" d="M311.6,485.1l1.3,1.3L311.6,485.1 M398.9,485.1l1.3,1.3L398.9,485.1 M549.4,485.1l1.3,1.3L549.4,485.1z"/>
<path class="st1" d="M585.7,485.5l0.8,0.4L585.7,485.5z"/>
<path class="st2" d="M587.4,485.1l1.3,1.3L587.4,485.1z"/>
<path class="st1" d="M666.7,485.5l0.8,0.4L666.7,485.5 M1165,485.5l0.8,0.4L1165,485.5z"/>
<path class="st2" d="M1166.7,485.1l1.3,1.3L1166.7,485.1 M1247.7,485.1l1.3,1.3L1247.7,485.1z"/>
<path class="st1" d="M1248.9,485.1l1.3,1.3L1248.9,485.1z"/>
<path class="st0" d="M1250.2,485.1l1.3,1.3L1250.2,485.1z"/>
<path class="st1" d="M8.1,486.4l1.3,5.1h1.3L8.1,486.4 M193.2,487.2l0.4,0.8L193.2,487.2z"/>
<path class="st2" d="M220.6,486.4l1.3,1.3L220.6,486.4z"/>
<path class="st0" d="M305.3,486.4l1.3,1.3L305.3,486.4z"/>
<path class="st1" d="M306.6,486.4l1.3,1.3L306.6,486.4z"/>
<path class="st2" d="M307.9,486.4l1.3,1.3L307.9,486.4 M402.7,486.4l1.3,1.3L402.7,486.4z"/>
<path class="st1" d="M404,486.4l1.3,1.3L404,486.4 M549.4,486.4l1.3,29.1h1.3L549.4,486.4z"/>
<path class="st0" d="M582.3,486.4l1.3,1.3L582.3,486.4z"/>
<path class="st1" d="M583.6,486.4l1.3,1.3L583.6,486.4z"/>
<path class="st2" d="M668.3,486.4l1.3,1.3L668.3,486.4z"/>
<path class="st1" d="M669.6,486.4l1.3,1.3L669.6,486.4z"/>
<path class="st0" d="M1161.6,486.4l1.3,1.3L1161.6,486.4z"/>
<path class="st2" d="M1162.9,486.4l1.3,1.3L1162.9,486.4 M1250.2,486.4l1.3,1.3L1250.2,486.4z"/>
<path class="st1" d="M1251.5,486.4l1.3,1.3L1251.5,486.4z"/>
<path class="st2" d="M9.3,487.6l1.3,1.3L9.3,487.6 M35.9,487.6l1.3,1.3L35.9,487.6z"/>
<path class="st1" d="M220.6,487.6l1.3,1.3L220.6,487.6 M302.8,487.6l1.3,1.3L302.8,487.6z"/>
<path class="st2" d="M304.1,487.6l1.3,1.3L304.1,487.6z"/>
<path class="st1" d="M406.5,487.6l1.3,1.3L406.5,487.6 M579.8,487.6l1.3,1.3L579.8,487.6z"/>
<path class="st2" d="M581.1,487.6l1.3,1.3L581.1,487.6 M672.1,487.6l1.3,1.3L672.1,487.6z"/>
<path class="st1" d="M1159.1,487.6l1.3,1.3L1159.1,487.6z"/>
<path class="st2" d="M1160.4,487.6l1.3,1.3L1160.4,487.6 M1254,487.6l1.3,1.3L1254,487.6z"/>
<path class="st0" d="M1348.8,487.6l1.3,1.3L1348.8,487.6z"/>
<path class="st1" d="M37.2,488.9l1.3,1.3L37.2,488.9z"/>
<path class="st0" d="M191.5,488.9l1.3,1.3L191.5,488.9z"/>
<path class="st2" d="M192.7,488.9l1.3,1.3L192.7,488.9 M219.3,488.9l1.3,1.3L219.3,488.9z"/>
<path class="st1" d="M300.3,488.9l1.3,1.3L300.3,488.9z"/>
<path class="st2" d="M301.5,488.9l1.3,1.3L301.5,488.9 M407.8,488.9v1.3l3.8,1.3L407.8,488.9z"/>
<path class="st0" d="M410.3,488.9l1.3,1.3L410.3,488.9z"/>
<path class="st1" d="M577.3,488.9l-1.3,2.5L577.3,488.9z"/>
<path class="st2" d="M578.5,488.9l1.3,1.3L578.5,488.9 M673.4,488.9l1.3,1.3L673.4,488.9z"/>
<path class="st1" d="M674.7,488.9l1.3,1.3L674.7,488.9 M1156.6,488.9l1.3,1.3L1156.6,488.9z"/>
<path class="st2" d="M1157.9,488.9l1.3,1.3L1157.9,488.9z"/>
<path class="st1" d="M1256.5,488.9l1.3,1.3L1256.5,488.9 M1348.8,488.9v12.6h1.3L1348.8,488.9z"/>
<path class="st2" d="M37.2,490.2l1.3,1.3L37.2,490.2z"/>
<path class="st1" d="M191.5,490.2l1.3,1.3L191.5,490.2 M219.7,491l0.4,0.8L219.7,491z"/>
<path class="st0" d="M296.5,490.2l1.3,1.3L296.5,490.2z"/>
<path class="st1" d="M297.7,490.2l1.3,1.3L297.7,490.2z"/>
<path class="st2" d="M299,490.2l1.3,1.3L299,490.2z"/>
<path class="st1" d="M411.6,490.2l1.3,1.3L411.6,490.2z"/>
<path class="st0" d="M574.7,490.2l1.3,1.3L574.7,490.2z"/>
<path class="st2" d="M577.3,490.2l1.3,1.3L577.3,490.2z"/>
<path class="st1" d="M675.9,490.2l1.3,1.3L675.9,490.2 M1154.9,490.6l0.8,0.4L1154.9,490.6z"/>
<path class="st2" d="M1257.8,490.2l1.3,1.3L1257.8,490.2z"/>
<path class="st1" d="M1259,490.2l1.3,1.3L1259,490.2z"/>
<path class="st2" d="M10.6,491.4l1.3,1.3L10.6,491.4 M191.5,491.4l-1.3,3.8L191.5,491.4z"/>
<path class="st1" d="M295.2,491.4l1.3,1.3L295.2,491.4z"/>
<path class="st2" d="M296.5,491.4l1.3,1.3L296.5,491.4 M412.8,491.4l1.3,1.3L412.8,491.4z"/>
<path class="st0" d="M414.1,491.4l1.3,1.3L414.1,491.4z"/>
<path class="st1" d="M573.5,491.4l1.3,1.3L573.5,491.4z"/>
<path class="st2" d="M574.7,491.4l1.3,1.3L574.7,491.4 M677.2,491.4l1.3,1.3L677.2,491.4z"/>
<path class="st1" d="M678.5,491.4l1.3,1.3L678.5,491.4 M1152.8,491.4l1.3,1.3L1152.8,491.4z"/>
<path class="st2" d="M1260.3,491.4l1.3,1.3L1260.3,491.4z"/>
<path class="st1" d="M10.6,492.7l1.3,1.3L10.6,492.7 M38.4,492.7l1.3,1.3L38.4,492.7 M190.2,492.7l1.3,1.3L190.2,492.7z"/>
<path class="st2" d="M218,492.7l1.3,1.3L218,492.7z"/>
<path class="st1" d="M292.7,492.7l1.3,1.3L292.7,492.7z"/>
<path class="st2" d="M415.4,492.7l1.3,1.3L415.4,492.7z"/>
<path class="st0" d="M570.9,492.7l1.3,1.3L570.9,492.7z"/>
<path class="st2" d="M572.2,492.7l1.3,1.3L572.2,492.7 M679.7,492.7l1.3,1.3L679.7,492.7z"/>
<path class="st1" d="M995.9,492.7l1.3,1.3L995.9,492.7 M1150.3,492.7l1.3,1.3L1150.3,492.7 M1262.8,492.7l1.3,1.3L1262.8,492.7
	 M218,494l1.3,1.3L218,494 M290.1,494l-1.3,2.5L290.1,494z"/>
<path class="st2" d="M291.4,494l1.3,1.3L291.4,494 M416.6,494l1.3,1.3L416.6,494z"/>
<path class="st1" d="M417.9,494l1.3,1.3L417.9,494 M569.7,494l1.3,1.3L569.7,494 M682.3,494l1.3,1.3L682.3,494 M1149,494l1.3,1.3
	L1149,494z"/>
<path class="st2" d="M1264.1,494l1.3,1.3L1264.1,494 M11.9,495.2l1.3,3.8h1.3L11.9,495.2z"/>
<path class="st1" d="M39.7,495.2l1.3,1.3L39.7,495.2z"/>
<path class="st2" d="M216.8,495.2l1.3,1.3L216.8,495.2 M290.1,495.2l1.3,1.3L290.1,495.2z"/>
<path class="st1" d="M419.2,495.2l1.3,1.3L419.2,495.2 M568.4,495.2l1.3,1.3L568.4,495.2 M683.5,495.2l1.3,1.3L683.5,495.2z"/>
<path class="st2" d="M1147.7,495.2l1.3,1.3L1147.7,495.2 M1265.4,495.2l2.5,2.5L1265.4,495.2z"/>
<path class="st1" d="M1266.6,495.2l1.3,1.3L1266.6,495.2z"/>
<path class="st0" d="M11.9,496.5l1.3,1.3L11.9,496.5z"/>
<path class="st2" d="M39.7,496.5l1.3,1.3L39.7,496.5z"/>
<path class="st1" d="M189,496.5l1.3,1.3L189,496.5 M216.8,496.5l1.3,1.3L216.8,496.5z"/>
<path class="st0" d="M286.4,496.5l1.3,1.3L286.4,496.5z"/>
<path class="st2" d="M287.6,496.5l1.3,1.3L287.6,496.5 M420.4,496.5l1.3,1.3L420.4,496.5 M567.2,496.5l1.3,1.3L567.2,496.5
	 M683.5,496.5l1.3,1.3L683.5,496.5z"/>
<path class="st0" d="M684.8,496.5l1.3,1.3L684.8,496.5 M1145.2,496.5l1.3,1.3L1145.2,496.5z"/>
<path class="st2" d="M1146.5,496.5l1.3,1.3L1146.5,496.5z"/>
<path class="st1" d="M1267.9,496.5l1.3,1.3L1267.9,496.5 M41.4,498.6l0.4,0.8L41.4,498.6z"/>
<path class="st2" d="M189,497.8l1.3,1.3L189,497.8z"/>
<path class="st1" d="M285.1,497.8l1.3,1.3L285.1,497.8z"/>
<path class="st2" d="M421.7,497.8l1.3,1.3L421.7,497.8z"/>
<path class="st0" d="M423,497.8l1.3,1.3L423,497.8z"/>
<path class="st1" d="M564.6,497.8l1.3,1.3L564.6,497.8z"/>
<path class="st2" d="M565.9,497.8l1.3,1.3L565.9,497.8z"/>
<path class="st1" d="M683.5,497.8l1.3,1.3L683.5,497.8 M1143.9,497.8l1.3,1.3L1143.9,497.8 M1269.2,497.8l1.3,1.3L1269.2,497.8
	 M13.1,499l1.3,1.3L13.1,499z"/>
<path class="st0" d="M187.7,499l1.3,1.3L187.7,499z"/>
<path class="st2" d="M215.5,499l-1.3,3.8h1.3V499 M283.8,499l1.3,1.3L283.8,499z"/>
<path class="st1" d="M424.2,499l1.3,1.3L424.2,499z"/>
<path class="st2" d="M563.4,499l1.3,1.3L563.4,499 M682.3,499l1.3,1.3L682.3,499z"/>
<path class="st1" d="M1142.7,499l1.3,1.3L1142.7,499 M1270.4,499l1.3,1.3L1270.4,499z"/>
<path class="st2" d="M14.4,500.3l1.3,1.3L14.4,500.3 M41,500.3l1.3,1.3L41,500.3z"/>
<path class="st1" d="M187.7,500.3l-1.3,3.8h1.3V500.3 M215.5,500.3l1.3,1.3L215.5,500.3 M281.3,500.3l-1.3,2.5L281.3,500.3z"/>
<path class="st2" d="M282.6,500.3l1.3,1.3L282.6,500.3z"/>
<path class="st1" d="M425.5,500.3l1.3,1.3L425.5,500.3 M562.1,500.3l1.3,1.3L562.1,500.3z"/>
<path class="st2" d="M681,500.3l1.3,1.3L681,500.3z"/>
<path class="st1" d="M1141.4,500.3l1.3,1.3L1141.4,500.3 M1271.7,500.3l1.3,1.3L1271.7,500.3 M14.4,501.6l1.3,1.3L14.4,501.6
	 M42.2,501.6l1.3,1.3L42.2,501.6z"/>
<path class="st2" d="M187.7,501.6l1.3,1.3L187.7,501.6 M281.3,501.6l1.3,1.3L281.3,501.6 M342,501.6v1.3h11.4L342,501.6z"/>
<path class="st1" d="M353.4,501.6v1.3h5.1L353.4,501.6z"/>
<path class="st2" d="M358.4,501.6v1.3h11.4L358.4,501.6z"/>
<path class="st1" d="M426.8,501.6l1.3,1.3L426.8,501.6 M560.8,501.6l1.3,1.3L560.8,501.6z"/>
<path class="st2" d="M614,501.6v1.3h13.9L614,501.6z"/>
<path class="st1" d="M681,501.6l1.3,1.3L681,501.6 M1140.1,501.6l1.3,1.3L1140.1,501.6z"/>
<path class="st2" d="M1193.3,501.6v1.3h12.6L1193.3,501.6z"/>
<path class="st1" d="M1273,501.6l1.3,1.3L1273,501.6z"/>
<path class="st0" d="M1348.8,501.6l1.3,1.3L1348.8,501.6z"/>
<path class="st2" d="M1452.6,501.6l1.3,1.3L1452.6,501.6z"/>
<path class="st0" d="M14.4,502.8l1.3,1.3L14.4,502.8z"/>
<path class="st2" d="M42.2,502.8l1.3,1.3L42.2,502.8z"/>
<path class="st1" d="M214.3,502.8l1.3,1.3L214.3,502.8 M278.8,502.8l1.3,1.3L278.8,502.8z"/>
<path class="st2" d="M336.9,502.8l1.3,1.3L336.9,502.8z"/>
<path class="st1" d="M338.2,502.8v1.3h5.1L338.2,502.8z"/>
<path class="st0" d="M367.3,502.8l1.3,1.3L367.3,502.8z"/>
<path class="st1" d="M368.6,502.8v1.3h3.8L368.6,502.8z"/>
<path class="st2" d="M373.2,503.2l0.8,0.4L373.2,503.2z"/>
<path class="st1" d="M428,502.8l1.3,1.3L428,502.8 M559.6,502.8l1.3,1.3L559.6,502.8z"/>
<path class="st2" d="M603.8,502.8v1.3h3.8L603.8,502.8z"/>
<path class="st1" d="M607.6,502.8v1.3h6.3L607.6,502.8z"/>
<path class="st0" d="M614,502.8l1.3,1.3L614,502.8 M625.3,502.8l1.3,1.3L625.3,502.8z"/>
<path class="st1" d="M626.6,502.8v1.3h7.6L626.6,502.8z"/>
<path class="st2" d="M635,503.2l0.8,0.4L635,503.2z"/>
<path class="st1" d="M679.7,502.8l1.3,1.3L679.7,502.8z"/>
<path class="st4" d="M1012.4,586.3c0-21.5-1.9-43.2-16-60.7c-24-29.7-77.5-30.2-105.4-5.8c-13.6,11.9-20.4,30-22.8,47.5
	c-0.6,4.5-3.5,14.3,0.8,17.7c6.8,5.4,29.9,1.3,38.4,1.3C942.2,586.3,977.6,584.4,1012.4,586.3z"/>
<path class="st1" d="M1138.9,502.8l1.3,1.3L1138.9,502.8z"/>
<path class="st2" d="M1185.3,503.2l0.8,0.4L1185.3,503.2z"/>
<path class="st1" d="M1186.9,502.8v1.3h7.6L1186.9,502.8z"/>
<path class="st0" d="M1194.5,502.8l1.3,1.3L1194.5,502.8 M1204.7,502.8l1.3,1.3L1204.7,502.8z"/>
<path class="st1" d="M1205.9,502.8v1.3h6.3L1205.9,502.8z"/>
<path class="st2" d="M1212.2,502.8v1.3h3.8L1212.2,502.8z"/>
<path class="st1" d="M1274.2,502.8l1.3,1.3L1274.2,502.8 M1350.1,502.8l1.3,1.3L1350.1,502.8z"/>
<path class="st2" d="M1402,502.8v1.3h50.6C1439.3,498.5,1416.4,502.8,1402,502.8z"/>
<path class="st1" d="M15.7,504.1l1.3,1.3L15.7,504.1z"/>
<path class="st0" d="M43.5,504.1l1.3,1.3L43.5,504.1z"/>
<path class="st2" d="M186.4,504.1l1.3,1.3L186.4,504.1 M213,504.1l1.3,1.3L213,504.1z"/>
<path class="st0" d="M214.3,504.1l1.3,1.3L214.3,504.1z"/>
<path class="st2" d="M277.5,504.1l1.3,1.3L277.5,504.1 M329.4,504.1l1.3,1.3L329.4,504.1z"/>
<path class="st1" d="M330.6,504.1v1.3h3.8L330.6,504.1z"/>
<path class="st0" d="M376.2,504.1l1.3,1.3L376.2,504.1z"/>
<path class="st1" d="M377.4,504.1l1.3,1.3L377.4,504.1z"/>
<path class="st2" d="M379.5,504.5l0.8,0.4L379.5,504.5z"/>
<path class="st1" d="M429.3,504.1l1.3,1.3L429.3,504.1 M558.3,504.1l1.3,1.3L558.3,504.1z"/>
<path class="st2" d="M597.5,504.1l1.3,1.3L597.5,504.1z"/>
<path class="st1" d="M599.6,504.5l0.8,0.4L599.6,504.5z"/>
<path class="st0" d="M638,504.1l1.3,1.3L638,504.1z"/>
<path class="st1" d="M639.3,504.1l1.3,1.3L639.3,504.1z"/>
<path class="st2" d="M640.5,504.1l1.3,1.3L640.5,504.1 M678.5,504.1l-1.3,2.5L678.5,504.1z"/>
<path class="st1" d="M1137.6,504.1l-1.3,2.5L1137.6,504.1z"/>
<path class="st2" d="M1178.1,504.1l1.3,1.3L1178.1,504.1z"/>
<path class="st1" d="M1180.2,504.5l0.8,0.4L1180.2,504.5 M1219.4,504.5l0.8,0.4L1219.4,504.5z"/>
<path class="st2" d="M1221.1,504.1l1.3,1.3L1221.1,504.1z"/>
<path class="st1" d="M1275.5,504.1l1.3,1.3L1275.5,504.1z"/>
<path class="st2" d="M1401.1,504.9l0.4,0.8L1401.1,504.9 M43.5,505.4l1.3,1.3L43.5,505.4z"/>
<path class="st1" d="M185.2,505.4l1.3,1.3L185.2,505.4 M213,505.4l1.3,1.3L213,505.4z"/>
<path class="st2" d="M276.2,505.4l1.3,1.3L276.2,505.4 M324.3,505.4l1.3,1.3L324.3,505.4z"/>
<path class="st1" d="M326.4,505.8l0.8,0.4L326.4,505.8z"/>
<path class="st0" d="M328.1,505.4l1.3,1.3L328.1,505.4z"/>
<path class="st1" d="M381.2,505.4v1.3l6.3,1.3v-1.3L381.2,505.4z"/>
<path class="st2" d="M385,505.4l1.3,1.3L385,505.4z"/>
<path class="st1" d="M430.5,505.4l2.5,2.5L430.5,505.4 M557,505.4l-1.3,2.5L557,505.4z"/>
<path class="st2" d="M592,505.8l0.8,0.4L592,505.8z"/>
<path class="st1" d="M594.6,505.8l0.8,0.4L594.6,505.8z"/>
<path class="st0" d="M596.2,505.4l1.3,1.3L596.2,505.4z"/>
<path class="st1" d="M643,505.4v1.3h3.8L643,505.4z"/>
<path class="st2" d="M646.8,505.4l1.3,1.3L646.8,505.4z"/>
<path class="st0" d="M678.5,505.4l1.3,1.3L678.5,505.4z"/>
<path class="st2" d="M1137.6,505.4l1.3,1.3L1137.6,505.4 M1171.8,505.4l1.3,1.3L1171.8,505.4z"/>
<path class="st1" d="M1173,505.4v1.3h3.8L1173,505.4z"/>
<path class="st0" d="M1222.4,505.4l1.3,1.3L1222.4,505.4z"/>
<path class="st1" d="M1224.5,505.8l0.8,0.4L1224.5,505.8z"/>
<path class="st2" d="M1227,505.8l0.8,0.4L1227,505.8 M16.9,506.6l1.3,1.3L16.9,506.6 M185.2,506.6l1.3,1.3L185.2,506.6z"/>
<path class="st0" d="M213,506.6l1.3,1.3L213,506.6z"/>
<path class="st1" d="M275,506.6l1.3,1.3L275,506.6z"/>
<path class="st2" d="M318,507.9v1.3l5.1-1.3H318z"/>
<path class="st1" d="M323.9,507l0.8,0.4L323.9,507z"/>
<path class="st2" d="M387.5,506.6l1.3,1.3L387.5,506.6 M430.5,506.6l1.3,1.3L430.5,506.6 M557,506.6l1.3,1.3L557,506.6 M588.7,506.6
	l1.3,1.3L588.7,506.6z"/>
<path class="st1" d="M590.8,507l0.8,0.4L590.8,507z"/>
<path class="st0" d="M646.8,506.6l1.3,1.3L646.8,506.6z"/>
<path class="st1" d="M648.1,506.6l1.3,1.3L648.1,506.6z"/>
<path class="st2" d="M649.4,506.6l1.3,1.3L649.4,506.6z"/>
<path class="st1" d="M677.2,506.6l1.3,1.3L677.2,506.6z"/>
<path class="st2" d="M1136.4,506.6l1.3,1.3L1136.4,506.6 M1165.4,507.9v1.3l5.1-1.3H1165.4z"/>
<path class="st1" d="M1170.5,506.6l1.3,1.3L1170.5,506.6z"/>
<path class="st0" d="M1171.8,506.6l1.3,1.3L1171.8,506.6 M1227.4,506.6l1.3,1.3L1227.4,506.6z"/>
<path class="st1" d="M1228.7,506.6l1.3,1.3L1228.7,506.6z"/>
<path class="st2" d="M1230,506.6v1.3l3.8,1.3L1230,506.6 M1276.8,506.6l1.3,1.3L1276.8,506.6z"/>
<path class="st1" d="M16.9,507.9l1.3,1.3L16.9,507.9 M44.8,507.9l1.3,1.3L44.8,507.9z"/>
<path class="st2" d="M211.7,507.9l1.3,1.3L211.7,507.9z"/>
<path class="st1" d="M273.7,507.9l1.3,1.3L273.7,507.9 M319.2,507.9l1.3,1.3L319.2,507.9 M388.8,507.9l1.3,1.3L388.8,507.9z"/>
<path class="st2" d="M390.1,507.9l1.3,1.3L390.1,507.9z"/>
<path class="st0" d="M554.5,507.9l1.3,1.3L554.5,507.9z"/>
<path class="st2" d="M555.8,507.9l1.3,1.3L555.8,507.9 M586.1,507.9l1.3,1.3L586.1,507.9z"/>
<path class="st1" d="M587.4,507.9l1.3,1.3L587.4,507.9 M650.6,507.9l1.3,1.3L650.6,507.9z"/>
<path class="st2" d="M651.9,507.9l1.3,1.3L651.9,507.9 M675.9,507.9l1.3,1.3L675.9,507.9 M1135.1,507.9l1.3,1.3L1135.1,507.9z"/>
<path class="st1" d="M1168,507.9l1.3,1.3L1168,507.9z"/>
<path class="st0" d="M1231.2,507.9l1.3,1.3L1231.2,507.9z"/>
<path class="st1" d="M1278,507.9l1.3,1.3L1278,507.9z"/>
<path class="st2" d="M1400.7,507.9v140.4h1.3v-97.4L1400.7,507.9 M18.2,509.2l2.5,3.8L18.2,509.2 M44.8,509.2l1.3,1.3L44.8,509.2z"
	/>
<path class="st1" d="M183.9,509.2l1.3,1.3L183.9,509.2 M211.7,509.2l1.3,1.3L211.7,509.2z"/>
<path class="st2" d="M272.4,509.2l1.3,1.3L272.4,509.2 M314.2,509.2l1.3,1.3L314.2,509.2z"/>
<path class="st1" d="M315.4,509.2l1.3,1.3L315.4,509.2 M391.3,509.2l1.3,1.3L391.3,509.2z"/>
<path class="st2" d="M392.6,509.2l1.3,1.3L392.6,509.2 M433.1,509.2l1.3,1.3L433.1,509.2 M554.5,509.2l1.3,1.3L554.5,509.2z"/>
<path class="st1" d="M583.6,509.2l1.3,1.3L583.6,509.2 M654.4,509.2l1.3,1.3L654.4,509.2z"/>
<path class="st2" d="M674.7,509.2l-1.3,2.5L674.7,509.2z"/>
<path class="st1" d="M1133.8,509.2l1.3,1.3L1133.8,509.2z"/>
<path class="st2" d="M1162.9,509.2l1.3,1.3L1162.9,509.2z"/>
<path class="st1" d="M1164.2,509.2l1.3,1.3L1164.2,509.2 M1235,509.2l1.3,1.3L1235,509.2z"/>
<path class="st2" d="M1236.3,509.2l1.3,1.3L1236.3,509.2 M1279.3,509.2l1.3,1.3L1279.3,509.2z"/>
<path class="st1" d="M46,510.4l2.5,3.8L46,510.4z"/>
<path class="st2" d="M183.9,510.4l1.3,1.3L183.9,510.4 M210.5,510.4l1.3,1.3L210.5,510.4 M271.2,510.4l2.5,3.8L271.2,510.4
	 M310.4,510.4l1.3,1.3L310.4,510.4z"/>
<path class="st1" d="M311.6,510.4l1.3,1.3L311.6,510.4z"/>
<path class="st0" d="M312.9,510.4l1.3,1.3L312.9,510.4z"/>
<path class="st2" d="M395.1,510.4l1.3,1.3L395.1,510.4z"/>
<path class="st1" d="M434.3,510.4l1.3,1.3L434.3,510.4 M553.2,510.4l1.3,1.3L553.2,510.4z"/>
<path class="st2" d="M579.8,510.4l1.3,1.3L579.8,510.4z"/>
<path class="st1" d="M581.1,510.4l1.3,1.3L581.1,510.4 M657,510.4l1.3,1.3L657,510.4z"/>
<path class="st2" d="M658.2,510.4l1.3,1.3L658.2,510.4z"/>
<path class="st1" d="M674.7,510.4l1.3,1.3L674.7,510.4z"/>
<path class="st0" d="M1132.6,510.4l1.3,1.3L1132.6,510.4z"/>
<path class="st2" d="M1133.8,510.4l1.3,1.3L1133.8,510.4 M1160.4,510.4l1.3,1.3L1160.4,510.4z"/>
<path class="st1" d="M1161.6,510.4l1.3,1.3L1161.6,510.4z"/>
<path class="st0" d="M1236.3,510.4l1.3,1.3L1236.3,510.4z"/>
<path class="st1" d="M1237.5,510.4l1.3,1.3L1237.5,510.4z"/>
<path class="st2" d="M1238.8,510.4l1.3,1.3L1238.8,510.4z"/>
<path class="st1" d="M1280.5,510.4l1.3,1.3L1280.5,510.4 M18.2,511.7l1.3,1.3L18.2,511.7 M183.1,512.5l0.4,0.8L183.1,512.5
	 M210.5,511.7l1.3,1.3L210.5,511.7z"/>
<path class="st2" d="M307.9,511.7l-1.3,2.5L307.9,511.7z"/>
<path class="st1" d="M310,512.1l0.8,0.4L310,512.1 M396.4,511.7l1.3,1.3L396.4,511.7z"/>
<path class="st2" d="M397.7,511.7l1.3,1.3L397.7,511.7z"/>
<path class="st1" d="M435.6,511.7l1.3,1.3L435.6,511.7 M552,511.7l1.3,1.3L552,511.7z"/>
<path class="st2" d="M577.3,511.7l-1.3,2.5L577.3,511.7z"/>
<path class="st1" d="M578.5,511.7l1.3,1.3L578.5,511.7z"/>
<path class="st0" d="M579.8,511.7l1.3,1.3L579.8,511.7z"/>
<path class="st1" d="M659.5,511.7l1.3,1.3L659.5,511.7 M673.4,511.7l1.3,1.3L673.4,511.7 M1132.6,511.7l-1.3,2.5L1132.6,511.7z"/>
<path class="st2" d="M1157.9,511.7l1.3,1.3L1157.9,511.7z"/>
<path class="st1" d="M1159.1,511.7l1.3,1.3L1159.1,511.7z"/>
<path class="st0" d="M1238.8,511.7l1.3,1.3L1238.8,511.7z"/>
<path class="st1" d="M1240.1,511.7l1.3,1.3L1240.1,511.7z"/>
<path class="st2" d="M1241.3,511.7l1.3,1.3L1241.3,511.7 M1280.5,511.7l1.3,1.3L1280.5,511.7z"/>
<path class="st1" d="M19.9,513.8l0.4,0.8L19.9,513.8z"/>
<path class="st2" d="M46,512.9l1.3,1.3L46,512.9 M209.6,513.8l0.4,0.8L209.6,513.8z"/>
<path class="st1" d="M271.2,512.9l1.3,1.3L271.2,512.9 M307.9,512.9l1.3,1.3L307.9,512.9z"/>
<path class="st2" d="M398.9,512.9l1.3,1.3L398.9,512.9 M435.6,512.9l1.3,1.3L435.6,512.9 M552,512.9l1.3,1.3L552,512.9z"/>
<path class="st1" d="M577.3,512.9l1.3,1.3L577.3,512.9 M660.8,512.9l1.3,1.3L660.8,512.9z"/>
<path class="st2" d="M662,512.9l1.3,1.3L662,512.9z"/>
<path class="st1" d="M672.1,512.9l1.3,1.3L672.1,512.9z"/>
<path class="st2" d="M1132.6,512.9l1.3,1.3L1132.6,512.9 M1156.6,512.9l1.3,1.3L1156.6,512.9z"/>
<path class="st1" d="M1242.6,512.9l1.3,1.3L1242.6,512.9 M1281.8,512.9l1.3,1.3L1281.8,512.9z"/>
<path class="st2" d="M47.7,515.1l0.4,0.8L47.7,515.1z"/>
<path class="st1" d="M181.8,515.1l0.4,0.8L181.8,515.1z"/>
<path class="st2" d="M273.7,514.2l1.3,1.3L273.7,514.2 M304.1,514.2l1.3,1.3L304.1,514.2z"/>
<path class="st1" d="M400.2,514.2l1.3,1.3L400.2,514.2z"/>
<path class="st2" d="M436.9,514.2l1.3,1.3L436.9,514.2 M549.4,514.2l1.3,1.3L549.4,514.2z"/>
<path class="st1" d="M574.7,514.2l1.3,1.3L574.7,514.2 M663.3,514.2l1.3,1.3L663.3,514.2z"/>
<path class="st2" d="M670.9,514.2l1.3,1.3L670.9,514.2 M1154.1,514.2l1.3,1.3L1154.1,514.2z"/>
<path class="st1" d="M1155.3,514.2l1.3,1.3L1155.3,514.2 M1243.9,514.2l1.3,1.3L1243.9,514.2 M1283.1,514.2l1.3,1.3L1283.1,514.2z"
	/>
<path class="st2" d="M20.7,515.5l1.3,1.3L20.7,515.5z"/>
<path class="st1" d="M209.2,515.5l1.3,1.3L209.2,515.5 M275,515.5l1.3,1.3L275,515.5z"/>
<path class="st2" d="M301.5,515.5l1.3,1.3L301.5,515.5z"/>
<path class="st0" d="M302.8,515.5l1.3,1.3L302.8,515.5 M401.5,515.5l1.3,1.3L401.5,515.5z"/>
<path class="st2" d="M402.7,515.5l1.3,1.3L402.7,515.5z"/>
<path class="st1" d="M438.1,515.5l1.3,1.3L438.1,515.5z"/>
<path class="st2" d="M572.2,515.5l-1.3,2.5L572.2,515.5z"/>
<path class="st0" d="M573.5,515.5l1.3,1.3L573.5,515.5z"/>
<path class="st1" d="M664.5,515.5l1.3,1.3L664.5,515.5z"/>
<path class="st0" d="M670.9,515.5l1.3,1.3L670.9,515.5z"/>
<path class="st2" d="M1152.8,515.5l1.3,1.3L1152.8,515.5z"/>
<path class="st0" d="M1245.1,515.5l1.3,1.3L1245.1,515.5z"/>
<path class="st2" d="M1246.4,515.5l1.3,1.3L1246.4,515.5 M1283.1,515.5l1.3,1.3L1283.1,515.5z"/>
<path class="st1" d="M20.7,516.7L22,518L20.7,516.7 M48.6,516.7l1.3,1.3L48.6,516.7z"/>
<path class="st2" d="M181.4,516.7l1.3,1.3L181.4,516.7z"/>
<path class="st1" d="M208.3,517.6l0.4,0.8L208.3,517.6 M276.2,516.7l1.3,1.3L276.2,516.7z"/>
<path class="st2" d="M277.5,516.7l1.3,1.3L277.5,516.7 M299,516.7l-1.3,2.5L299,516.7z"/>
<path class="st1" d="M300.3,516.7l1.3,1.3L300.3,516.7z"/>
<path class="st0" d="M301.5,516.7l1.3,1.3L301.5,516.7z"/>
<path class="st2" d="M404,516.7l1.3,1.3L404,516.7 M438.1,516.7l1.3,1.3L438.1,516.7z"/>
<path class="st0" d="M572.2,516.7l1.3,1.3L572.2,516.7 M665.8,516.7l1.3,1.3L665.8,516.7z"/>
<path class="st2" d="M667.9,517.2l0.8,0.4L667.9,517.2z"/>
<path class="st1" d="M669.6,516.7l1.3,1.3L669.6,516.7z"/>
<path class="st2" d="M1150.3,516.7l-2.5,3.8L1150.3,516.7z"/>
<path class="st1" d="M1151.5,516.7l1.3,1.3L1151.5,516.7z"/>
<path class="st2" d="M1247.7,516.7l1.3,1.3L1247.7,516.7z"/>
<path class="st1" d="M1284.3,516.7l1.3,1.3L1284.3,516.7z"/>
<path class="st2" d="M48.6,518l1.3,1.3L48.6,518z"/>
<path class="st1" d="M180.1,518l1.3,1.3L180.1,518z"/>
<path class="st2" d="M278.8,518l1.3,1.3L278.8,518z"/>
<path class="st1" d="M299,518l1.3,1.3L299,518 M405.2,518l1.3,1.3L405.2,518 M439.4,518l1.3,3.8h1.3L439.4,518 M569.7,518l1.3,1.3
	L569.7,518 M1150.3,518l1.3,1.3L1150.3,518z"/>
<path class="st2" d="M1248.9,518l1.3,1.3L1248.9,518 M1284.3,518l1.3,1.3L1284.3,518z"/>
<path class="st1" d="M22,519.3l1.3,1.3L22,519.3z"/>
<path class="st2" d="M180.1,519.3l1.3,1.3L180.1,519.3 M206.7,519.3l1.3,1.3L206.7,519.3z"/>
<path class="st1" d="M280,519.3l1.3,1.3L280,519.3 M296.5,519.3l1.3,1.3L296.5,519.3 M406.5,519.3l1.3,1.3L406.5,519.3z"/>
<path class="st2" d="M439.4,519.3l1.3,1.3L439.4,519.3z"/>
<path class="st1" d="M568.4,519.3l1.3,1.3L568.4,519.3z"/>
<path class="st0" d="M1149,519.3l1.3,1.3L1149,519.3z"/>
<path class="st1" d="M1250.2,519.3l1.3,1.3L1250.2,519.3z"/>
<path class="st2" d="M1251.5,519.3l3.8,3.8L1251.5,519.3z"/>
<path class="st1" d="M1285.6,519.3l1.3,1.3L1285.6,519.3 M49.8,520.5l1.3,1.3L49.8,520.5z"/>
<path class="st0" d="M178.8,520.5l1.3,1.3L178.8,520.5z"/>
<path class="st1" d="M206.7,520.5l1.3,1.3L206.7,520.5z"/>
<path class="st2" d="M282.6,520.5l1.3,1.3L282.6,520.5 M293.9,520.5l1.3,1.3L293.9,520.5z"/>
<path class="st1" d="M295.2,520.5l1.3,1.3L295.2,520.5 M407.8,520.5l1.3,1.3L407.8,520.5 M567.2,520.5l1.3,1.3L567.2,520.5z"/>
<path class="st2" d="M1146.5,520.5l1.3,1.3L1146.5,520.5z"/>
<path class="st0" d="M1251.5,520.5l1.3,1.3L1251.5,520.5z"/>
<path class="st2" d="M1285.6,520.5l1.3,1.3L1285.6,520.5 M23.3,521.8l1.3,1.3L23.3,521.8 M49.8,521.8l1.3,1.3L49.8,521.8
	 M178.8,521.8l1.3,1.3L178.8,521.8z"/>
<path class="st1" d="M283.8,521.8l2.5,2.5L283.8,521.8z"/>
<path class="st2" d="M285.1,521.8l1.3,1.3L285.1,521.8 M292.7,521.8l1.3,1.3L292.7,521.8 M409,521.8l1.3,1.3L409,521.8 M440.7,521.8
	l1.3,1.3L440.7,521.8z"/>
<path class="st0" d="M441.9,521.8l1.3,1.3L441.9,521.8z"/>
<path class="st1" d="M565.9,521.8l1.3,1.3L565.9,521.8 M1146.5,521.8l1.3,1.3L1146.5,521.8 M1252.7,521.8l1.3,1.3L1252.7,521.8
	 M1286.9,521.8l1.3,1.3L1286.9,521.8 M23.3,523.1l1.3,1.3L23.3,523.1 M51.1,523.1l2.5,3.8L51.1,523.1z"/>
<path class="st2" d="M205.4,523.1l1.3,1.3L205.4,523.1 M286.4,523.1l1.3,1.3L286.4,523.1z"/>
<path class="st1" d="M291.4,523.1l1.3,1.3L291.4,523.1z"/>
<path class="st2" d="M410.3,523.1l1.3,1.3L410.3,523.1z"/>
<path class="st1" d="M441.9,523.1l1.3,1.3L441.9,523.1 M564.6,523.1l1.3,1.3L564.6,523.1 M1145.2,523.1l1.3,1.3L1145.2,523.1
	 M1254,523.1l1.3,1.3L1254,523.1z"/>
<path class="st2" d="M24.5,524.3l1.3,1.3L24.5,524.3z"/>
<path class="st1" d="M177.6,524.3l1.3,1.3L177.6,524.3 M205.4,524.3l1.3,1.3L205.4,524.3z"/>
<path class="st2" d="M288.5,524.8l0.8,0.4L288.5,524.8z"/>
<path class="st1" d="M290.1,524.3l1.3,1.3L290.1,524.3z"/>
<path class="st2" d="M441.9,524.3l1.3,1.3L441.9,524.3z"/>
<path class="st1" d="M563.4,524.3l1.3,1.3L563.4,524.3 M1143.9,524.3l1.3,1.3L1143.9,524.3z"/>
<path class="st2" d="M1255.2,524.3l1.3,1.3L1255.2,524.3z"/>
<path class="st1" d="M1288.1,524.3l1.3,1.3L1288.1,524.3 M24.5,525.6l2.5,3.8L24.5,525.6z"/>
<path class="st2" d="M51.1,525.6l1.3,1.3L51.1,525.6 M177.6,525.6l1.3,1.3L177.6,525.6 M204.1,525.6l1.3,1.3L204.1,525.6z"/>
<path class="st0" d="M411.6,525.6l1.3,1.3L411.6,525.6z"/>
<path class="st1" d="M443.2,525.6l1.3,1.3L443.2,525.6z"/>
<path class="st2" d="M562.1,525.6l1.3,1.3L562.1,525.6z"/>
<path class="st1" d="M1142.7,525.6l1.3,1.3L1142.7,525.6z"/>
<path class="st2" d="M1256.5,525.6l1.3,1.3L1256.5,525.6 M1288.1,525.6l1.3,1.3L1288.1,525.6 M25.8,526.9l1.3,1.3L25.8,526.9
	 M52.8,527.7l0.4,0.8L52.8,527.7z"/>
<path class="st1" d="M176.7,527.7l0.4,0.8L176.7,527.7 M204.1,526.9l1.3,1.3L204.1,526.9 M412.8,526.9l1.3,1.3L412.8,526.9z"/>
<path class="st2" d="M443.2,526.9l1.3,1.3L443.2,526.9 M560.8,526.9l1.3,1.3L560.8,526.9z"/>
<path class="st1" d="M1141.4,526.9l1.3,1.3L1141.4,526.9z"/>
<path class="st2" d="M1257.8,526.9l1.3,1.3L1257.8,526.9z"/>
<path class="st1" d="M1289.8,527.7l0.4,0.8L1289.8,527.7z"/>
<path class="st2" d="M202.9,528.1l1.3,1.3L202.9,528.1z"/>
<path class="st1" d="M414.1,528.1l2.5,3.8L414.1,528.1 M560.8,528.1l1.3,1.3L560.8,528.1z"/>
<path class="st2" d="M1140.1,528.1l1.3,1.3L1140.1,528.1z"/>
<path class="st1" d="M1257.8,528.1l1.3,1.3L1257.8,528.1z"/>
<path class="st0" d="M25.8,529.4l1.3,1.3L25.8,529.4z"/>
<path class="st1" d="M53.6,529.4l1.3,1.3L53.6,529.4z"/>
<path class="st0" d="M175,529.4l1.3,1.3L175,529.4z"/>
<path class="st2" d="M176.3,529.4l1.3,1.3L176.3,529.4z"/>
<path class="st1" d="M203.3,530.2l0.4,0.8L203.3,530.2z"/>
<path class="st2" d="M415.4,529.4l1.3,1.3L415.4,529.4z"/>
<path class="st1" d="M444.5,529.4l1.3,1.3L444.5,529.4 M559.6,529.4l1.3,1.3L559.6,529.4 M1140.1,529.4l1.3,1.3L1140.1,529.4
	 M1259,529.4l1.3,1.3L1259,529.4z"/>
<path class="st2" d="M1289.4,529.4l1.3,1.3L1289.4,529.4z"/>
<path class="st0" d="M1290.7,529.4l1.3,1.3L1290.7,529.4z"/>
<path class="st2" d="M27,530.7l1.3,1.3L27,530.7 M53.6,530.7l1.3,1.3L53.6,530.7z"/>
<path class="st1" d="M175,530.7l1.3,1.3L175,530.7z"/>
<path class="st2" d="M444.5,530.7l1.3,1.3L444.5,530.7 M558.3,530.7l1.3,1.3L558.3,530.7 M1138.9,530.7l1.3,1.3L1138.9,530.7z"/>
<path class="st1" d="M1260.3,530.7l1.3,1.3L1260.3,530.7 M1290.7,530.7l1.3,1.3L1290.7,530.7 M27,531.9l1.3,1.3L27,531.9z"/>
<path class="st2" d="M175,531.9l1.3,1.3L175,531.9 M201.6,531.9l1.3,1.3L201.6,531.9z"/>
<path class="st1" d="M446.1,532.8l0.4,0.8L446.1,532.8 M558.3,531.9l1.3,1.3L558.3,531.9 M1138.9,531.9l1.3,1.3L1138.9,531.9z"/>
<path class="st2" d="M1261.6,531.9l1.3,1.3L1261.6,531.9 M1291.1,532.8l0.4,0.8L1291.1,532.8z"/>
<path class="st1" d="M54.9,533.2l1.3,1.3L54.9,533.2 M173.8,533.2l1.3,1.3L173.8,533.2 M201.6,533.2l1.3,1.3L201.6,533.2
	 M416.6,533.2l1.3,1.3L416.6,533.2z"/>
<path class="st2" d="M557,533.2l1.3,1.3L557,533.2z"/>
<path class="st1" d="M1138,534l0.4,0.8L1138,534 M1261.6,533.2l2.5,6.3h1.3L1261.6,533.2z"/>
<path class="st2" d="M28.3,534.5l1.3,3.8h1.3L28.3,534.5 M173.8,534.5l1.3,1.3L173.8,534.5 M200.3,534.5l1.3,1.3L200.3,534.5
	 M446.1,535.3l0.4,0.8L446.1,535.3z"/>
<path class="st1" d="M557,534.5l1.3,1.3L557,534.5z"/>
<path class="st2" d="M1262.8,534.5l1.3,1.3L1262.8,534.5z"/>
<path class="st1" d="M1291.9,534.5l1.3,1.3L1291.9,534.5z"/>
<path class="st0" d="M28.3,535.7l1.3,1.3L28.3,535.7z"/>
<path class="st1" d="M56.1,535.7l1.3,1.3L56.1,535.7 M200.3,535.7l1.3,1.3L200.3,535.7z"/>
<path class="st2" d="M417.9,535.7l1.3,1.3L417.9,535.7z"/>
<path class="st1" d="M447,535.7v3.8h1.3L447,535.7z"/>
<path class="st2" d="M555.8,535.7l-1.3,3.8h1.3V535.7 M1136.4,535.7l1.3,1.3L1136.4,535.7 M1291.9,535.7l1.3,1.3L1291.9,535.7
	 M56.1,537l1.3,1.3L56.1,537z"/>
<path class="st1" d="M172.5,537l1.3,1.3L172.5,537z"/>
<path class="st2" d="M199.5,537.8l0.4,0.8L199.5,537.8 M419.2,537l1.3,1.3L419.2,537z"/>
<path class="st1" d="M555.8,537l1.3,1.3L555.8,537z"/>
<path class="st2" d="M1264.1,537l1.3,1.3L1264.1,537z"/>
<path class="st1" d="M29.6,538.2l1.3,1.3L29.6,538.2 M57.8,539.1l0.4,0.8L57.8,539.1z"/>
<path class="st2" d="M172.5,538.2l1.3,1.3L172.5,538.2z"/>
<path class="st1" d="M419.6,539.1l0.4,0.8L419.6,539.1z"/>
<path class="st2" d="M1135.1,538.2l1.3,1.3L1135.1,538.2 M30.8,539.5l1.3,1.3L30.8,539.5z"/>
<path class="st1" d="M171.2,539.5l-1.3,5.1h1.3V539.5 M199.1,539.5l1.3,1.3L199.1,539.5z"/>
<path class="st2" d="M420.8,540.4l0.4,0.8L420.8,540.4 M447.4,540.4l0.4,0.8L447.4,540.4z"/>
<path class="st1" d="M554.5,539.5l-1.3,5.1h1.3V539.5 M874.5,539.5l1.3,1.3L874.5,539.5 M1135.1,539.5l1.3,1.3L1135.1,539.5
	 M1293.2,539.5l1.3,1.3L1293.2,539.5 M30.8,540.8l1.3,1.3L30.8,540.8z"/>
<path class="st2" d="M57.4,540.8l1.3,1.3L57.4,540.8z"/>
<path class="st0" d="M58.7,540.8l1.3,1.3L58.7,540.8z"/>
<path class="st2" d="M197.8,540.8l1.3,1.3L197.8,540.8 M553.2,540.8l1.3,1.3L553.2,540.8 M1134.2,541.6l0.4,0.8L1134.2,541.6z"/>
<path class="st1" d="M1265.4,540.8l1.3,1.3L1265.4,540.8z"/>
<path class="st2" d="M1293.6,541.6l0.4,0.8L1293.6,541.6z"/>
<path class="st0" d="M30.8,542l1.3,1.3L30.8,542z"/>
<path class="st2" d="M32.1,542l1.3,1.3L32.1,542z"/>
<path class="st1" d="M58.7,542l1.3,1.3L58.7,542z"/>
<path class="st2" d="M171.2,542l1.3,1.3L171.2,542z"/>
<path class="st1" d="M197.8,542l1.3,1.3L197.8,542 M420.4,542l1.3,1.3L420.4,542 M448.7,542.9l0.4,0.8L448.7,542.9 M32.1,543.3
	l1.3,1.3L32.1,543.3z"/>
<path class="st2" d="M58.7,543.3l1.3,1.3L58.7,543.3 M196.5,543.3l1.3,1.3L196.5,543.3z"/>
<path class="st0" d="M197.8,543.3l1.3,1.3L197.8,543.3 M420.4,543.3l1.3,1.3L420.4,543.3z"/>
<path class="st1" d="M1134.2,544.1l0.4,0.8L1134.2,544.1z"/>
<path class="st2" d="M1266.6,543.3l1.3,1.3L1266.6,543.3z"/>
<path class="st0" d="M1294.5,543.3l1.3,1.3L1294.5,543.3 M59.9,544.6l1.3,1.3L59.9,544.6z"/>
<path class="st2" d="M170,544.6l1.3,1.3L170,544.6z"/>
<path class="st1" d="M196.5,544.6l1.3,1.3L196.5,544.6z"/>
<path class="st2" d="M448.7,545.4l0.4,0.8L448.7,545.4 M1133,545.4l0.4,0.8L1133,545.4z"/>
<path class="st1" d="M1267.1,545.4l0.4,0.8L1267.1,545.4 M1294.5,544.6v3.8h1.3L1294.5,544.6z"/>
<path class="st2" d="M33.4,545.8l1.3,1.3L33.4,545.8 M59.9,545.8l1.3,1.3L59.9,545.8z"/>
<path class="st1" d="M168.7,545.8l1.3,1.3L168.7,545.8z"/>
<path class="st2" d="M421.7,545.8l1.3,1.3L421.7,545.8 M1268.3,546.7l0.4,0.8L1268.3,546.7z"/>
<path class="st1" d="M33.4,547.1l1.3,1.3L33.4,547.1z"/>
<path class="st2" d="M168.7,547.1l1.3,1.3L168.7,547.1 M195.3,547.1l1.3,1.3L195.3,547.1z"/>
<path class="st1" d="M421.7,547.1l1.3,1.3L421.7,547.1 M552.4,547.9l0.4,0.8L552.4,547.9 M1133,547.9l0.4,0.8L1133,547.9z"/>
<path class="st2" d="M34.6,548.4l1.3,1.3L34.6,548.4z"/>
<path class="st1" d="M61.2,548.4l1.3,1.3L61.2,548.4 M195.3,548.4l1.3,1.3L195.3,548.4 M1267.9,548.4v3.8h1.3L1267.9,548.4z"/>
<path class="st2" d="M1294.9,549.2l0.4,0.8L1294.9,549.2z"/>
<path class="st1" d="M34.6,549.6l1.3,5.1h1.3L34.6,549.6z"/>
<path class="st2" d="M61.2,549.6l1.3,1.3L61.2,549.6z"/>
<path class="st1" d="M167.5,549.6l1.3,1.3L167.5,549.6z"/>
<path class="st2" d="M194,549.6l1.3,1.3L194,549.6z"/>
<path class="st1" d="M1295.7,549.6v3.8h1.3L1295.7,549.6z"/>
<path class="st2" d="M35.9,550.9l1.3,1.3L35.9,550.9z"/>
<path class="st1" d="M62.5,550.9l2.5,3.8L62.5,550.9z"/>
<path class="st2" d="M167.5,550.9l1.3,1.3L167.5,550.9z"/>
<path class="st1" d="M194,550.9l1.3,1.3L194,550.9z"/>
<path class="st2" d="M423,550.9l1.3,1.3L423,550.9z"/>
<path class="st0" d="M449.5,550.9l1.3,1.3L449.5,550.9z"/>
<path class="st2" d="M551.1,551.7l0.4,0.8L551.1,551.7 M1131.3,550.9l1.3,1.3L1131.3,550.9z"/>
<path class="st1" d="M166.6,553l0.4,0.8L166.6,553z"/>
<path class="st2" d="M192.7,552.2l1.3,1.3L192.7,552.2z"/>
<path class="st1" d="M423,552.2v5.1h1.3L423,552.2 M449.5,552.2v5.1h1.3L449.5,552.2 M1131.3,552.2v5.1h1.3L1131.3,552.2z"/>
<path class="st2" d="M1269.2,552.2l1.3,1.3L1269.2,552.2 M62.5,553.4l1.3,1.3L62.5,553.4z"/>
<path class="st1" d="M193.2,554.3l0.4,0.8L193.2,554.3 M550.7,553.4v5.1h1.3L550.7,553.4 M1269.6,554.3l0.4,0.8L1269.6,554.3z"/>
<path class="st2" d="M1295.7,553.4v11.4h1.3L1295.7,553.4 M37.2,554.7l1.3,1.3L37.2,554.7 M64.2,555.5l0.4,0.8L64.2,555.5z"/>
<path class="st1" d="M164.9,554.7l1.3,1.3L164.9,554.7z"/>
<path class="st2" d="M424.2,554.7v12.6h1.3L424.2,554.7z"/>
<path class="st1" d="M37.2,556l1.3,1.3L37.2,556z"/>
<path class="st2" d="M165.3,556.8l0.4,0.8L165.3,556.8z"/>
<path class="st1" d="M191.9,556.8l0.4,0.8L191.9,556.8z"/>
<path class="st2" d="M549.4,556v11.4h1.3L549.4,556z"/>
<path class="st0" d="M1269.2,556l1.3,1.3L1269.2,556z"/>
<path class="st1" d="M65,557.2l1.3,1.3L65,557.2z"/>
<path class="st0" d="M423,557.2l1.3,1.3L423,557.2z"/>
<path class="st2" d="M449.5,557.2v156.8h1.3V605.3C450.8,591.5,454.8,569.9,449.5,557.2z"/>
<path class="st0" d="M1131.3,557.2l1.3,1.3L1131.3,557.2z"/>
<path class="st2" d="M1270.4,557.2v5.1h1.3L1270.4,557.2 M38.4,558.5l1.3,1.3L38.4,558.5 M65,558.5l1.3,1.3L65,558.5z"/>
<path class="st1" d="M163.7,558.5l1.3,1.3L163.7,558.5z"/>
<path class="st2" d="M190.2,558.5l1.3,1.3L190.2,558.5z"/>
<path class="st0" d="M550.7,558.5l1.3,1.3L550.7,558.5z"/>
<path class="st2" d="M163.7,559.7l1.3,1.3L163.7,559.7z"/>
<path class="st1" d="M190.2,559.7l1.3,1.3L190.2,559.7z"/>
<path class="st2" d="M39.7,561l1.3,1.3L39.7,561z"/>
<path class="st1" d="M66.3,561l1.3,1.3L66.3,561 M39.7,562.3l1.3,1.3L39.7,562.3z"/>
<path class="st2" d="M66.3,562.3l1.3,1.3L66.3,562.3z"/>
<path class="st0" d="M67.5,562.3l1.3,1.3L67.5,562.3z"/>
<path class="st1" d="M162.4,562.3l1.3,1.3L162.4,562.3z"/>
<path class="st2" d="M189,562.3l1.3,1.3L189,562.3z"/>
<path class="st1" d="M1270.4,562.3v6.3h1.3L1270.4,562.3z"/>
<path class="st0" d="M1297,562.3l1.3,1.3L1297,562.3z"/>
<path class="st2" d="M41,563.5l1.3,1.3L41,563.5z"/>
<path class="st1" d="M67.5,563.5l2.5,3.8L67.5,563.5 M189,563.5l1.3,1.3L189,563.5z"/>
<path class="st2" d="M1130,563.5v150.5h1.3v-105L1130,563.5z"/>
<path class="st1" d="M1297,563.5v150.5h1.3v-105L1297,563.5 M41,564.8l2.5,3.8L41,564.8 M161.1,564.8l1.3,1.3L161.1,564.8z"/>
<path class="st2" d="M187.7,564.8l1.3,1.3L187.7,564.8 M42.2,566.1l1.3,1.3L42.2,566.1 M67.5,566.1l1.3,1.3L67.5,566.1 M161.1,566.1
	l1.3,1.3L161.1,566.1z"/>
<path class="st1" d="M187.7,566.1l1.3,1.3L187.7,566.1z"/>
<path class="st2" d="M69.2,568.2l0.4,0.8L69.2,568.2z"/>
<path class="st1" d="M159.9,567.3l-1.3,5.1h1.3V567.3z"/>
<path class="st2" d="M186.4,567.3l1.3,1.3L186.4,567.3z"/>
<path class="st1" d="M424.2,567.3v6.3h1.3L424.2,567.3 M549.4,567.3v146.7h1.3V611.6L549.4,567.3 M186.4,568.6l1.3,1.3L186.4,568.6z
	"/>
<path class="st0" d="M1270.4,568.6l1.3,1.3L1270.4,568.6z"/>
<path class="st2" d="M43.5,569.9l1.3,1.3L43.5,569.9z"/>
<path class="st1" d="M70.1,569.9l1.3,1.3L70.1,569.9z"/>
<path class="st2" d="M159.9,569.9l1.3,1.3L159.9,569.9z"/>
<path class="st0" d="M186.4,569.9l1.3,1.3L186.4,569.9z"/>
<path class="st1" d="M43.5,571.1l1.3,1.3L43.5,571.1z"/>
<path class="st2" d="M70.1,571.1l1.3,1.3L70.1,571.1z"/>
<path class="st1" d="M185.2,571.1l1.3,1.3L185.2,571.1z"/>
<path class="st0" d="M71.3,572.4l1.3,1.3L71.3,572.4z"/>
<path class="st2" d="M158.6,572.4l1.3,1.3L158.6,572.4z"/>
<path class="st0" d="M185.2,572.4l1.3,1.3L185.2,572.4z"/>
<path class="st2" d="M44.8,573.7l1.3,3.8h1.3L44.8,573.7z"/>
<path class="st1" d="M71.3,573.7l1.3,1.3L71.3,573.7 M157.3,573.7l1.3,1.3L157.3,573.7z"/>
<path class="st2" d="M424.6,574.5l0.4,0.8L424.6,574.5z"/>
<path class="st0" d="M44.8,574.9l1.3,1.3L44.8,574.9 M72.6,574.9l1.3,1.3L72.6,574.9z"/>
<path class="st2" d="M157.3,574.9l1.3,1.3L157.3,574.9z"/>
<path class="st1" d="M183.9,574.9l1.3,1.3L183.9,574.9 M72.6,576.2l1.3,1.3L72.6,576.2z"/>
<path class="st2" d="M182.6,576.2l-1.3,5.1h1.3V576.2z"/>
<path class="st0" d="M320.5,576.2l1.3,1.3L320.5,576.2z"/>
<path class="st1" d="M321.8,576.2v1.3h13.9L321.8,576.2z"/>
<path class="st2" d="M335.7,576.2v1.3h88.5l-27.8-1.3H335.7z"/>
<path class="st1" d="M46,577.5l1.3,1.3L46,577.5z"/>
<path class="st2" d="M72.6,577.5l1.3,1.3L72.6,577.5z"/>
<path class="st1" d="M156.1,577.5l1.3,1.3L156.1,577.5z"/>
<path class="st0" d="M316.7,577.5l1.3,1.3L316.7,577.5z"/>
<path class="st1" d="M318,577.5l1.3,1.3L318,577.5z"/>
<path class="st2" d="M320.1,577.9l0.8,0.4L320.1,577.9 M47.3,578.7l1.3,1.3L47.3,578.7z"/>
<path class="st1" d="M73.9,578.7l1.3,1.3L73.9,578.7z"/>
<path class="st2" d="M156.1,578.7l1.3,1.3L156.1,578.7z"/>
<path class="st1" d="M182.6,578.7l1.3,1.3L182.6,578.7 M311.2,579.1l0.8,0.4L311.2,579.1z"/>
<path class="st2" d="M312.9,578.7l1.3,1.3L312.9,578.7z"/>
<path class="st1" d="M47.3,580l1.3,1.3L47.3,580z"/>
<path class="st2" d="M73.9,580l1.3,5.1h1.3L73.9,580z"/>
<path class="st1" d="M154.8,580l-1.3,5.1h1.3V580z"/>
<path class="st0" d="M304.1,580l1.3,1.3L304.1,580z"/>
<path class="st1" d="M305.3,580l1.3,1.3L305.3,580z"/>
<path class="st2" d="M307.4,580.4l0.8,0.4L307.4,580.4z"/>
<path class="st0" d="M75.1,581.3l1.3,1.3L75.1,581.3z"/>
<path class="st1" d="M181.4,581.3l1.3,1.3L181.4,581.3 M301.5,581.3l1.3,1.3L301.5,581.3z"/>
<path class="st2" d="M303.6,581.7l0.8,0.4L303.6,581.7z"/>
<path class="st1" d="M48.6,582.5l1.3,1.3L48.6,582.5z"/>
<path class="st2" d="M154.8,582.5l1.3,1.3L154.8,582.5 M180.1,582.5l1.3,1.3L180.1,582.5z"/>
<path class="st1" d="M299,582.5l1.3,1.3L299,582.5z"/>
<path class="st2" d="M300.3,582.5l1.3,1.3L300.3,582.5z"/>
<path class="st1" d="M180.1,583.8l1.3,1.3L180.1,583.8z"/>
<path class="st2" d="M296.5,583.8l1.3,1.3L296.5,583.8 M49.8,585l1.3,1.3L49.8,585z"/>
<path class="st1" d="M76.4,585l1.3,1.3L76.4,585z"/>
<path class="st2" d="M153.5,585l1.3,1.3L153.5,585z"/>
<path class="st1" d="M292.7,585l1.3,1.3L292.7,585z"/>
<path class="st2" d="M293.9,585l1.3,1.3L293.9,585z"/>
<path class="st1" d="M49.8,586.3l1.3,1.3L49.8,586.3z"/>
<path class="st2" d="M76.4,586.3l1.3,1.3L76.4,586.3z"/>
<path class="st1" d="M152.3,586.3l1.3,1.3L152.3,586.3z"/>
<path class="st2" d="M178.8,586.3l1.3,1.3L178.8,586.3z"/>
<path class="st1" d="M290.1,586.3l1.3,1.3L290.1,586.3z"/>
<path class="st2" d="M291.4,586.3l1.3,1.3L291.4,586.3 M51.1,587.6l1.3,1.3L51.1,587.6 M152.3,587.6l1.3,1.3L152.3,587.6z"/>
<path class="st0" d="M178.8,587.6l1.3,1.3L178.8,587.6z"/>
<path class="st1" d="M288.9,587.6l1.3,1.3L288.9,587.6 M51.1,588.8l1.3,1.3L51.1,588.8 M77.6,588.8l1.3,1.3L77.6,588.8z"/>
<path class="st2" d="M177.6,588.8l1.3,1.3L177.6,588.8z"/>
<path class="st0" d="M286.4,588.8l1.3,1.3L286.4,588.8z"/>
<path class="st2" d="M287.6,588.8l1.3,1.3L287.6,588.8z"/>
<path class="st0" d="M51.1,590.1l1.3,1.3L51.1,590.1z"/>
<path class="st2" d="M52.3,590.1l1.3,1.3L52.3,590.1 M77.6,590.1l1.3,1.3L77.6,590.1z"/>
<path class="st0" d="M78.9,590.1l1.3,1.3L78.9,590.1z"/>
<path class="st1" d="M151,590.1l1.3,1.3L151,590.1 M177.6,590.1l1.3,1.3L177.6,590.1z"/>
<path class="st2" d="M285.1,590.1l1.3,1.3L285.1,590.1z"/>
<path class="st1" d="M52.8,592.2l0.4,0.8L52.8,592.2 M78.9,591.4l1.3,1.3L78.9,591.4z"/>
<path class="st2" d="M151,591.4l1.3,1.3L151,591.4 M176.3,591.4l1.3,1.3L176.3,591.4z"/>
<path class="st1" d="M282.6,591.4l1.3,1.3L282.6,591.4z"/>
<path class="st2" d="M283.8,591.4l1.3,1.3L283.8,591.4 M78.9,592.6l2.5,3.8L78.9,592.6z"/>
<path class="st1" d="M149.7,592.6l1.3,1.3L149.7,592.6 M176.7,593.5l0.4,0.8L176.7,593.5 M281.3,592.6l1.3,1.3L281.3,592.6z"/>
<path class="st2" d="M53.6,593.9l1.3,1.3L53.6,593.9z"/>
<path class="st1" d="M80.2,593.9l1.3,1.3L80.2,593.9z"/>
<path class="st2" d="M149.7,593.9l1.3,1.3L149.7,593.9 M280,593.9l1.3,1.3L280,593.9z"/>
<path class="st1" d="M53.6,595.2l1.3,1.3L53.6,595.2 M148.5,595.2l1.3,1.3L148.5,595.2 M175.5,596l0.4,0.8L175.5,596z"/>
<path class="st2" d="M278.8,595.2l1.3,1.3L278.8,595.2 M148.9,597.3l0.4,0.8L148.9,597.3 M277.5,596.4l1.3,1.3L277.5,596.4z"/>
<path class="st1" d="M54.9,597.7l1.3,1.3L54.9,597.7 M81.4,597.7l1.3,1.3L81.4,597.7z"/>
<path class="st2" d="M173.8,597.7l1.3,1.3L173.8,597.7 M276.2,597.7l1.3,1.3L276.2,597.7z"/>
<path class="st0" d="M54.9,599l1.3,1.3L54.9,599z"/>
<path class="st2" d="M56.6,599.8l0.4,0.8L56.6,599.8 M81.4,599l1.3,1.3L81.4,599z"/>
<path class="st1" d="M147.2,599l1.3,1.3L147.2,599 M173.8,599l1.3,1.3L173.8,599z"/>
<path class="st2" d="M275,599l1.3,1.3L275,599 M273.7,600.2l1.3,1.3L273.7,600.2 M328.1,600.2v1.3h6.3L328.1,600.2z"/>
<path class="st1" d="M334.4,600.2v1.3h89.8l-27.8-1.3H334.4z"/>
<path class="st2" d="M424.6,601.1l0.4,0.8L424.6,601.1z"/>
<path class="st1" d="M56.1,601.5l1.3,1.3L56.1,601.5 M82.7,601.5l1.3,1.3L82.7,601.5 M145.9,601.5l1.3,1.3L145.9,601.5z"/>
<path class="st2" d="M172.5,601.5l1.3,1.3L172.5,601.5 M272.4,601.5l1.3,1.3L272.4,601.5 M321.3,601.9l0.8,0.4L321.3,601.9z"/>
<path class="st1" d="M323.9,601.9l0.8,0.4L323.9,601.9z"/>
<path class="st0" d="M325.6,601.5l1.3,1.3L325.6,601.5z"/>
<path class="st4" d="M424.2,601.5h-68.3c-12.4,0-24.6-0.7-36.7,2.4c-30,7.5-46.8,44.7-23.8,69.6c27.5,29.7,109,27.4,125.4-13.8
	C427.7,642.4,424.2,619.7,424.2,601.5z"/>
<path class="st2" d="M57.4,602.8l1.3,1.3L57.4,602.8z"/>
<path class="st0" d="M84,602.8l1.3,1.3L84,602.8z"/>
<path class="st2" d="M145.9,602.8l1.3,1.3L145.9,602.8z"/>
<path class="st1" d="M172.5,602.8l1.3,1.3L172.5,602.8 M271.2,602.8l1.3,1.3L271.2,602.8z"/>
<path class="st2" d="M315.4,602.8l1.3,1.3L315.4,602.8z"/>
<path class="st1" d="M316.7,602.8v1.3h5.1L316.7,602.8 M424.2,602.8v37.9h1.3L424.2,602.8 M57.4,604l1.3,1.3L57.4,604 M84,604
	l1.3,1.3L84,604z"/>
<path class="st2" d="M171.2,604l1.3,1.3L171.2,604 M312.9,604l1.3,1.3L312.9,604z"/>
<path class="st1" d="M314.2,604l1.3,1.3L314.2,604z"/>
<path class="st0" d="M315.4,604l1.3,1.3L315.4,604 M57.4,605.3l1.3,1.3L57.4,605.3z"/>
<path class="st2" d="M58.7,605.3l1.3,1.3L58.7,605.3 M84,605.3l1.3,1.3L84,605.3z"/>
<path class="st1" d="M144.7,605.3l1.3,1.3L144.7,605.3 M171.2,605.3l1.3,1.3L171.2,605.3z"/>
<path class="st2" d="M269.9,605.3l1.3,1.3L269.9,605.3z"/>
<path class="st1" d="M310.4,605.3l1.3,1.3L310.4,605.3 M58.7,606.5l1.3,1.3L58.7,606.5 M85.2,606.5l1.3,1.3L85.2,606.5z"/>
<path class="st2" d="M144.7,606.5l1.3,1.3L144.7,606.5 M170,606.5l1.3,1.3L170,606.5z"/>
<path class="st1" d="M268.6,606.5l1.3,1.3L268.6,606.5z"/>
<path class="st2" d="M306.6,606.5l1.3,1.3L306.6,606.5z"/>
<path class="st0" d="M307.9,606.5l1.3,1.3L307.9,606.5z"/>
<path class="st2" d="M85.2,607.8l1.3,1.3L85.2,607.8z"/>
<path class="st1" d="M143.4,607.8l1.3,1.3L143.4,607.8 M170,607.8l1.3,1.3L170,607.8z"/>
<path class="st0" d="M267.4,607.8l1.3,1.3L267.4,607.8z"/>
<path class="st2" d="M268.6,607.8l1.3,1.3L268.6,607.8 M304.1,607.8l-1.3,2.5L304.1,607.8z"/>
<path class="st1" d="M305.3,607.8l1.3,1.3L305.3,607.8z"/>
<path class="st2" d="M59.9,609.1l1.3,1.3L59.9,609.1 M143.4,609.1l-1.3,3.8L143.4,609.1z"/>
<path class="st0" d="M170,609.1l1.3,1.3L170,609.1z"/>
<path class="st2" d="M267.4,609.1l1.3,1.3L267.4,609.1z"/>
<path class="st0" d="M304.1,609.1l1.3,1.3L304.1,609.1z"/>
<path class="st1" d="M59.9,610.3l1.3,1.3L59.9,610.3 M86.5,610.3l1.3,1.3L86.5,610.3 M142.2,610.3l1.3,1.3L142.2,610.3z"/>
<path class="st2" d="M168.7,610.3l1.3,1.3L168.7,610.3z"/>
<path class="st1" d="M266.1,610.3l1.3,1.3L266.1,610.3z"/>
<path class="st2" d="M300.3,610.3l1.3,1.3L300.3,610.3z"/>
<path class="st1" d="M301.5,610.3l1.3,1.3L301.5,610.3z"/>
<path class="st2" d="M61.2,611.6l1.3,5.1h1.3L61.2,611.6z"/>
<path class="st1" d="M168.7,611.6l1.3,1.3L168.7,611.6z"/>
<path class="st2" d="M266.1,611.6l1.3,1.3L266.1,611.6z"/>
<path class="st1" d="M299,611.6l1.3,1.3L299,611.6z"/>
<path class="st0" d="M87.8,612.9l1.3,1.3L87.8,612.9z"/>
<path class="st2" d="M167.5,612.9l1.3,1.3L167.5,612.9z"/>
<path class="st1" d="M264.8,612.9l1.3,1.3L264.8,612.9 M297.7,612.9l1.3,1.3L297.7,612.9z"/>
<path class="st0" d="M61.2,614.1l1.3,1.3L61.2,614.1z"/>
<path class="st2" d="M87.8,614.1l1.3,1.3L87.8,614.1z"/>
<path class="st1" d="M140.9,614.1l1.3,1.3L140.9,614.1 M167.5,614.1l1.3,1.3L167.5,614.1z"/>
<path class="st2" d="M264.8,614.1l1.3,1.3L264.8,614.1z"/>
<path class="st1" d="M296.5,614.1l1.3,1.3L296.5,614.1z"/>
<path class="st0" d="M89,615.4l1.3,1.3L89,615.4z"/>
<path class="st2" d="M140.9,615.4l1.3,1.3L140.9,615.4 M166.2,615.4l-1.3,5.1h1.3V615.4z"/>
<path class="st0" d="M263.6,615.4l1.3,1.3L263.6,615.4z"/>
<path class="st1" d="M295.2,615.4l1.3,1.3L295.2,615.4 M62.5,616.7l1.3,1.3L62.5,616.7 M89,616.7l1.3,1.3L89,616.7 M263.6,616.7
	l1.3,1.3L263.6,616.7 M293.9,616.7l1.3,1.3L293.9,616.7z"/>
<path class="st2" d="M63.7,617.9l1.3,1.3L63.7,617.9 M89,617.9l1.3,1.3L89,617.9z"/>
<path class="st1" d="M139.6,617.9l1.3,1.3L139.6,617.9 M166.2,617.9l1.3,1.3L166.2,617.9z"/>
<path class="st0" d="M262.3,617.9l1.3,1.3L262.3,617.9z"/>
<path class="st2" d="M263.6,617.9l1.3,1.3L263.6,617.9z"/>
<path class="st1" d="M292.7,617.9l1.3,1.3L292.7,617.9 M63.7,619.2l1.3,1.3L63.7,619.2 M90.3,619.2l1.3,1.3L90.3,619.2z"/>
<path class="st0" d="M138.4,619.2l1.3,1.3L138.4,619.2z"/>
<path class="st2" d="M139.6,619.2l1.3,1.3L139.6,619.2z"/>
<path class="st1" d="M262.3,619.2l1.3,1.3L262.3,619.2z"/>
<path class="st2" d="M291.4,619.2l-1.3,2.5L291.4,619.2 M90.3,620.5l2.5,3.8L90.3,620.5z"/>
<path class="st1" d="M138.4,620.5l1.3,1.3L138.4,620.5 M164.9,620.5l1.3,1.3L164.9,620.5z"/>
<path class="st2" d="M262.7,621.3l0.4,0.8L262.7,621.3z"/>
<path class="st1" d="M291.4,620.5l1.3,1.3L291.4,620.5 M65,621.7l1.3,1.3L65,621.7 M91.6,621.7l1.3,1.3L91.6,621.7z"/>
<path class="st2" d="M138.4,621.7l-1.3,5.1h1.3V621.7 M163.7,621.7l1.3,1.3L163.7,621.7z"/>
<path class="st1" d="M290.1,621.7l1.3,1.3L290.1,621.7 M137.1,623l1.3,1.3L137.1,623 M163.7,623l1.3,1.3L163.7,623 M261.1,623
	l1.3,1.3L261.1,623z"/>
<path class="st2" d="M288.9,623l1.3,1.3L288.9,623 M66.3,624.3l1.3,1.3L66.3,624.3 M261.1,624.3v3.8h1.3L261.1,624.3z"/>
<path class="st1" d="M288.9,624.3l1.3,1.3L288.9,624.3 M66.3,625.5l1.3,1.3L66.3,625.5 M92.8,625.5l1.3,1.3L92.8,625.5z"/>
<path class="st2" d="M162.4,625.5l1.3,1.3L162.4,625.5 M287.6,625.5l1.3,1.3L287.6,625.5 M67.5,626.8l1.3,1.3L67.5,626.8
	 M92.8,626.8l1.3,1.3L92.8,626.8z"/>
<path class="st1" d="M135.8,626.8l1.3,1.3L135.8,626.8 M162.4,626.8l1.3,1.3L162.4,626.8 M287.6,626.8l1.3,1.3L287.6,626.8
	 M67.5,628.1l1.3,1.3L67.5,628.1 M94.1,628.1l1.3,5.1h1.3L94.1,628.1z"/>
<path class="st2" d="M135.8,628.1l1.3,1.3L135.8,628.1 M161.1,628.1l1.3,1.3L161.1,628.1z"/>
<path class="st0" d="M67.5,629.3l1.3,1.3L67.5,629.3z"/>
<path class="st2" d="M68.8,629.3l1.3,1.3L68.8,629.3z"/>
<path class="st0" d="M134.6,629.3l1.3,1.3L134.6,629.3z"/>
<path class="st1" d="M161.1,629.3l1.3,1.3L161.1,629.3 M260.2,630.2l0.4,0.8L260.2,630.2z"/>
<path class="st2" d="M286.4,629.3l1.3,1.3L286.4,629.3z"/>
<path class="st1" d="M68.8,630.6l1.3,1.3L68.8,630.6z"/>
<path class="st2" d="M94.1,630.6l1.3,1.3L94.1,630.6z"/>
<path class="st1" d="M134.6,630.6l-1.3,3.8h1.3V630.6z"/>
<path class="st2" d="M159.9,630.6l1.3,1.3L159.9,630.6z"/>
<path class="st1" d="M286.4,630.6l1.3,1.3L286.4,630.6z"/>
<path class="st0" d="M68.8,631.8l1.3,1.3L68.8,631.8z"/>
<path class="st2" d="M134.6,631.8l1.3,1.3L134.6,631.8z"/>
<path class="st1" d="M160.3,632.7l0.4,0.8L160.3,632.7z"/>
<path class="st2" d="M260.2,632.7l0.4,0.8L260.2,632.7 M285.5,632.7l0.4,0.8L285.5,632.7 M70.1,633.1l1.3,1.3L70.1,633.1
	 M95.4,633.1l1.3,1.3L95.4,633.1z"/>
<path class="st1" d="M70.1,634.4l1.3,1.3L70.1,634.4 M96.6,634.4l1.3,1.3L96.6,634.4z"/>
<path class="st2" d="M133.3,634.4l1.3,1.3L133.3,634.4 M158.6,634.4l1.3,1.3L158.6,634.4z"/>
<path class="st1" d="M285.1,634.4v3.8h1.3L285.1,634.4z"/>
<path class="st2" d="M96.6,635.6l1.3,1.3L96.6,635.6z"/>
<path class="st1" d="M132,635.6l1.3,1.3L132,635.6z"/>
<path class="st0" d="M158.6,635.6l1.3,1.3L158.6,635.6z"/>
<path class="st2" d="M283.8,635.6v7.6h1.3L283.8,635.6 M71.3,636.9l1.3,1.3L71.3,636.9 M132.5,637.7l0.4,0.8L132.5,637.7
	 M157.3,636.9l1.3,1.3L157.3,636.9z"/>
<path class="st0" d="M71.3,638.2l1.3,1.3L71.3,638.2z"/>
<path class="st1" d="M97.9,638.2l1.3,1.3L97.9,638.2z"/>
<path class="st0" d="M130.8,638.2l1.3,1.3L130.8,638.2z"/>
<path class="st1" d="M157.3,638.2l1.3,1.3L157.3,638.2z"/>
<path class="st0" d="M285.1,638.2l1.3,1.3L285.1,638.2z"/>
<path class="st2" d="M72.6,639.4l1.3,1.3L72.6,639.4 M97.9,639.4l1.3,1.3L97.9,639.4z"/>
<path class="st1" d="M130.8,639.4l1.3,1.3L130.8,639.4z"/>
<path class="st0" d="M258.5,639.4l1.3,1.3L258.5,639.4z"/>
<path class="st1" d="M72.6,640.7l1.3,1.3L72.6,640.7 M99.1,640.7l1.3,5.1h1.3L99.1,640.7z"/>
<path class="st2" d="M156.1,640.7l-1.3,3.8h1.3V640.7z"/>
<path class="st1" d="M258.5,640.7v10.1h1.3L258.5,640.7z"/>
<path class="st2" d="M424.2,640.7v7.6h1.3L424.2,640.7 M73.9,642l1.3,1.3L73.9,642z"/>
<path class="st0" d="M129.5,642l1.3,1.3L129.5,642z"/>
<path class="st1" d="M156.1,642l1.3,1.3L156.1,642 M73.9,643.2l1.3,1.3L73.9,643.2z"/>
<path class="st2" d="M99.1,643.2l1.3,1.3L99.1,643.2 M129.5,643.2l1.3,1.3L129.5,643.2z"/>
<path class="st1" d="M283.8,643.2v3.8h1.3L283.8,643.2z"/>
<path class="st0" d="M73.9,644.5l1.3,1.3L73.9,644.5z"/>
<path class="st2" d="M75.1,644.5l1.3,1.3L75.1,644.5z"/>
<path class="st1" d="M128.7,645.3l0.4,0.8L128.7,645.3 M154.8,644.5l1.3,1.3L154.8,644.5 M75.1,645.8l1.3,1.3L75.1,645.8z"/>
<path class="st2" d="M100.4,645.8l1.3,1.3L100.4,645.8 M153.5,645.8l1.3,1.3L153.5,645.8z"/>
<path class="st0" d="M154.8,645.8l1.3,1.3L154.8,645.8z"/>
<path class="st1" d="M101.7,647l1.3,1.3L101.7,647z"/>
<path class="st2" d="M128.2,647l1.3,1.3L128.2,647z"/>
<path class="st1" d="M153.5,647l1.3,1.3L153.5,647z"/>
<path class="st2" d="M283.8,647v6.3h1.3L283.8,647z"/>
<path class="st0" d="M423,647l1.3,1.3L423,647z"/>
<path class="st2" d="M76.4,648.3l1.3,1.3L76.4,648.3 M101.7,648.3l1.3,1.3L101.7,648.3z"/>
<path class="st1" d="M127,648.3l1.3,1.3L127,648.3z"/>
<path class="st0" d="M153.5,648.3l1.3,1.3L153.5,648.3z"/>
<path class="st1" d="M423,648.3v3.8h1.3L423,648.3 M76.4,649.6l1.3,1.3L76.4,649.6z"/>
<path class="st2" d="M127,649.6l1.3,1.3L127,649.6 M152.3,649.6l1.3,1.3L152.3,649.6z"/>
<path class="st0" d="M285.1,649.6l1.3,1.3L285.1,649.6z"/>
<path class="st2" d="M77.6,650.8l2.5,3.8L77.6,650.8z"/>
<path class="st1" d="M102.9,650.8l1.3,1.3L102.9,650.8 M125.7,650.8l1.3,1.3L125.7,650.8z"/>
<path class="st0" d="M152.3,650.8l1.3,1.3L152.3,650.8 M258.9,651.7l0.4,0.8L258.9,651.7z"/>
<path class="st1" d="M285.1,650.8v5.1h1.3L285.1,650.8z"/>
<path class="st2" d="M125.7,652.1l1.3,1.3L125.7,652.1 M151,652.1l1.3,1.3L151,652.1 M423.4,652.9l0.4,0.8L423.4,652.9z"/>
<path class="st1" d="M77.6,653.3l1.3,1.3L77.6,653.3z"/>
<path class="st0" d="M104.2,653.3l1.3,1.3L104.2,653.3z"/>
<path class="st1" d="M151,653.3l1.3,1.3L151,653.3 M79.3,655.5l0.4,0.8L79.3,655.5z"/>
<path class="st2" d="M104.2,654.6l1.3,1.3L104.2,654.6z"/>
<path class="st1" d="M124.4,654.6l1.3,1.3L124.4,654.6z"/>
<path class="st2" d="M150.2,655.5l0.4,0.8L150.2,655.5z"/>
<path class="st1" d="M105.9,656.7l0.4,0.8L105.9,656.7z"/>
<path class="st2" d="M124.4,655.9l1.3,1.3L124.4,655.9 M285.5,656.7l0.4,0.8L285.5,656.7z"/>
<path class="st1" d="M421.7,655.9l1.3,1.3L421.7,655.9 M1375.4,655.9V666h1.3L1375.4,655.9z"/>
<path class="st2" d="M80.2,657.1l1.3,1.3L80.2,657.1z"/>
<path class="st0" d="M123.2,657.1l1.3,1.3L123.2,657.1z"/>
<path class="st1" d="M149.7,657.1l1.3,1.3L149.7,657.1z"/>
<path class="st2" d="M260.2,658l0.4,0.8L260.2,658 M421.7,657.1l1.3,1.3L421.7,657.1z"/>
<path class="st1" d="M1402,657.1v3.8h1.3L1402,657.1 M80.2,658.4l1.3,1.3L80.2,658.4z"/>
<path class="st2" d="M105.5,658.4l1.3,1.3L105.5,658.4z"/>
<path class="st0" d="M106.7,658.4l1.3,1.3L106.7,658.4z"/>
<path class="st1" d="M123.2,658.4l-1.3,3.8h1.3V658.4 M148.9,659.3l0.4,0.8L148.9,659.3 M286.4,658.4l1.3,1.3L286.4,658.4z"/>
<path class="st0" d="M420.4,658.4l1.3,1.3L420.4,658.4z"/>
<path class="st1" d="M106.7,659.7l1.3,1.3L106.7,659.7z"/>
<path class="st2" d="M123.2,659.7l1.3,1.3L123.2,659.7z"/>
<path class="st1" d="M260.2,660.5l0.4,0.8L260.2,660.5z"/>
<path class="st2" d="M286.4,659.7l1.3,1.3L286.4,659.7z"/>
<path class="st1" d="M420.4,659.7l1.3,1.3L420.4,659.7 M81.4,660.9l1.3,1.3L81.4,660.9z"/>
<path class="st2" d="M106.7,660.9l2.5,3.8L106.7,660.9 M147.2,660.9l1.3,1.3L147.2,660.9 M420.4,660.9l1.3,1.3L420.4,660.9
	 M1402.4,661.8l0.4,0.8L1402.4,661.8z"/>
<path class="st1" d="M108,662.2l1.3,1.3L108,662.2z"/>
<path class="st2" d="M121.9,662.2l1.3,1.3L121.9,662.2z"/>
<path class="st1" d="M147.2,662.2l1.3,1.3L147.2,662.2 M287.6,662.2l1.3,1.3L287.6,662.2 M419.2,662.2l1.3,1.3L419.2,662.2z"/>
<path class="st2" d="M82.7,663.5l1.3,1.3L82.7,663.5z"/>
<path class="st1" d="M120.7,663.5l1.3,1.3L120.7,663.5z"/>
<path class="st2" d="M287.6,663.5l1.3,1.3L287.6,663.5 M419.2,663.5l1.3,1.3L419.2,663.5z"/>
<path class="st1" d="M1403.2,663.5v3.8h1.3L1403.2,663.5 M82.7,664.7L84,666L82.7,664.7z"/>
<path class="st2" d="M120.7,664.7l1.3,1.3L120.7,664.7 M145.9,664.7l1.3,1.3L145.9,664.7 M261.1,664.7l1.3,1.3L261.1,664.7z"/>
<path class="st1" d="M288.9,664.7l1.3,1.3L288.9,664.7z"/>
<path class="st2" d="M417.9,664.7l1.3,1.3L417.9,664.7 M1377.1,665.6l0.4,0.8L1377.1,665.6 M84,666l1.3,1.3L84,666z"/>
<path class="st1" d="M109.3,666l1.3,1.3L109.3,666 M145.9,666l1.3,1.3L145.9,666 M261.5,666.8l0.4,0.8L261.5,666.8z"/>
<path class="st2" d="M288.9,666l1.3,3.8h1.3L288.9,666z"/>
<path class="st0" d="M290.1,666l1.3,1.3L290.1,666z"/>
<path class="st1" d="M416.6,666l1.3,1.3L416.6,666 M84,667.3l2.5,3.8L84,667.3z"/>
<path class="st2" d="M109.3,667.3l1.3,1.3L109.3,667.3z"/>
<path class="st1" d="M119.4,667.3l1.3,1.3L119.4,667.3z"/>
<path class="st2" d="M144.7,667.3l1.3,1.3L144.7,667.3 M262.7,668.1l0.4,0.8L262.7,668.1 M416.6,667.3l1.3,1.3L416.6,667.3z"/>
<path class="st1" d="M1376.7,667.3v5.1h1.3L1376.7,667.3z"/>
<path class="st2" d="M1403.7,668.1l0.4,0.8L1403.7,668.1 M85.2,668.5l1.3,1.3L85.2,668.5z"/>
<path class="st1" d="M110.5,668.5l1.3,5.1h1.3L110.5,668.5 M144.7,668.5l1.3,1.3L144.7,668.5 M291.4,668.5l1.3,1.3L291.4,668.5
	 M415.4,668.5l1.3,1.3L415.4,668.5 M1404.9,669.4l0.4,0.8L1404.9,669.4 M118.5,670.6l0.4,0.8L118.5,670.6z"/>
<path class="st2" d="M143.4,669.8l1.3,1.3L143.4,669.8z"/>
<path class="st1" d="M262.7,670.6l0.4,0.8L262.7,670.6 M414.1,669.8l-3.8,5.1L414.1,669.8z"/>
<path class="st0" d="M85.2,671.1l1.3,1.3L85.2,671.1z"/>
<path class="st2" d="M110.5,671.1l1.3,1.3L110.5,671.1z"/>
<path class="st1" d="M143.8,671.9l0.4,0.8L143.8,671.9z"/>
<path class="st2" d="M292.7,671.1l1.3,1.3L292.7,671.1 M414.1,671.1l1.3,1.3L414.1,671.1 M1404.5,671.1l1.3,1.3L1404.5,671.1
	 M86.5,672.3l1.3,1.3L86.5,672.3z"/>
<path class="st1" d="M117.3,673.2l0.4,0.8L117.3,673.2z"/>
<path class="st2" d="M263.6,672.3l1.3,1.3L263.6,672.3z"/>
<path class="st1" d="M293.9,672.3l2.5,2.5L293.9,672.3z"/>
<path class="st2" d="M412.8,672.3l1.3,1.3L412.8,672.3 M1378.4,673.2l0.4,0.8L1378.4,673.2z"/>
<path class="st1" d="M86.5,673.6l1.3,1.3L86.5,673.6z"/>
<path class="st2" d="M111.8,673.6l1.3,1.3L111.8,673.6z"/>
<path class="st1" d="M142.6,674.4l0.4,0.8L142.6,674.4 M263.6,673.6l1.3,1.3L263.6,673.6z"/>
<path class="st2" d="M293.9,673.6l1.3,1.3L293.9,673.6 M411.6,673.6l1.3,1.3L411.6,673.6z"/>
<path class="st1" d="M1405.8,673.6l1.3,1.3L1405.8,673.6 M113.1,674.9l1.3,1.3L113.1,674.9z"/>
<path class="st2" d="M116.9,674.9l1.3,1.3L116.9,674.9z"/>
<path class="st0" d="M263.6,674.9l1.3,1.3L263.6,674.9z"/>
<path class="st1" d="M296.5,674.9l1.3,1.3L296.5,674.9 M409,674.9l1.3,1.3L409,674.9 M1378.4,675.7l0.4,0.8L1378.4,675.7
	 M87.8,676.1l1.3,1.3L87.8,676.1z"/>
<path class="st2" d="M113.1,676.1l1.3,1.3L113.1,676.1z"/>
<path class="st1" d="M115.6,676.1l1.3,1.3L115.6,676.1z"/>
<path class="st2" d="M140.9,676.1l1.3,1.3L140.9,676.1 M264.8,676.1l1.3,1.3L264.8,676.1 M297.7,676.1l1.3,1.3L297.7,676.1z"/>
<path class="st1" d="M407.8,676.1l1.3,1.3L407.8,676.1 M1407,676.1l1.3,1.3L1407,676.1z"/>
<path class="st2" d="M89.5,678.2l0.4,0.8L89.5,678.2z"/>
<path class="st0" d="M114.3,677.4l1.3,1.3L114.3,677.4z"/>
<path class="st2" d="M115.6,677.4l1.3,1.3L115.6,677.4z"/>
<path class="st1" d="M140.9,677.4l1.3,1.3L140.9,677.4z"/>
<path class="st2" d="M299,677.4l3.8,3.8L299,677.4z"/>
<path class="st0" d="M300.3,677.4l1.3,1.3L300.3,677.4z"/>
<path class="st2" d="M406.5,677.4l1.3,1.3L406.5,677.4z"/>
<path class="st1" d="M1408.3,677.4l1.3,1.3L1408.3,677.4z"/>
<path class="st2" d="M114.3,678.6l1.3,1.3L114.3,678.6 M140,679.5l0.4,0.8L140,679.5 M266.1,678.6l2.5,5.1h1.3L266.1,678.6z"/>
<path class="st0" d="M301.5,678.6l1.3,1.3L301.5,678.6z"/>
<path class="st1" d="M404.8,679.1l0.8,0.4L404.8,679.1z"/>
<path class="st2" d="M1408.3,678.6l1.3,1.3L1408.3,678.6z"/>
<path class="st1" d="M89,679.9l1.3,1.3L89,679.9 M266.1,679.9l1.3,1.3L266.1,679.9 M302.8,679.9l1.3,1.3L302.8,679.9 M402.7,679.9
	l1.3,1.3L402.7,679.9 M894.8,679.9l1.3,1.3L894.8,679.9 M1379.2,679.9l1.3,1.3L1379.2,679.9 M1409.6,679.9l1.3,1.3L1409.6,679.9z"/>
<path class="st2" d="M90.3,681.2l1.3,1.3L90.3,681.2z"/>
<path class="st1" d="M139.6,681.2l1.3,1.3L139.6,681.2z"/>
<path class="st2" d="M304.1,681.2l1.3,1.3L304.1,681.2z"/>
<path class="st1" d="M305.3,681.2l1.3,1.3L305.3,681.2 M400.2,681.2l1.3,1.3L400.2,681.2z"/>
<path class="st0" d="M1379.2,681.2l1.3,1.3L1379.2,681.2z"/>
<path class="st1" d="M1410.8,681.2l1.3,1.3L1410.8,681.2 M90.3,682.4l1.3,1.3L90.3,682.4z"/>
<path class="st2" d="M138.4,682.4l1.3,1.3L138.4,682.4z"/>
<path class="st1" d="M267.4,682.4l1.3,1.3L267.4,682.4z"/>
<path class="st2" d="M306.6,682.4l2.5,2.5L306.6,682.4z"/>
<path class="st1" d="M307.9,682.4l1.3,1.3L307.9,682.4 M397.7,682.4l1.3,1.3L397.7,682.4z"/>
<path class="st2" d="M398.9,682.4l1.3,1.3L398.9,682.4 M1380.5,682.4l1.3,1.3L1380.5,682.4 M1410.8,682.4l1.3,1.3L1410.8,682.4z"/>
<path class="st0" d="M90.3,683.7l1.3,1.3L90.3,683.7z"/>
<path class="st1" d="M138.4,683.7l1.3,1.3L138.4,683.7 M268.6,683.7l1.3,1.3L268.6,683.7 M309.1,683.7l1.3,1.3L309.1,683.7
	 M395.1,683.7l1.3,1.3L395.1,683.7z"/>
<path class="st2" d="M396.4,683.7l1.3,1.3L396.4,683.7z"/>
<path class="st1" d="M1380.5,683.7l1.3,5.1h1.3L1380.5,683.7z"/>
<path class="st2" d="M1412.1,683.7l1.3,1.3L1412.1,683.7z"/>
<path class="st1" d="M91.6,685l1.3,1.3L91.6,685z"/>
<path class="st2" d="M137.1,685l1.3,1.3L137.1,685z"/>
<path class="st0" d="M138.4,685l1.3,1.3L138.4,685z"/>
<path class="st2" d="M269.9,685l1.3,1.3L269.9,685 M310.4,685l1.3,1.3L310.4,685z"/>
<path class="st1" d="M311.6,685l1.3,1.3L311.6,685 M392.6,685l1.3,1.3L392.6,685z"/>
<path class="st2" d="M393.9,685l1.3,1.3L393.9,685 M1381.7,685l1.3,1.3L1381.7,685 M1413.4,685l1.3,1.3L1413.4,685z"/>
<path class="st1" d="M137.1,686.2l1.3,1.3L137.1,686.2z"/>
<path class="st2" d="M314.2,686.2l1.3,1.3L314.2,686.2z"/>
<path class="st1" d="M315.4,686.2l1.3,1.3L315.4,686.2 M388.8,686.2l1.3,1.3L388.8,686.2z"/>
<path class="st2" d="M390.1,686.2l1.3,1.3L390.1,686.2z"/>
<path class="st1" d="M423,686.2l1.3,6.3h1.3L423,686.2z"/>
<path class="st2" d="M424.2,686.2l1.3,1.3L424.2,686.2z"/>
<path class="st1" d="M1415.9,686.2l1.3,1.3L1415.9,686.2z"/>
<path class="st2" d="M92.8,687.5l1.3,1.3L92.8,687.5z"/>
<path class="st1" d="M271.2,687.5l1.3,1.3L271.2,687.5z"/>
<path class="st2" d="M318,687.5v1.3l5.1,1.3v-1.3L318,687.5z"/>
<path class="st1" d="M320.5,687.5l1.3,1.3L320.5,687.5z"/>
<path class="st0" d="M383.7,687.5l1.3,1.3L383.7,687.5z"/>
<path class="st1" d="M385,687.5l1.3,1.3L385,687.5z"/>
<path class="st2" d="M387.1,687.9l0.8,0.4L387.1,687.9 M421.7,687.5l-1.3,2.5L421.7,687.5 M1417.2,687.5l2.5,2.5L1417.2,687.5z"/>
<path class="st0" d="M1418.4,687.5l1.3,1.3L1418.4,687.5z"/>
<path class="st1" d="M92.8,688.8l1.3,1.3L92.8,688.8z"/>
<path class="st2" d="M135.8,688.8l1.3,1.3L135.8,688.8z"/>
<path class="st1" d="M272.4,688.8l1.3,1.3L272.4,688.8 M323,688.8v1.3h3.8L323,688.8z"/>
<path class="st0" d="M378.7,688.8l1.3,1.3L378.7,688.8z"/>
<path class="st1" d="M380,688.8v1.3h3.8L380,688.8z"/>
<path class="st2" d="M383.7,688.8l1.3,1.3L383.7,688.8z"/>
<path class="st1" d="M421.7,688.8l1.3,1.3L421.7,688.8z"/>
<path class="st0" d="M1381.7,688.8l1.3,1.3L1381.7,688.8z"/>
<path class="st2" d="M1383,688.8l1.3,1.3L1383,688.8z"/>
<path class="st1" d="M1419.7,688.8l1.3,1.3L1419.7,688.8z"/>
<path class="st0" d="M1420.9,688.8l1.3,1.3L1420.9,688.8z"/>
<path class="st2" d="M94.1,690l1.3,1.3L94.1,690z"/>
<path class="st1" d="M135.8,690l1.3,1.3L135.8,690 M273.7,690l1.3,1.3L273.7,690z"/>
<path class="st2" d="M326.4,690.5l0.8,0.4L326.4,690.5z"/>
<path class="st1" d="M328.1,690v1.3h3.8L328.1,690 M374.5,690.5l0.8,0.4L374.5,690.5z"/>
<path class="st2" d="M376.2,690v1.3h3.8L376.2,690z"/>
<path class="st1" d="M420.4,690l1.3,1.3L420.4,690 M1383,690l1.3,1.3L1383,690z"/>
<path class="st2" d="M1420.9,690l1.3,1.3L1420.9,690z"/>
<path class="st1" d="M1423.1,690.5l0.8,0.4L1423.1,690.5 M94.1,691.3l1.3,5.1h1.3L94.1,691.3z"/>
<path class="st2" d="M134.6,691.3l1.3,1.3L134.6,691.3 M275,691.3l1.3,1.3L275,691.3 M335.3,691.7l0.8,0.4L335.3,691.7z"/>
<path class="st1" d="M336.9,691.3v1.3h6.3L336.9,691.3z"/>
<path class="st0" d="M344.1,691.7l0.8,0.4L344.1,691.7 M359.7,691.3l1.3,1.3L359.7,691.3z"/>
<path class="st1" d="M361,691.3v1.3h7.6L361,691.3z"/>
<path class="st2" d="M369.4,691.7l0.8,0.4L369.4,691.7z"/>
<path class="st1" d="M419.2,691.3l1.3,1.3L419.2,691.3z"/>
<path class="st2" d="M1384.3,691.3l1.3,1.3L1384.3,691.3 M1426,691.3l1.3,1.3L1426,691.3z"/>
<path class="st1" d="M1427.3,691.3v1.3h5.1L1427.3,691.3z"/>
<path class="st0" d="M1432.3,691.3l1.3,1.3L1432.3,691.3z"/>
<path class="st2" d="M95.4,692.6l1.3,1.3L95.4,692.6z"/>
<path class="st1" d="M134.6,692.6l1.3,1.3L134.6,692.6z"/>
<path class="st2" d="M276.2,692.6l3.8,3.8L276.2,692.6z"/>
<path class="st1" d="M417.9,692.6l1.3,1.3L417.9,692.6z"/>
<path class="st2" d="M424.2,692.6l1.3,1.3L424.2,692.6z"/>
<path class="st0" d="M1384.3,692.6l1.3,1.3L1384.3,692.6z"/>
<path class="st2" d="M1452.6,692.6l1.3,1.3L1452.6,692.6z"/>
<path class="st1" d="M1453.8,692.6v21.5h1.3L1453.8,692.6z"/>
<path class="st2" d="M133.3,693.8l-1.3,3.8L133.3,693.8z"/>
<path class="st0" d="M276.2,693.8l1.3,1.3L276.2,693.8z"/>
<path class="st2" d="M416.6,693.8l1.3,1.3L416.6,693.8z"/>
<path class="st1" d="M424.2,693.8v20.2h1.3L424.2,693.8z"/>
<path class="st2" d="M1385.5,693.8l2.5,2.5L1385.5,693.8z"/>
<path class="st0" d="M277.5,695.1l1.3,1.3L277.5,695.1z"/>
<path class="st2" d="M415.4,695.1l1.3,1.3L415.4,695.1z"/>
<path class="st0" d="M1385.5,695.1l1.3,1.3L1385.5,695.1z"/>
<path class="st2" d="M96.6,696.4l1.3,1.3L96.6,696.4z"/>
<path class="st1" d="M133.3,696.4l1.3,1.3L133.3,696.4z"/>
<path class="st2" d="M280,696.4l1.3,1.3L280,696.4z"/>
<path class="st1" d="M414.1,696.4l1.3,1.3L414.1,696.4 M1386.8,696.4l1.3,1.3L1386.8,696.4z"/>
<path class="st2" d="M1452.6,696.4l1.3,1.3L1452.6,696.4z"/>
<path class="st1" d="M96.6,697.6l1.3,1.3L96.6,697.6 M132.5,698.5l0.4,0.8L132.5,698.5 M281.3,697.6l1.3,1.3L281.3,697.6
	 M412.8,697.6l1.3,1.3L412.8,697.6z"/>
<path class="st2" d="M1388.1,697.6l1.3,1.3L1388.1,697.6z"/>
<path class="st1" d="M282.6,698.9l2.5,2.5L282.6,698.9z"/>
<path class="st2" d="M283.8,698.9l1.3,1.3L283.8,698.9 M410.3,698.9l1.3,1.3L410.3,698.9z"/>
<path class="st1" d="M411.6,698.9l1.3,1.3L411.6,698.9z"/>
<path class="st2" d="M1389.3,698.9l1.3,1.3L1389.3,698.9z"/>
<path class="st1" d="M97.9,700.1l1.3,1.3L97.9,700.1z"/>
<path class="st2" d="M130.8,700.1l1.3,1.3L130.8,700.1 M285.1,700.1l1.3,1.3L285.1,700.1z"/>
<path class="st1" d="M409,700.1l1.3,1.3L409,700.1z"/>
<path class="st2" d="M1390.6,700.1l1.3,1.3L1390.6,700.1z"/>
<path class="st1" d="M130.8,701.4l1.3,1.3L130.8,701.4 M286.4,701.4l1.3,1.3L286.4,701.4z"/>
<path class="st2" d="M406.5,701.4l1.3,1.3L406.5,701.4z"/>
<path class="st1" d="M407.8,701.4l1.3,1.3L407.8,701.4z"/>
<path class="st2" d="M1391.9,701.4l1.3,1.3L1391.9,701.4 M99.1,702.7l1.3,1.3L99.1,702.7 M288.9,702.7l1.3,1.3L288.9,702.7z"/>
<path class="st1" d="M405.2,702.7l1.3,1.3L405.2,702.7z"/>
<path class="st2" d="M1393.1,702.7l1.3,1.3L1393.1,702.7z"/>
<path class="st1" d="M99.1,703.9l1.3,1.3L99.1,703.9z"/>
<path class="st2" d="M129.5,703.9l-1.3,3.8h1.3V703.9z"/>
<path class="st1" d="M290.1,703.9l1.3,1.3L290.1,703.9z"/>
<path class="st2" d="M291.4,703.9l1.3,1.3L291.4,703.9z"/>
<path class="st1" d="M402.7,703.9l1.3,1.3L402.7,703.9z"/>
<path class="st0" d="M404,703.9l1.3,1.3L404,703.9z"/>
<path class="st2" d="M1394.4,703.9l1.3,1.3L1394.4,703.9 M100.4,705.2l1.3,1.3L100.4,705.2z"/>
<path class="st1" d="M129.5,705.2l1.3,1.3L129.5,705.2z"/>
<path class="st2" d="M292.7,705.2v1.3l3.8,1.3L292.7,705.2 M396.4,706.5v1.3l5.1-1.3H396.4z"/>
<path class="st1" d="M401.5,705.2l1.3,1.3L401.5,705.2z"/>
<path class="st2" d="M1395.7,705.2l1.3,1.3L1395.7,705.2z"/>
<path class="st1" d="M100.4,706.5l2.5,3.8L100.4,706.5 M293.9,706.5l1.3,1.3L293.9,706.5 M398.9,706.5l1.3,1.3L398.9,706.5
	 M1396.9,706.5l1.3,1.3L1396.9,706.5z"/>
<path class="st2" d="M1398.2,706.5l1.3,1.3L1398.2,706.5 M101.7,707.7l1.3,1.3L101.7,707.7z"/>
<path class="st1" d="M128.2,707.7l1.3,1.3L128.2,707.7 M297.7,707.7l1.3,1.3L297.7,707.7z"/>
<path class="st2" d="M299,707.7l1.3,1.3L299,707.7z"/>
<path class="st1" d="M395.1,707.7l1.3,1.3L395.1,707.7 M1399.4,707.7l1.3,1.3L1399.4,707.7z"/>
<path class="st2" d="M127,709l1.3,1.3L127,709z"/>
<path class="st0" d="M128.2,709l1.3,1.3L128.2,709 M300.3,709l1.3,1.3L300.3,709z"/>
<path class="st1" d="M301.5,709l3.8,2.5v-1.3L301.5,709z"/>
<path class="st2" d="M302.8,709l1.3,1.3L302.8,709 M390.1,709l1.3,1.3L390.1,709z"/>
<path class="st1" d="M392.2,709.4l0.8,0.4L392.2,709.4 M1402,709l1.3,1.3L1402,709z"/>
<path class="st0" d="M101.7,710.3l1.3,1.3L101.7,710.3z"/>
<path class="st1" d="M127,710.3l1.3,1.3L127,710.3z"/>
<path class="st2" d="M305.3,710.3l1.3,1.3L305.3,710.3 M387.1,710.7l0.8,0.4L387.1,710.7z"/>
<path class="st1" d="M389.6,710.7l0.8,0.4L389.6,710.7 M1403.2,710.3l1.3,1.3L1403.2,710.3z"/>
<path class="st2" d="M1405.4,710.7l0.8,0.4L1405.4,710.7 M102.9,711.5l1.3,1.3L102.9,711.5z"/>
<path class="st0" d="M127,711.5l1.3,1.3L127,711.5z"/>
<path class="st1" d="M306.6,711.5l1.3,1.3L306.6,711.5z"/>
<path class="st2" d="M308.7,712l0.8,0.4L308.7,712 M383.7,711.5l1.3,1.3L383.7,711.5z"/>
<path class="st1" d="M385.9,712l0.8,0.4L385.9,712z"/>
<path class="st0" d="M1405.8,711.5l1.3,1.3L1405.8,711.5z"/>
<path class="st1" d="M1407,711.5l1.3,1.3L1407,711.5z"/>
<path class="st2" d="M1409.1,712l0.8,0.4L1409.1,712z"/>
<path class="st1" d="M102.9,712.8l1.3,1.3L102.9,712.8 M125.7,712.8l1.3,1.3L125.7,712.8 M311.2,713.2l0.8,0.4L311.2,713.2z"/>
<path class="st2" d="M313.8,713.2l0.8,0.4L313.8,713.2 M378.7,712.8l1.3,1.3L378.7,712.8z"/>
<path class="st1" d="M380.8,713.2l0.8,0.4L380.8,713.2z"/>
<path class="st2" d="M1271.7,712.8l1.3,1.3L1271.7,712.8z"/>
<path class="st1" d="M1412.1,712.8l1.3,1.3L1412.1,712.8z"/>
<path class="st2" d="M1413.4,712.8l1.3,1.3L1413.4,712.8z"/>
<path class="st1" d="M318.8,714.5l0.8,0.4L318.8,714.5z"/>
<path class="st2" d="M320.5,714.1l1.3,1.3L320.5,714.1 M373.2,714.5l0.8,0.4L373.2,714.5z"/>
<path class="st1" d="M374.9,714.1l1.3,1.3L374.9,714.1 M1417.2,714.1v1.3h6.3L1417.2,714.1z"/>
<path class="st2" d="M1423.5,714.1v1.3h30.4L1423.5,714.1z"/>
<path class="st0" d="M1453.8,714.1l1.3,1.3L1453.8,714.1 M321.8,715.3l1.3,1.3L321.8,715.3z"/>
<path class="st1" d="M323,715.3v1.3h3.8L323,715.3z"/>
<path class="st2" d="M326.8,715.3v1.3h8.9L326.8,715.3 M362.2,715.3v1.3h3.8L362.2,715.3z"/>
<path class="st1" d="M366,715.3v1.3h6.3L366,715.3z"/>
<path class="st0" d="M1429.4,715.7l0.8,0.4L1429.4,715.7z"/>
<path class="st1" d="M1431.1,715.3v1.3h10.1L1431.1,715.3z"/>
<path class="st0" d="M1441.2,715.3v1.3h10.1L1441.2,715.3z"/>
<path class="st1" d="M1451.3,715.3l1.3,1.3L1451.3,715.3z"/>
<path class="st0" d="M330.6,716.6l1.3,1.3L330.6,716.6z"/>
<path class="st1" d="M331.9,716.6v1.3h8.9L331.9,716.6z"/>
<path class="st2" d="M340.7,716.6v1.3h15.2L340.7,716.6z"/>
<path class="st1" d="M355.9,716.6v1.3h7.6L355.9,716.6z"/>
</svg>
