<svg width="1920" height="578" viewBox="0 0 1920 578" fill="none" xmlns="http://www.w3.org/2000/svg">
<path d="M1920 420.773V578H0V434.871H6.37093V432.893H10.0615V434.871H12.7019V430.785H21.2731V434.871H26.2838V363.192H30.1044L31.2946 362.003V359.375H38.4156L40.1259 357.657V352.781H42.8963V348.694H61.0989L65.3195 350.803V363.981H66.8998V370.706H68.75V381.377H72.1805V425.509H76.6612V427.488H93.6737V352.391H102.645V349.354H104.495V344.088H122.828V348.834H132.299V359.185H137.5V373.373H141.251V429.796H149.812V426.928H169.185V378.149H175.316V371.295H193.708V376.501H212.701V379.198H218.572V386.712H222.662V389.939H225.823V406.735L237.005 411.511V417.636H246.496V456.083H259.718L262.028 458.381H263.678V400.351H266.049V396.524H274.23V392.687H288.092V390.759H295.863L299.024 393.926V395.505H311.145V413.789H335.579C351.381 407.075 370.424 403.158 390.917 403.158C418.081 403.158 442.695 410.042 460.597 421.193H463.028V388.98H473.119L483.901 391.648V394.615H485.481V397.683H488.251V375.152H490.051V369.617L491.722 371.285H496.262V369.617H519.306V376.041H521.886V397.773H532.168L543.589 409.193H557.791V419.914H559.572V365.17L576.024 381.606V403.158H579.945C583.645 333.647 585.622 264.769 585.875 196.523C581.365 196.104 577.434 195.444 575.524 193.946H574.344C572.914 191.478 573.304 189.14 575.794 186.971L572.624 183.414C572.945 181.092 572.83 178.73 572.284 176.45C572.153 175.83 572.242 175.184 572.535 174.623C572.829 174.061 573.309 173.619 573.894 173.373L574.934 172.933V172.644C574.933 172.041 575.172 171.463 575.597 171.035C576.023 170.608 576.601 170.367 577.204 170.366H577.244L578.824 167.928H578.034V162.922C580.595 162.572 583.215 162.372 585.875 162.262V156.727H585.085V150.303H587.856V97.8371C585.995 96.4382 584.995 94.9795 585.355 93.4208C585.581 92.7055 585.964 92.0497 586.476 91.5016C586.988 90.9535 587.617 90.527 588.316 90.2535V54.224L589.536 53.0051L589.906 41.3749L590.896 40.7854L590.096 39.5964L590.426 24.1795L590.756 23.8498V9.29212L591.186 8.86249V0H593.367V8.86249L593.797 9.29212V23.8498L594.127 24.1795L594.457 39.5964L593.657 40.7854L594.647 41.3749L595.017 53.0051L596.237 54.224V90.2535C596.936 90.527 597.565 90.9535 598.077 91.5016C598.589 92.0497 598.972 92.7055 599.197 93.4208C599.557 94.9795 598.557 96.4382 596.697 97.8371V150.303H599.467V156.727H598.677V162.262C601.338 162.372 603.958 162.572 606.518 162.922V167.928H605.728L607.309 170.366H607.349C607.952 170.367 608.53 170.608 608.955 171.035C609.381 171.463 609.62 172.041 609.619 172.644V172.933L610.659 173.373C611.243 173.619 611.724 174.061 612.017 174.623C612.311 175.184 612.4 175.83 612.269 176.45C611.723 178.73 611.607 181.092 611.929 183.414L608.759 186.971C611.249 189.14 611.639 191.478 610.209 193.946H609.029C607.119 195.444 603.178 196.104 598.677 196.523C598.847 264.736 600.824 333.614 604.608 403.158L604.968 408.943H614.17V387.402H617.53V384.734H632.762L646.614 398.572H661.386V376.631H667.057V374.652H671.338V372.874H677.869V367.998H687.96V363.062H706.953V381.576L714.074 374.453H724.756V366.349H735.237V327.812L750.279 312.795H776.593V357.457H788.455V343.429H796.376V340.072H807.848V286.707H811.608V281.172H838.902V286.907H841.283V288.885H843.453V333.747H848.404V326.823L858.395 336.804V340.002H864.686V256.173H868.187V254.095H890.34V257.272H894.691V367.798H900.561V321.557L909.073 313.055H963.871V337.104H967.161V339.872H977.453V315.892H981.273V308.778H986.954V261.808H988.464V254.694H989.954V249.449H1009.83L1017.21 256.822V263.976L1020.05 266.814V357.397H1023.61V366.749H1027.97V241.845H1037.23V237.888H1053.55L1060.27 244.613V249.159L1061.86 250.737V360.624H1084.42V363.592H1115.07V360.824H1124.37V363.192H1126.15V352.521H1136.05V333.747H1169.28V297.448H1192.82V268.722L1208.66 252.916H1237.67V316.422L1250.85 329.591V316.152H1254.55V312.205H1261.67V308.249H1272.49L1275.52 311.276H1282.78V305.611H1287.26V295.07H1291.48V284.269H1297.81V281.371L1299.44 279.743V262.597L1302.22 259.82L1305.13 262.727V279.793L1306.84 281.501V284.529H1313.43V286.377H1331.83L1339.39 293.921V349.074H1344.47V305.281H1349.41V262.298H1371.17L1385.86 276.975V308.548L1387.41 310.097V318.72L1391.36 322.666V329.89L1393.82 332.358V342.04H1410.34L1411.98 340.411H1424.88L1426.79 342.32H1432.2V373.204H1438.8V296.129H1447.89L1470.38 318.59V376.231H1474.67V380.847H1477.05V332.098L1479.55 329.591V320.239H1487.46L1496.56 329.331V371.885H1499.46V387.701H1501.97V393.496H1507.24V349.224L1510.73 345.737V334.466H1529.93V389.41H1532.56V393.496H1550.9V390.659H1554.46V356.668H1570.49V394.216H1574.84V427.817H1590.27V424.06H1594.22V405.486H1610.84V417.736H1616.39V402.319H1622.91V386.113H1632.21V427.817H1669.99V379.398H1674.74V372.544H1693.47V427.817H1701.65V433.682H1714.84V422.082H1746.22V431.045H1756.78V397.843H1770.23L1787.77 415.368V441.056H1809V364.381L1820.88 352.521H1829.32V406.535H1838.55V413.649H1858.86V398.632H1875.73V390.989H1880.48V382.825H1898.95V388.361H1905.55V412.34H1909.5L1915.17 418.006V420.773H1920Z" fill="#171C28"/>
</svg>
