<svg width="1920" height="455" viewBox="0 0 1920 455" fill="none" xmlns="http://www.w3.org/2000/svg">
<path d="M1781.88 181.399C1781.92 182.479 1891.92 182.863 1892.24 185.767C1892.47 187.864 1835.45 189.143 1834.04 194.662C1833.09 198.402 1858.38 201.404 1856.46 204.023C1854.4 206.826 1823.57 206.073 1822.84 206.055C1771.36 204.794 1719.46 207.528 1668.08 205.898C1640.13 205.011 1583.63 205.307 1470.63 205.898C1419.77 206.166 1368.9 205.21 1318.02 205.117C1297.4 205.08 1278.6 205.071 1278.37 204.18C1278.02 202.827 1320.19 198.62 1367.6 198.25C1395.81 198.033 1413.51 199.271 1450.8 197.47C1463.57 196.855 1483.29 195.659 1483.13 194.976C1483.1 194.833 1465.58 196.523 1446.06 194.505C1444.62 194.357 1435.91 193.461 1436.15 192.792C1436.19 192.667 1436.54 192.561 1437.12 192.464C1413.68 192.875 1375.41 193.433 1350.79 193.729C1324.4 194.038 1297.29 195.133 1296.9 194.195C1296.59 193.42 1314.81 192.265 1314.58 191.545C1314.09 190.044 1235.62 193.512 1150.33 194.038C1119.85 194.228 1049.17 194.662 961.084 191.074C901.159 188.631 860.58 185.444 820.978 187.328C817.945 187.476 793.659 188.658 761.488 188.109C759.607 188.076 727.034 187.499 727 186.548C726.946 185.195 793.017 184.631 889.525 181.713C1001.89 178.318 1001.58 176.383 1086.96 174.693C1136.3 173.714 1154.68 173.996 1202.49 172.195C1232.8 171.054 1255.07 169.821 1277.8 168.302C1277.87 168.36 1277.9 168.431 1277.91 168.505C1278.03 169.618 1270.84 170.865 1270.95 171.636C1271.2 173.345 1306.89 169.438 1307.01 170.38C1307.08 170.948 1294.32 172.943 1294.36 173.202C1294.39 173.382 1300.87 172.269 1305.11 171.945C1324.76 170.449 1343.41 173.354 1343.38 175.081C1343.36 176.111 1336.67 176.933 1330.65 177.473C1331.98 177.418 1332.92 177.427 1332.95 177.584C1333 177.949 1328.15 178.845 1328.2 179.15C1328.28 179.607 1339.18 178.018 1339.27 178.522C1339.32 178.813 1335.77 179.376 1335.79 179.778C1335.89 181.496 1401.86 179.016 1401.89 179.778C1401.92 180.341 1365.2 181.634 1365.2 183.223C1365.21 184.567 1391.62 186.936 1421.19 184.788C1444.19 183.117 1448.98 180.17 1474.32 176.333C1524.79 168.69 1565.11 171.382 1565.09 170.38C1565.09 169.955 1557.78 169.696 1550.55 169.442C1530.55 168.736 1525.59 169.636 1514.49 168.814C1499.55 167.711 1500.3 165.471 1487.29 164.432C1472.91 163.287 1466.16 165.554 1450.91 167.249C1422.47 170.417 1396.02 168.075 1395.88 165.997C1395.72 163.517 1459.43 159.144 1459.33 158.405C1459.28 158.091 1426.05 158.881 1419.92 159.421C1419.92 159.421 1408.39 160.437 1382.92 161.301C1378.08 161.462 1372.9 161.559 1367.45 161.61C1386.99 159.92 1399.29 158.396 1399.07 156.904C1398.67 154.166 1343.86 154.092 1343.89 152.536C1343.92 151.201 1384.05 150.471 1383.98 149.88C1383.89 149.058 1305.22 149.931 1305.09 149.104C1304.99 148.407 1360.46 147.631 1444.33 143.955C1463.49 143.115 1479.76 142.316 1504.69 141.771C1542.7 140.94 1570.88 141.351 1579.27 141.457C1684.46 142.759 1846.6 134.493 1848.7 138.958C1850.3 142.367 1757.88 151.321 1688.77 156.281C1647.26 159.26 1632.94 160.1 1628.71 160.303C1629.06 160.308 1629.34 160.336 1629.35 160.396C1629.48 160.996 1629.6 160.294 1740.93 162.52C1782.28 163.347 1805.16 163.758 1805.16 164.395C1805.16 165.734 1703.39 165.536 1702.99 168.14C1702.62 170.569 1779.83 174.467 1841.37 176.249C1888.87 177.626 1924.99 177.173 1925 177.658C1925.04 178.619 1781.83 180.17 1781.88 181.399Z" fill="#E6F4FF" fill-opacity="0.8"/>
<path d="M-4 250.531C368.901 252.301 564.731 250.026 674.299 247.543C742.717 245.993 794.308 243.981 794.259 243.061C794.188 241.758 690.335 242.854 690.176 240.572C690.07 239.05 736.146 237.372 736.043 236.09C735.841 233.574 558.212 237.032 557.868 233.601C557.726 232.182 587.988 230.594 587.858 229.617C587.499 226.914 355.126 235.133 354.996 234.098C354.808 232.608 836.859 213.009 836.597 210.695C836.547 210.252 641.983 217.428 641.663 215.177C641.529 214.235 675.416 212.054 675.181 210.197C675.001 208.773 654.897 208.729 654.894 208.206C654.886 206.757 738.689 206.214 738.689 206.214C878.054 203.785 1043.73 198.61 1043 194.067C1041.95 187.529 692.87 190.946 691.94 184.304C691.493 181.109 774.471 175.742 773.971 172.852C773.069 167.64 502.198 179.177 501.417 174.346C501.071 172.209 553.818 168.65 553.458 166.378C552.73 161.795 336.942 170.11 336.473 166.877C336.119 164.438 458.498 157.248 458.196 155.424C457.858 153.383 304.496 161.108 303.837 157.914C303.017 153.941 541.967 148.457 541.109 143.656C540.43 139.853 388.436 133.269 239.447 141.979C136.562 147.994 52.3985 133.538 -4 138.797V179.801C195.052 181.824 319.703 184.141 319.714 186.794C319.724 189.369 202.333 191.155 202.401 193.765C202.483 196.955 377.877 197.176 377.929 199.741C377.993 202.912 109.863 205.269 109.785 210.695C109.725 214.886 269.58 217.663 269.437 220.156C269.357 221.537 197.643 220.911 54.2155 219.658C52.4989 219.643 25.1315 219.389 25.1078 218.662C25.068 217.443 101.882 216.064 101.846 214.678C101.814 213.403 36.7597 213.821 36.5745 211.691C36.3363 208.953 143.479 204.872 143.303 202.728C143.174 201.163 85.9442 201.205 -4 202.23V250.531Z" fill="#E6F4FF" fill-opacity="0.8"/>
<g clip-path="url(#clip0_782_146)">
<path d="M1192.87 88.9569C1244.31 89.2957 1297.69 86.3811 1297.8 87.6083C1297.88 88.4961 1269.98 90.3948 1270.1 91.5415C1270.19 92.5028 1289.89 92.0824 1289.91 92.4406C1289.93 92.9438 1251.05 93.9392 1251.06 94.4634C1251.08 95.2148 1330.99 94.2852 1331.07 96.0367C1331.11 96.7198 1318.97 97.2369 1319 97.7224C1319.11 99.6111 1503.03 96.3657 1503.02 93.0025C1503.02 91.8425 1481.14 91.6967 1481.06 89.9564C1480.85 85.5218 1622.56 78.9997 1622.35 76.1458C1622.24 74.5768 1579.34 75.6132 1579.14 73.4909C1578.9 70.8643 1644.35 66.3935 1644.17 64.6832C1643.9 62.0786 1491.67 68.3211 1491.42 65.6946C1491.31 64.5923 1518.04 62.6006 1517.88 60.6376C1517.75 58.9721 1498.38 58.8635 1498.38 58.2777C1498.37 56.6372 1650.2 55.2954 1650.21 53.5578C1650.22 52.6118 1605.23 52.362 1605.17 50.5236C1605.08 47.8514 1699.97 44.3781 1699.89 43.1066C1699.82 41.9869 1626.19 44.2548 1626.06 42.7695C1626.01 42.0926 1671.62 39.8448 1734.25 34.6782C1749.88 33.3884 1757.02 32.7051 1757 31.9811C1756.88 28.4938 1627.01 24.9546 1626.53 28.947C1626.46 29.53 1639.39 30.3222 1639.38 31.9811C1639.37 32.7087 1636.88 33.3243 1635.2 33.5545C1630.06 34.255 1625.54 32.3056 1624.21 31.7563C1617.27 28.9071 1608.71 29.0548 1600.99 27.5983C1584.05 24.3998 1553.08 27.1688 1538.31 27.9355C1487.67 30.5632 1479.83 17.3177 1439.65 22.2042C1417.45 24.9032 1400.58 31.2863 1390.66 35.6896C1402.63 36.484 1407.16 37.0179 1407.14 37.3752C1407.08 38.5111 1361.01 37.7419 1360.94 38.8923C1360.88 40.0954 1411.17 42.4205 1411.09 44.4551C1411.02 46.3011 1369.6 45.068 1368.14 51.0292C1367.01 55.6476 1390.99 60.0145 1390.2 64.0089C1388.5 72.517 1276.52 68.7417 1276.44 65.0203C1276.39 62.6427 1322.04 61.0777 1321.94 57.7719C1321.86 54.8863 1287.02 54.0219 1287.02 51.77C1287.03 48.6538 1353.76 47.1152 1353.75 44.7923C1353.73 42.4368 1285.12 41.8018 1285.03 39.0609C1284.94 36.0726 1366.44 34.8693 1366.52 31.1383C1366.62 26.2156 1224.79 25.7384 1176.38 25.5755C1155.57 25.5055 1116.13 25.4916 1114.86 31.3068C1113.42 37.9439 1163 46.1977 1161.76 52.8835C1160.27 60.8685 1074.83 54.8413 1074 59.6263C1073.25 63.9887 1143.35 72.2264 1142.72 76.1459C1141.94 80.9594 1035.29 74.2577 1035 76.483C1034.77 78.2925 1104.56 88.3754 1192.87 88.9569Z" fill="#E6F4FF" fill-opacity="0.8"/>
</g>
<g clip-path="url(#clip1_782_146)">
<path d="M647.182 79.5839C647.054 86.7685 749.905 91.0093 749.777 96.3464C749.678 100.58 563.135 90.3678 559.517 106.531C558.815 109.654 565.492 111.264 564.836 114.282C561.15 131.239 341.64 120.804 341.746 118.159C341.803 116.725 406.326 117.872 406.355 116.498C406.387 114.966 326.311 110.48 233.813 112.069C185.016 112.904 138.612 115.33 138.42 113.729C138.209 111.968 194.156 107.83 193.906 105.423C193.653 102.964 135.003 104.252 135 104.04C134.997 103.867 174.151 103.47 200.24 102.841C288.344 100.713 365.641 92.5908 365.436 90.6594C365.231 88.7349 288.053 92.6095 287.906 91.028C287.797 89.864 329.241 84.5665 379.119 85.4902C404.911 85.9684 430.619 88.0678 430.804 86.9668C430.993 85.8657 405.292 83.4468 405.468 81.7999C405.807 78.6298 501.597 81.8909 501.748 79.9548C501.831 78.8794 472.319 77.5241 472.357 75.8936C472.437 72.4179 606.597 71.9584 606.642 68.8792C606.661 67.5543 581.76 66.6702 581.811 65.5575C581.91 63.4674 669.912 64.3772 669.983 62.6044C670.027 61.5453 638.52 60.3813 638.565 59.2827C638.632 57.6731 706.45 57.8061 706.469 56.698C706.482 55.9423 674.828 55.6507 674.671 53.3763C674.568 51.8904 688.005 50.9807 687.973 50.0546C687.877 47.3627 573.709 46.5719 492.618 47.9575C473.84 48.2771 456.836 48.7157 443.434 49.2732C424.986 50.0406 413.361 51.0367 413.323 52.2683C413.259 54.349 446.23 56.6957 446.009 58.1746C445.74 59.9568 397.888 57.0853 397.36 60.0221C397.087 61.5407 409.756 63.2179 409.522 64.8204C409.003 68.3731 345.886 65.7651 345.675 67.7736C345.54 69.0239 370.076 70.4794 370.047 72.173C369.971 76.6237 200.352 77.9113 200.24 83.0922C200.202 84.8907 220.645 85.4995 220.764 88.2591C220.994 93.5309 146.714 99.2879 146.528 98.4109C146.403 97.8277 178.983 94.471 178.705 91.5808C178.445 88.9006 150.105 88.6696 150.073 86.5982C150.048 84.7834 171.801 83.9483 171.865 81.8909C171.945 79.2666 136.598 78.0163 136.518 75.525C136.383 71.2143 241.883 67.531 241.793 64.1743C241.716 61.2351 160.83 60.1317 160.842 59.7445C160.858 59.2547 191.943 56.1639 231.12 57.5961C231.35 57.6054 231.581 57.6125 231.811 57.6218C245.475 58.1107 259.088 59.1895 272.576 60.8525C280.678 61.8696 302.934 64.9254 304.122 62.2358C304.734 60.8479 299.508 58.4732 298.041 57.8061C279.263 49.2708 256.808 55.814 232.007 54.8879C231.773 54.8786 231.542 54.8692 231.309 54.8599C224.094 54.5497 216.687 53.5933 209.11 51.4379C199.869 48.809 186.064 43.1662 187.066 38.9814C189.179 30.1569 256.155 31.8481 278.28 32.3357C287.573 32.5409 297.015 32.712 306.607 32.8488C308.407 25.1674 350.184 25.5033 350.219 22.7997C350.261 19.4966 287.96 17.4602 287.89 15.0482C287.794 11.7942 401.391 9.99567 401.398 6.92821C401.404 5.06907 359.813 4.0567 359.845 2.86704C359.915 0.37808 541.712 0.881938 541.763 -1.5627C541.786 -2.54709 512.354 -3.48482 512.373 -5.25298C512.395 -7.15411 546.368 -8.12916 546.323 -9.68272C546.295 -10.6928 531.9 -10.8211 531.881 -11.5279C531.846 -13.1211 604.57 -15.9646 604.851 -13.7439C605.063 -12.1064 565.684 -9.07623 565.918 -6.46364C566.184 -3.49182 617.456 -4.06799 617.52 -2.29983C617.584 -0.606313 570.446 0.576357 570.395 2.86704C570.312 6.55965 692.834 9.72508 692.77 12.2794C692.696 15.3025 521.003 15.4168 520.987 17.2619C520.974 18.9368 662.159 19.4267 662.368 24.6448C662.438 26.4013 636.416 27.6586 636.522 29.0746C636.653 30.8311 676.624 28.1438 688.066 29.6298C729.417 29.1516 755.08 29.3638 755.115 31.23C755.163 33.7842 706.991 35.0042 706.761 40.563C706.463 47.6333 784.109 51.9534 784 58.9141C783.853 68.1375 647.327 71.3145 647.182 79.5839Z" fill="#E6F4FF" fill-opacity="0.8"/>
</g>
<defs>
<clipPath id="clip0_782_146">
<rect width="722" height="72.9396" fill="white" transform="translate(1035 33.7174)"/>
</clipPath>
<clipPath id="clip1_782_146">
<rect width="649" height="130.741" fill="white" transform="translate(135)"/>
</clipPath>
</defs>
</svg>
