<svg width="1920" height="317" viewBox="0 0 1920 317" fill="none" xmlns="http://www.w3.org/2000/svg">
<path d="M-539.846 170.994C-539.846 170.994 -470.859 161.889 -419.276 160.767C-367.693 159.645 -298.679 160.767 -298.679 160.767C-298.679 160.767 -250.459 154.035 -211.772 142.814C-173.084 131.594 -100.4 122.619 -100.4 122.619C-100.4 122.619 -92.1936 111.399 -68.7468 108.033C-54.0587 105.975 -39.1533 104.849 -24.198 104.667C-24.198 104.667 -26.5427 101.862 -0.751221 99.6175C25.0403 97.3735 52.004 94.5685 66.0721 91.7635C80.1402 88.9585 107.104 88.3975 107.104 88.3975L134.068 90.6415C134.068 90.6415 165.721 80.5434 178.617 78.2994C191.512 76.0555 216.131 64.2743 216.131 64.2743L221.993 63.1523C221.993 63.1523 239.578 64.8354 244.268 63.7133C248.957 62.5912 266.542 54.1765 270.059 53.6153C273.576 53.0541 322.814 64.2743 333.365 70.4453C343.916 76.6164 350.95 76.6164 353.295 77.1775C356.095 78.0091 358.834 78.9453 361.502 79.9824C361.502 79.9824 370.88 79.9824 373.225 81.1044C375.57 82.2264 385.966 90.198 393 91.3199C400.034 92.4419 413.085 97.0265 418.946 98.1486C424.808 99.2707 431.842 99.2706 436.531 100.954C441.221 102.637 444.738 105.442 452.944 107.125C461.15 108.808 476.391 112.735 476.391 112.735C476.391 112.735 589.761 114.765 600.312 115.326C610.863 115.887 629.62 119.253 634.31 119.814C638.276 120.389 642.191 121.138 646.033 122.058L651.895 124.302L660.101 123.18C660.101 123.18 722.582 106.35 736.65 101.301C744.898 98.3403 748.714 95.3799 750.459 93.4372C751.086 92.7352 751.93 92.1492 752.923 91.7258C753.916 91.3023 755.03 91.0529 756.179 90.9974L763.614 90.6416C763.614 90.6416 768.303 85.0316 783.544 79.9825V73.7868L790.578 68.7624C790.578 68.7624 872.641 31.1752 930.086 18.2721H964.973C964.973 18.2721 965.256 17.7111 971.118 17.1501C976.979 16.5891 984.013 18.2721 986.358 17.7111C988.702 17.1501 991.047 15.4671 1002.77 16.0281C1014.49 16.5892 1027.39 13.2231 1032.08 13.2231C1036.77 13.2231 1052.34 12.6621 1054.52 13.2231C1056.7 13.7841 1071.94 13.2231 1071.94 13.2231C1071.94 13.2231 1095.39 8.17405 1102.42 4.24685C1109.45 0.319655 1114.14 0.319946 1114.14 0.319946H1120.61L1236 33.8079C1236 33.8079 1258.34 29.4921 1263.03 28.9311C1267.72 28.3702 1285.3 29.4921 1289.99 28.3701L1301.72 25.5651C1301.72 25.5651 1301.72 26.1261 1309.92 25.5651C1318.13 25.0041 1335.71 19.9551 1335.71 19.9551C1335.71 19.9551 1379.09 31.7361 1390.81 32.8581C1397.16 33.4067 1403.44 34.345 1409.57 35.6632C1409.57 35.6632 1410.74 37.9072 1413.09 37.9072C1415.43 37.9072 1428.33 39.0292 1428.33 39.0292L1429.5 40.1512C1429.5 40.1512 1438.88 41.2732 1440.05 42.3952C1441.23 43.5172 1448.26 51.932 1448.26 54.7373C1448.26 54.7373 1470.87 50.6499 1476.56 50.4494C1482.26 50.2488 1493.98 52.4931 1501.01 53.0541C1508.05 53.6151 1517.43 56.4201 1517.43 56.4201C1522.13 56.1169 1526.87 56.3058 1531.5 56.9811L1542.05 62.0301C1542.05 62.0301 1543.22 64.2741 1544.39 64.8352C1545.56 65.3962 1593.63 67.0791 1597.15 68.2011C1600.66 69.3231 1622.94 68.7621 1626.45 67.6401C1629.97 66.5182 1638.18 65.3962 1638.18 65.3962C1638.18 65.3962 1648.73 56.9811 1663.97 55.2981C1679.21 53.6151 1686.24 53.0541 1686.24 53.0541L1696.79 53.6151L1731.96 52.4931L1761.27 54.7371L1767.14 56.9811C1767.14 56.9811 1799.96 55.2981 1828.1 64.2741C1856.23 73.2501 1855.06 78.2992 1855.06 78.2992C1855.06 78.2992 1872.65 83.3483 1882.02 87.836C1891.4 92.3238 1919.54 96.8123 1919.54 96.8123L1924.23 99.0563C1924.23 99.0563 1937.12 100.178 1939.47 100.178C1941.81 100.178 1951.19 102.983 1951.19 102.983H1958.23L1962.92 100.739C1962.92 100.739 1991.05 105.227 1995.74 108.593L2005.12 109.154C2005.12 109.154 2026.22 119.252 2037.94 120.374C2049.67 121.496 2064.91 122.057 2064.91 122.057L2077.8 123.74C2077.8 123.74 2149.32 120.374 2164.56 113.642C2164.56 113.642 2191.52 112.52 2202.07 114.203C2212.62 115.886 2238.41 114.764 2238.41 114.764C2238.41 114.764 2247.79 110.276 2257.17 110.837C2263.82 111.121 2270.5 110.933 2277.1 110.276L2298.2 103.544L2312.27 102.983C2312.27 102.983 2343.93 92.8852 2345.1 92.8852L2357.99 95.1292C2357.99 95.1292 2375.58 92.8852 2375.58 92.3242C2376.24 90.6134 2377.02 88.9282 2377.92 87.2752C2377.92 87.2752 2397.85 86.1532 2406.06 83.9092C2414.27 81.6652 2430.68 79.9821 2430.68 79.4212C2430.68 78.8602 2444.75 75.4941 2449.44 75.4941C2453.02 75.6154 2456.57 76.0607 2460 76.8199V317H-540L-539.846 170.994Z" fill="#7FB9D3"/>
</svg>
