<svg width="1920" height="215" viewBox="0 0 1920 215" fill="none" xmlns="http://www.w3.org/2000/svg">
<path d="M-540 108.289C-457 100.362 -330 107.679 -278 100.362C-206.536 90.3055 -196.684 98.236 -165.031 85.0659C-133.377 71.8959 -148 66.7116 -91.1732 60.2459C32.4468 46.181 -36.0732 44.5436 81.1612 37.9587C198.396 31.3738 110.47 42.0109 223.015 28.3345C335.559 14.6581 298.045 6.04722 409.417 17.1909C520.79 28.3345 494.998 34.9194 536.03 38.9717C577.062 43.0239 628.645 58.22 628.645 58.22L643.449 56.0879C647.704 55.4751 651.195 53.8554 652.474 51.7135C654.193 48.8347 663.77 44.5371 702.503 42.011C764.637 37.9588 891.443 10.6284 959.929 5.55203C1028.41 0.475615 1047.17 0.98216 1047.17 0.98216C1047.17 0.98216 1116.34 10.0996 1157.37 11.6193C1198.4 13.1389 1252.33 18.7106 1252.33 18.7106C1252.33 18.7106 1240.61 19.7237 1305.09 23.776C1369.57 27.8283 1364.88 32.8935 1395.36 32.8935C1395.36 32.8935 1436.39 37.9588 1441.08 42.5177L1443.99 43.3569C1445.76 43.865 1447 45.482 1448 46.7016C1448.85 47.7349 1447.65 48.823 1456.32 51.1287C1471.56 55.181 1524.31 58.7267 1563 64.2982C1601.69 69.8697 1675.55 68.857 1687.27 67.8436C1698.99 66.8302 1817.4 40.4911 1822.09 40.4911C1826.78 40.4911 1868.86 46.4046 1904.15 49.6086C1931 52.0455 1936.98 52.1413 1936.98 52.1413C1936.98 52.1413 1945.42 56.4139 1976.96 57.57C2008.49 58.7262 2014.35 55.687 2014.35 55.687C2014.35 55.687 2022.31 52.7989 2027 52.7989C2031.69 52.7989 2041.32 52.4607 2041.32 52.4607C2041.32 52.4607 2053.79 49.0464 2062 51.5793C2070.21 54.1123 2160.49 48.6337 2232 49.1402C2292.85 49.5712 2322.83 46.3274 2329.24 43.4936C2330.52 42.9518 2331.97 42.6431 2333.45 42.5935L2377.78 40.6782C2377.78 40.6782 2402.4 35.6128 2403.57 32.0672C2403.57 32.0672 2428.19 26.4954 2430.54 26.4954C2432.88 26.4954 2451.78 23.2052 2460 26.5784C2459.99 30.8032 2460 215 2460 215H-540V108.289Z" fill="#4F91B3"/>
<path d="M-540 108.289C-457 100.362 -330 107.679 -278 100.362C-206.536 90.3055 -196.684 98.236 -165.031 85.0659C-133.377 71.8959 -148 66.7116 -91.1732 60.2459C32.4468 46.181 -36.0732 44.5436 81.1612 37.9587C198.396 31.3738 110.47 42.0109 223.015 28.3345C335.559 14.6581 298.045 6.04722 409.417 17.1909C520.79 28.3345 494.998 34.9194 536.03 38.9717C577.062 43.0239 628.645 58.22 628.645 58.22L643.449 56.0879C647.704 55.4751 651.195 53.8554 652.474 51.7135C654.193 48.8347 663.77 44.5371 702.503 42.011C764.637 37.9588 891.443 10.6284 959.929 5.55203C1028.41 0.475615 1047.17 0.98216 1047.17 0.98216C1047.17 0.98216 1116.34 10.0996 1157.37 11.6193C1198.4 13.1389 1252.33 18.7106 1252.33 18.7106C1252.33 18.7106 1240.61 19.7237 1305.09 23.776C1369.57 27.8283 1364.88 32.8935 1395.36 32.8935C1395.36 32.8935 1436.39 37.9588 1441.08 42.5177L1443.99 43.3569C1445.76 43.865 1447 45.482 1448 46.7016C1448.85 47.7349 1447.65 48.823 1456.32 51.1287C1471.56 55.181 1524.31 58.7267 1563 64.2982C1601.69 69.8697 1675.55 68.857 1687.27 67.8436C1698.99 66.8302 1817.4 40.4911 1822.09 40.4911C1826.78 40.4911 1868.86 46.4046 1904.15 49.6086C1931 52.0455 1936.98 52.1413 1936.98 52.1413C1936.98 52.1413 1945.42 56.4139 1976.96 57.57C2008.49 58.7262 2014.35 55.687 2014.35 55.687C2014.35 55.687 2022.31 52.7989 2027 52.7989C2031.69 52.7989 2041.32 52.4607 2041.32 52.4607C2041.32 52.4607 2053.79 49.0464 2062 51.5793C2070.21 54.1123 2160.49 48.6337 2232 49.1402C2292.85 49.5712 2322.83 46.3274 2329.24 43.4936C2330.52 42.9518 2331.97 42.6431 2333.45 42.5935L2377.78 40.6782C2377.78 40.6782 2402.4 35.6128 2403.57 32.0672C2403.57 32.0672 2428.19 26.4954 2430.54 26.4954C2432.88 26.4954 2451.78 23.2052 2460 26.5784C2459.99 30.8032 2460 215 2460 215H-540V108.289Z" fill="#4F91B3"/>
</svg>
